%TF.GenerationSoftware,KiCad,Pcbnew,(6.0.2)*%
%TF.CreationDate,2022-05-14T16:30:45-05:00*%
%TF.ProjectId,REF1156 Mod 1110,52454631-3135-4362-904d-6f6420313131,rev?*%
%TF.SameCoordinates,Original*%
%TF.FileFunction,Legend,Top*%
%TF.FilePolarity,Positive*%
%FSLAX46Y46*%
G04 Gerber Fmt 4.6, Leading zero omitted, Abs format (unit mm)*
G04 Created by KiCad (PCBNEW (6.0.2)) date 2022-05-14 16:30:45*
%MOMM*%
%LPD*%
G01*
G04 APERTURE LIST*
%ADD10C,0.150000*%
%ADD11C,0.125000*%
G04 APERTURE END LIST*
D10*
X140405619Y-81962380D02*
X140405619Y-80962380D01*
X140643714Y-80962380D01*
X140786571Y-81010000D01*
X140881809Y-81105238D01*
X140929428Y-81200476D01*
X140977047Y-81390952D01*
X140977047Y-81533809D01*
X140929428Y-81724285D01*
X140881809Y-81819523D01*
X140786571Y-81914761D01*
X140643714Y-81962380D01*
X140405619Y-81962380D01*
X141738952Y-81438571D02*
X141881809Y-81486190D01*
X141929428Y-81533809D01*
X141977047Y-81629047D01*
X141977047Y-81771904D01*
X141929428Y-81867142D01*
X141881809Y-81914761D01*
X141786571Y-81962380D01*
X141405619Y-81962380D01*
X141405619Y-80962380D01*
X141738952Y-80962380D01*
X141834190Y-81010000D01*
X141881809Y-81057619D01*
X141929428Y-81152857D01*
X141929428Y-81248095D01*
X141881809Y-81343333D01*
X141834190Y-81390952D01*
X141738952Y-81438571D01*
X141405619Y-81438571D01*
X142358000Y-81057619D02*
X142405619Y-81010000D01*
X142500857Y-80962380D01*
X142738952Y-80962380D01*
X142834190Y-81010000D01*
X142881809Y-81057619D01*
X142929428Y-81152857D01*
X142929428Y-81248095D01*
X142881809Y-81390952D01*
X142310380Y-81962380D01*
X142929428Y-81962380D01*
X143834190Y-80962380D02*
X143358000Y-80962380D01*
X143310380Y-81438571D01*
X143358000Y-81390952D01*
X143453238Y-81343333D01*
X143691333Y-81343333D01*
X143786571Y-81390952D01*
X143834190Y-81438571D01*
X143881809Y-81533809D01*
X143881809Y-81771904D01*
X143834190Y-81867142D01*
X143786571Y-81914761D01*
X143691333Y-81962380D01*
X143453238Y-81962380D01*
X143358000Y-81914761D01*
X143310380Y-81867142D01*
X145072285Y-81962380D02*
X145072285Y-80962380D01*
X145453238Y-80962380D01*
X145548476Y-81010000D01*
X145596095Y-81057619D01*
X145643714Y-81152857D01*
X145643714Y-81295714D01*
X145596095Y-81390952D01*
X145548476Y-81438571D01*
X145453238Y-81486190D01*
X145072285Y-81486190D01*
X146500857Y-81962380D02*
X146500857Y-81438571D01*
X146453238Y-81343333D01*
X146358000Y-81295714D01*
X146167523Y-81295714D01*
X146072285Y-81343333D01*
X146500857Y-81914761D02*
X146405619Y-81962380D01*
X146167523Y-81962380D01*
X146072285Y-81914761D01*
X146024666Y-81819523D01*
X146024666Y-81724285D01*
X146072285Y-81629047D01*
X146167523Y-81581428D01*
X146405619Y-81581428D01*
X146500857Y-81533809D01*
X146977047Y-81962380D02*
X146977047Y-81295714D01*
X146977047Y-81486190D02*
X147024666Y-81390952D01*
X147072285Y-81343333D01*
X147167523Y-81295714D01*
X147262761Y-81295714D01*
X148024666Y-81962380D02*
X148024666Y-81438571D01*
X147977047Y-81343333D01*
X147881809Y-81295714D01*
X147691333Y-81295714D01*
X147596095Y-81343333D01*
X148024666Y-81914761D02*
X147929428Y-81962380D01*
X147691333Y-81962380D01*
X147596095Y-81914761D01*
X147548476Y-81819523D01*
X147548476Y-81724285D01*
X147596095Y-81629047D01*
X147691333Y-81581428D01*
X147929428Y-81581428D01*
X148024666Y-81533809D01*
X148643714Y-81962380D02*
X148548476Y-81914761D01*
X148500857Y-81819523D01*
X148500857Y-80962380D01*
X149167523Y-81962380D02*
X149072285Y-81914761D01*
X149024666Y-81819523D01*
X149024666Y-80962380D01*
X149929428Y-81914761D02*
X149834190Y-81962380D01*
X149643714Y-81962380D01*
X149548476Y-81914761D01*
X149500857Y-81819523D01*
X149500857Y-81438571D01*
X149548476Y-81343333D01*
X149643714Y-81295714D01*
X149834190Y-81295714D01*
X149929428Y-81343333D01*
X149977047Y-81438571D01*
X149977047Y-81533809D01*
X149500857Y-81629047D01*
X150548476Y-81962380D02*
X150453238Y-81914761D01*
X150405619Y-81819523D01*
X150405619Y-80962380D01*
X151691333Y-81962380D02*
X151691333Y-80962380D01*
X152072285Y-80962380D01*
X152167523Y-81010000D01*
X152215142Y-81057619D01*
X152262761Y-81152857D01*
X152262761Y-81295714D01*
X152215142Y-81390952D01*
X152167523Y-81438571D01*
X152072285Y-81486190D01*
X151691333Y-81486190D01*
X152834190Y-81962380D02*
X152738952Y-81914761D01*
X152691333Y-81867142D01*
X152643714Y-81771904D01*
X152643714Y-81486190D01*
X152691333Y-81390952D01*
X152738952Y-81343333D01*
X152834190Y-81295714D01*
X152977047Y-81295714D01*
X153072285Y-81343333D01*
X153119904Y-81390952D01*
X153167523Y-81486190D01*
X153167523Y-81771904D01*
X153119904Y-81867142D01*
X153072285Y-81914761D01*
X152977047Y-81962380D01*
X152834190Y-81962380D01*
X153596095Y-81962380D02*
X153596095Y-81295714D01*
X153596095Y-81486190D02*
X153643714Y-81390952D01*
X153691333Y-81343333D01*
X153786571Y-81295714D01*
X153881809Y-81295714D01*
X154072285Y-81295714D02*
X154453238Y-81295714D01*
X154215142Y-80962380D02*
X154215142Y-81819523D01*
X154262761Y-81914761D01*
X154358000Y-81962380D01*
X154453238Y-81962380D01*
X164706476Y-90421619D02*
X164039809Y-90421619D01*
X164468380Y-89421619D01*
X163230285Y-90088285D02*
X163230285Y-89421619D01*
X163468380Y-90469238D02*
X163706476Y-89754952D01*
X163087428Y-89754952D01*
X162706476Y-89421619D02*
X162706476Y-90421619D01*
X162706476Y-89945428D02*
X162135047Y-89945428D01*
X162135047Y-89421619D02*
X162135047Y-90421619D01*
X161087428Y-89516857D02*
X161135047Y-89469238D01*
X161277904Y-89421619D01*
X161373142Y-89421619D01*
X161516000Y-89469238D01*
X161611238Y-89564476D01*
X161658857Y-89659714D01*
X161706476Y-89850190D01*
X161706476Y-89993047D01*
X161658857Y-90183523D01*
X161611238Y-90278761D01*
X161516000Y-90374000D01*
X161373142Y-90421619D01*
X161277904Y-90421619D01*
X161135047Y-90374000D01*
X161087428Y-90326380D01*
X160706476Y-90326380D02*
X160658857Y-90374000D01*
X160563619Y-90421619D01*
X160325523Y-90421619D01*
X160230285Y-90374000D01*
X160182666Y-90326380D01*
X160135047Y-90231142D01*
X160135047Y-90135904D01*
X160182666Y-89993047D01*
X160754095Y-89421619D01*
X160135047Y-89421619D01*
X159277904Y-90088285D02*
X159277904Y-89421619D01*
X159516000Y-90469238D02*
X159754095Y-89754952D01*
X159135047Y-89754952D01*
X158277904Y-90421619D02*
X158754095Y-90421619D01*
X158801714Y-89945428D01*
X158754095Y-89993047D01*
X158658857Y-90040666D01*
X158420761Y-90040666D01*
X158325523Y-89993047D01*
X158277904Y-89945428D01*
X158230285Y-89850190D01*
X158230285Y-89612095D01*
X158277904Y-89516857D01*
X158325523Y-89469238D01*
X158420761Y-89421619D01*
X158658857Y-89421619D01*
X158754095Y-89469238D01*
X158801714Y-89516857D01*
X157849333Y-89707333D02*
X157373142Y-89707333D01*
X157944571Y-89421619D02*
X157611238Y-90421619D01*
X157277904Y-89421619D01*
D11*
X161444571Y-106711880D02*
X161516000Y-106735690D01*
X161635047Y-106735690D01*
X161682666Y-106711880D01*
X161706476Y-106688071D01*
X161730285Y-106640452D01*
X161730285Y-106592833D01*
X161706476Y-106545214D01*
X161682666Y-106521404D01*
X161635047Y-106497595D01*
X161539809Y-106473785D01*
X161492190Y-106449976D01*
X161468380Y-106426166D01*
X161444571Y-106378547D01*
X161444571Y-106330928D01*
X161468380Y-106283309D01*
X161492190Y-106259500D01*
X161539809Y-106235690D01*
X161658857Y-106235690D01*
X161730285Y-106259500D01*
X161920761Y-106711880D02*
X161992190Y-106735690D01*
X162111238Y-106735690D01*
X162158857Y-106711880D01*
X162182666Y-106688071D01*
X162206476Y-106640452D01*
X162206476Y-106592833D01*
X162182666Y-106545214D01*
X162158857Y-106521404D01*
X162111238Y-106497595D01*
X162016000Y-106473785D01*
X161968380Y-106449976D01*
X161944571Y-106426166D01*
X161920761Y-106378547D01*
X161920761Y-106330928D01*
X161944571Y-106283309D01*
X161968380Y-106259500D01*
X162016000Y-106235690D01*
X162135047Y-106235690D01*
X162206476Y-106259500D01*
X162349333Y-106235690D02*
X162635047Y-106235690D01*
X162492190Y-106735690D02*
X162492190Y-106235690D01*
X160492190Y-107088309D02*
X160516000Y-107064500D01*
X160563619Y-107040690D01*
X160682666Y-107040690D01*
X160730285Y-107064500D01*
X160754095Y-107088309D01*
X160777904Y-107135928D01*
X160777904Y-107183547D01*
X160754095Y-107254976D01*
X160468380Y-107540690D01*
X160777904Y-107540690D01*
X161016000Y-107540690D02*
X161111238Y-107540690D01*
X161158857Y-107516880D01*
X161182666Y-107493071D01*
X161230285Y-107421642D01*
X161254095Y-107326404D01*
X161254095Y-107135928D01*
X161230285Y-107088309D01*
X161206476Y-107064500D01*
X161158857Y-107040690D01*
X161063619Y-107040690D01*
X161016000Y-107064500D01*
X160992190Y-107088309D01*
X160968380Y-107135928D01*
X160968380Y-107254976D01*
X160992190Y-107302595D01*
X161016000Y-107326404D01*
X161063619Y-107350214D01*
X161158857Y-107350214D01*
X161206476Y-107326404D01*
X161230285Y-107302595D01*
X161254095Y-107254976D01*
X161706476Y-107540690D02*
X161468380Y-107540690D01*
X161468380Y-107040690D01*
X161873142Y-107278785D02*
X162039809Y-107278785D01*
X162111238Y-107540690D02*
X161873142Y-107540690D01*
X161873142Y-107040690D01*
X162111238Y-107040690D01*
X162420761Y-107040690D02*
X162468380Y-107040690D01*
X162516000Y-107064500D01*
X162539809Y-107088309D01*
X162563619Y-107135928D01*
X162587428Y-107231166D01*
X162587428Y-107350214D01*
X162563619Y-107445452D01*
X162539809Y-107493071D01*
X162516000Y-107516880D01*
X162468380Y-107540690D01*
X162420761Y-107540690D01*
X162373142Y-107516880D01*
X162349333Y-107493071D01*
X162325523Y-107445452D01*
X162301714Y-107350214D01*
X162301714Y-107231166D01*
X162325523Y-107135928D01*
X162349333Y-107088309D01*
X162373142Y-107064500D01*
X162420761Y-107040690D01*
X163063619Y-107540690D02*
X162777904Y-107540690D01*
X162920761Y-107540690D02*
X162920761Y-107040690D01*
X162873142Y-107112119D01*
X162825523Y-107159738D01*
X162777904Y-107183547D01*
X163373142Y-107040690D02*
X163420761Y-107040690D01*
X163468380Y-107064500D01*
X163492190Y-107088309D01*
X163516000Y-107135928D01*
X163539809Y-107231166D01*
X163539809Y-107350214D01*
X163516000Y-107445452D01*
X163492190Y-107493071D01*
X163468380Y-107516880D01*
X163420761Y-107540690D01*
X163373142Y-107540690D01*
X163325523Y-107516880D01*
X163301714Y-107493071D01*
X163277904Y-107445452D01*
X163254095Y-107350214D01*
X163254095Y-107231166D01*
X163277904Y-107135928D01*
X163301714Y-107088309D01*
X163325523Y-107064500D01*
X163373142Y-107040690D01*
X133827571Y-108164880D02*
X133899000Y-108188690D01*
X134018047Y-108188690D01*
X134065666Y-108164880D01*
X134089476Y-108141071D01*
X134113285Y-108093452D01*
X134113285Y-108045833D01*
X134089476Y-107998214D01*
X134065666Y-107974404D01*
X134018047Y-107950595D01*
X133922809Y-107926785D01*
X133875190Y-107902976D01*
X133851380Y-107879166D01*
X133827571Y-107831547D01*
X133827571Y-107783928D01*
X133851380Y-107736309D01*
X133875190Y-107712500D01*
X133922809Y-107688690D01*
X134041857Y-107688690D01*
X134113285Y-107712500D01*
X134303761Y-108164880D02*
X134375190Y-108188690D01*
X134494238Y-108188690D01*
X134541857Y-108164880D01*
X134565666Y-108141071D01*
X134589476Y-108093452D01*
X134589476Y-108045833D01*
X134565666Y-107998214D01*
X134541857Y-107974404D01*
X134494238Y-107950595D01*
X134399000Y-107926785D01*
X134351380Y-107902976D01*
X134327571Y-107879166D01*
X134303761Y-107831547D01*
X134303761Y-107783928D01*
X134327571Y-107736309D01*
X134351380Y-107712500D01*
X134399000Y-107688690D01*
X134518047Y-107688690D01*
X134589476Y-107712500D01*
X134732333Y-107688690D02*
X135018047Y-107688690D01*
X134875190Y-108188690D02*
X134875190Y-107688690D01*
X132875190Y-108541309D02*
X132899000Y-108517500D01*
X132946619Y-108493690D01*
X133065666Y-108493690D01*
X133113285Y-108517500D01*
X133137095Y-108541309D01*
X133160904Y-108588928D01*
X133160904Y-108636547D01*
X133137095Y-108707976D01*
X132851380Y-108993690D01*
X133160904Y-108993690D01*
X133399000Y-108993690D02*
X133494238Y-108993690D01*
X133541857Y-108969880D01*
X133565666Y-108946071D01*
X133613285Y-108874642D01*
X133637095Y-108779404D01*
X133637095Y-108588928D01*
X133613285Y-108541309D01*
X133589476Y-108517500D01*
X133541857Y-108493690D01*
X133446619Y-108493690D01*
X133399000Y-108517500D01*
X133375190Y-108541309D01*
X133351380Y-108588928D01*
X133351380Y-108707976D01*
X133375190Y-108755595D01*
X133399000Y-108779404D01*
X133446619Y-108803214D01*
X133541857Y-108803214D01*
X133589476Y-108779404D01*
X133613285Y-108755595D01*
X133637095Y-108707976D01*
X134089476Y-108993690D02*
X133851380Y-108993690D01*
X133851380Y-108493690D01*
X134256142Y-108731785D02*
X134422809Y-108731785D01*
X134494238Y-108993690D02*
X134256142Y-108993690D01*
X134256142Y-108493690D01*
X134494238Y-108493690D01*
X134803761Y-108493690D02*
X134851380Y-108493690D01*
X134899000Y-108517500D01*
X134922809Y-108541309D01*
X134946619Y-108588928D01*
X134970428Y-108684166D01*
X134970428Y-108803214D01*
X134946619Y-108898452D01*
X134922809Y-108946071D01*
X134899000Y-108969880D01*
X134851380Y-108993690D01*
X134803761Y-108993690D01*
X134756142Y-108969880D01*
X134732333Y-108946071D01*
X134708523Y-108898452D01*
X134684714Y-108803214D01*
X134684714Y-108684166D01*
X134708523Y-108588928D01*
X134732333Y-108541309D01*
X134756142Y-108517500D01*
X134803761Y-108493690D01*
X135446619Y-108993690D02*
X135160904Y-108993690D01*
X135303761Y-108993690D02*
X135303761Y-108493690D01*
X135256142Y-108565119D01*
X135208523Y-108612738D01*
X135160904Y-108636547D01*
X135756142Y-108493690D02*
X135803761Y-108493690D01*
X135851380Y-108517500D01*
X135875190Y-108541309D01*
X135899000Y-108588928D01*
X135922809Y-108684166D01*
X135922809Y-108803214D01*
X135899000Y-108898452D01*
X135875190Y-108946071D01*
X135851380Y-108969880D01*
X135803761Y-108993690D01*
X135756142Y-108993690D01*
X135708523Y-108969880D01*
X135684714Y-108946071D01*
X135660904Y-108898452D01*
X135637095Y-108803214D01*
X135637095Y-108684166D01*
X135660904Y-108588928D01*
X135684714Y-108541309D01*
X135708523Y-108517500D01*
X135756142Y-108493690D01*
X134907190Y-89044690D02*
X134907190Y-88544690D01*
X135097666Y-88544690D01*
X135145285Y-88568500D01*
X135169095Y-88592309D01*
X135192904Y-88639928D01*
X135192904Y-88711357D01*
X135169095Y-88758976D01*
X135145285Y-88782785D01*
X135097666Y-88806595D01*
X134907190Y-88806595D01*
X135383380Y-88901833D02*
X135621476Y-88901833D01*
X135335761Y-89044690D02*
X135502428Y-88544690D01*
X135669095Y-89044690D01*
X136073857Y-89044690D02*
X135835761Y-89044690D01*
X135835761Y-88544690D01*
X136526238Y-88997071D02*
X136502428Y-89020880D01*
X136431000Y-89044690D01*
X136383380Y-89044690D01*
X136311952Y-89020880D01*
X136264333Y-88973261D01*
X136240523Y-88925642D01*
X136216714Y-88830404D01*
X136216714Y-88758976D01*
X136240523Y-88663738D01*
X136264333Y-88616119D01*
X136311952Y-88568500D01*
X136383380Y-88544690D01*
X136431000Y-88544690D01*
X136502428Y-88568500D01*
X136526238Y-88592309D01*
X136740523Y-88782785D02*
X136907190Y-88782785D01*
X136978619Y-89044690D02*
X136740523Y-89044690D01*
X136740523Y-88544690D01*
X136978619Y-88544690D01*
X133109571Y-89397309D02*
X133133380Y-89373500D01*
X133181000Y-89349690D01*
X133300047Y-89349690D01*
X133347666Y-89373500D01*
X133371476Y-89397309D01*
X133395285Y-89444928D01*
X133395285Y-89492547D01*
X133371476Y-89563976D01*
X133085761Y-89849690D01*
X133395285Y-89849690D01*
X133704809Y-89349690D02*
X133752428Y-89349690D01*
X133800047Y-89373500D01*
X133823857Y-89397309D01*
X133847666Y-89444928D01*
X133871476Y-89540166D01*
X133871476Y-89659214D01*
X133847666Y-89754452D01*
X133823857Y-89802071D01*
X133800047Y-89825880D01*
X133752428Y-89849690D01*
X133704809Y-89849690D01*
X133657190Y-89825880D01*
X133633380Y-89802071D01*
X133609571Y-89754452D01*
X133585761Y-89659214D01*
X133585761Y-89540166D01*
X133609571Y-89444928D01*
X133633380Y-89397309D01*
X133657190Y-89373500D01*
X133704809Y-89349690D01*
X134014333Y-89349690D02*
X134181000Y-89849690D01*
X134347666Y-89349690D01*
X134585761Y-89563976D02*
X134538142Y-89540166D01*
X134514333Y-89516357D01*
X134490523Y-89468738D01*
X134490523Y-89444928D01*
X134514333Y-89397309D01*
X134538142Y-89373500D01*
X134585761Y-89349690D01*
X134681000Y-89349690D01*
X134728619Y-89373500D01*
X134752428Y-89397309D01*
X134776238Y-89444928D01*
X134776238Y-89468738D01*
X134752428Y-89516357D01*
X134728619Y-89540166D01*
X134681000Y-89563976D01*
X134585761Y-89563976D01*
X134538142Y-89587785D01*
X134514333Y-89611595D01*
X134490523Y-89659214D01*
X134490523Y-89754452D01*
X134514333Y-89802071D01*
X134538142Y-89825880D01*
X134585761Y-89849690D01*
X134681000Y-89849690D01*
X134728619Y-89825880D01*
X134752428Y-89802071D01*
X134776238Y-89754452D01*
X134776238Y-89659214D01*
X134752428Y-89611595D01*
X134728619Y-89587785D01*
X134681000Y-89563976D01*
X134990523Y-89849690D02*
X134990523Y-89349690D01*
X134990523Y-89587785D02*
X135276238Y-89587785D01*
X135276238Y-89849690D02*
X135276238Y-89349690D01*
X135514333Y-89659214D02*
X135895285Y-89659214D01*
X136109571Y-89397309D02*
X136133380Y-89373500D01*
X136181000Y-89349690D01*
X136300047Y-89349690D01*
X136347666Y-89373500D01*
X136371476Y-89397309D01*
X136395285Y-89444928D01*
X136395285Y-89492547D01*
X136371476Y-89563976D01*
X136085761Y-89849690D01*
X136395285Y-89849690D01*
X136847666Y-89349690D02*
X136609571Y-89349690D01*
X136585761Y-89587785D01*
X136609571Y-89563976D01*
X136657190Y-89540166D01*
X136776238Y-89540166D01*
X136823857Y-89563976D01*
X136847666Y-89587785D01*
X136871476Y-89635404D01*
X136871476Y-89754452D01*
X136847666Y-89802071D01*
X136823857Y-89825880D01*
X136776238Y-89849690D01*
X136657190Y-89849690D01*
X136609571Y-89825880D01*
X136585761Y-89802071D01*
X137228619Y-89349690D02*
X137228619Y-89706833D01*
X137204809Y-89778261D01*
X137157190Y-89825880D01*
X137085761Y-89849690D01*
X137038142Y-89849690D01*
X137752428Y-89802071D02*
X137728619Y-89825880D01*
X137657190Y-89849690D01*
X137609571Y-89849690D01*
X137538142Y-89825880D01*
X137490523Y-89778261D01*
X137466714Y-89730642D01*
X137442904Y-89635404D01*
X137442904Y-89563976D01*
X137466714Y-89468738D01*
X137490523Y-89421119D01*
X137538142Y-89373500D01*
X137609571Y-89349690D01*
X137657190Y-89349690D01*
X137728619Y-89373500D01*
X137752428Y-89397309D01*
X138323857Y-89325880D02*
X137895285Y-89968738D01*
X138704809Y-89516357D02*
X138704809Y-89849690D01*
X138585761Y-89325880D02*
X138466714Y-89683023D01*
X138776238Y-89683023D01*
D10*
X129024904Y-108374428D02*
X129786809Y-108374428D01*
X131548714Y-108755380D02*
X130977285Y-108755380D01*
X131263000Y-108755380D02*
X131263000Y-107755380D01*
X131167761Y-107898238D01*
X131072523Y-107993476D01*
X130977285Y-108041095D01*
X166333285Y-88536619D02*
X166904714Y-88536619D01*
X166619000Y-88536619D02*
X166619000Y-89536619D01*
X166714238Y-89393761D01*
X166809476Y-89298523D01*
X166904714Y-89250904D01*
X166619000Y-86593285D02*
X166619000Y-88021857D01*
X135477714Y-92452380D02*
X134906285Y-92452380D01*
X135192000Y-92452380D02*
X135192000Y-91452380D01*
X135096761Y-91595238D01*
X135001523Y-91690476D01*
X134906285Y-91738095D01*
X135192000Y-94395714D02*
X135192000Y-92967142D01*
X156430904Y-108384428D02*
X157192809Y-108384428D01*
X158954714Y-108765380D02*
X158383285Y-108765380D01*
X158669000Y-108765380D02*
X158669000Y-107765380D01*
X158573761Y-107908238D01*
X158478523Y-108003476D01*
X158383285Y-108051095D01*
M02*
