M48
; DRILL file {KiCad (6.0.2)} date Sat May 14 16:30:48 2022
; FORMAT={-:-/ absolute / metric / decimal}
; #@! TF.CreationDate,2022-05-14T16:30:48-05:00
; #@! TF.GenerationSoftware,Kicad,Pcbnew,(6.0.2)
; #@! TF.FileFunction,Plated,1,2,PTH
FMAT,2
METRIC
; #@! TA.AperFunction,Plated,PTH,ViaDrill
T1C0.600
; #@! TA.AperFunction,Plated,PTH,ViaDrill
T2C4.200
%
G90
G05
T1
X121.752Y-122.753
X122.702Y-113.473
X125.002Y-92.153
X125.002Y-105.733
X126.232Y-97.193
X126.272Y-119.263
X126.752Y-122.793
X127.502Y-91.123
X127.542Y-99.503
X129.452Y-95.133
X129.602Y-105.333
X130.402Y-84.413
X130.402Y-109.973
X131.312Y-87.673
X131.872Y-122.753
X131.992Y-93.503
X132.032Y-89.573
X133.262Y-121.523
X133.892Y-82.113
X134.172Y-104.503
X134.172Y-106.243
X134.172Y-112.043
X134.172Y-117.513
X135.282Y-86.563
X135.402Y-118.393
X135.482Y-112.123
X135.872Y-124.223
X136.072Y-98.743
X136.712Y-107.433
X136.712Y-118.593
X136.752Y-105.533
X136.752Y-112.083
X136.832Y-87.353
X136.872Y-123.593
X137.702Y-92.793
X137.902Y-121.603
X137.982Y-104.503
X137.982Y-112.083
X138.222Y-118.903
X138.732Y-91.483
X139.172Y-123.473
X140.242Y-97.433
X140.642Y-83.073
X141.072Y-85.213
X141.352Y-80.013
X141.992Y-122.673
X142.192Y-95.843
X142.942Y-114.663
X142.982Y-88.303
X142.982Y-119.893
X143.452Y-122.673
X143.612Y-108.273
X143.772Y-107.003
X143.892Y-105.733
X143.932Y-120.613
X144.012Y-113.983
X144.092Y-79.933
X144.092Y-101.923
X144.172Y-86.873
X144.922Y-121.603
X145.002Y-102.953
X145.042Y-87.793
X145.042Y-108.273
X146.072Y-97.193
X146.112Y-88.583
X146.192Y-110.853
X146.712Y-112.083
X146.832Y-79.853
X146.832Y-89.693
X147.702Y-90.493
X147.702Y-113.983
X148.222Y-111.963
X148.222Y-119.893
X148.972Y-115.133
X149.252Y-90.493
X149.532Y-91.843
X149.572Y-79.853
X150.522Y-114.783
X150.802Y-112.353
X151.152Y-119.863
X151.192Y-94.653
X151.192Y-116.443
X151.232Y-108.273
X151.312Y-98.463
X152.152Y-95.493
X152.352Y-79.853
X153.062Y-123.233
X153.222Y-93.383
X153.222Y-115.693
X153.852Y-124.223
X154.132Y-114.743
X154.492Y-92.593
X155.122Y-79.773
X155.122Y-83.033
X155.482Y-100.813
X155.762Y-91.923
X155.842Y-122.953
X155.882Y-124.263
X156.392Y-86.683
X156.392Y-97.153
X156.392Y-110.013
X156.472Y-105.893
X156.952Y-112.083
X157.032Y-119.863
X157.072Y-91.123
X157.192Y-104.383
X157.662Y-86.803
X157.822Y-108.743
X157.942Y-79.773
X158.302Y-105.253
X158.302Y-122.673
X158.582Y-111.323
X159.092Y-124.223
X159.452Y-116.163
X159.492Y-112.083
X159.612Y-106.523
X160.242Y-88.423
X160.642Y-79.653
X160.642Y-97.313
X160.802Y-124.343
X160.922Y-108.663
X160.922Y-116.013
X161.792Y-111.123
X161.952Y-97.313
X162.152Y-117.323
X162.782Y-92.673
X162.902Y-108.663
X163.422Y-105.213
X163.502Y-82.913
X163.812Y-110.093
X163.892Y-117.163
X164.092Y-92.633
X164.692Y-118.073
X165.562Y-87.033
X165.682Y-120.493
X165.682Y-122.833
X167.432Y-97.313
X168.382Y-119.973
X170.052Y-121.683
X170.092Y-109.543
X170.682Y-94.733
X171.122Y-124.023
X171.592Y-98.583
X171.912Y-123.073
X172.982Y-118.113
X172.982Y-120.533
X173.022Y-119.343
X173.382Y-105.013
X174.612Y-123.553
X175.212Y-101.643
X175.482Y-113.983
X176.242Y-112.083
X177.032Y-123.783
X177.112Y-102.673
X177.822Y-110.813
X178.582Y-103.543
X178.622Y-122.043
X179.372Y-123.033
X179.412Y-104.693
X179.892Y-88.113
X180.292Y-109.933
X180.642Y-120.533
X180.922Y-90.293
X181.042Y-123.983
X181.402Y-119.303
T2
X117.742Y-105.253
X175.132Y-94.973
T0
M30
