%TF.GenerationSoftware,KiCad,Pcbnew,(6.0.2)*%
%TF.CreationDate,2022-05-14T16:30:45-05:00*%
%TF.ProjectId,REF1156 Mod 1110,52454631-3135-4362-904d-6f6420313131,rev?*%
%TF.SameCoordinates,Original*%
%TF.FileFunction,Soldermask,Bot*%
%TF.FilePolarity,Negative*%
%FSLAX46Y46*%
G04 Gerber Fmt 4.6, Leading zero omitted, Abs format (unit mm)*
G04 Created by KiCad (PCBNEW (6.0.2)) date 2022-05-14 16:30:45*
%MOMM*%
%LPD*%
G01*
G04 APERTURE LIST*
%ADD10C,0.000000*%
%ADD11C,0.640000*%
G04 APERTURE END LIST*
D10*
G36*
X137938000Y-78920400D02*
G01*
X136038000Y-78920400D01*
X136038000Y-73800400D01*
X137938000Y-73800400D01*
X137938000Y-78920400D01*
G37*
D11*
X132860500Y-125215700D02*
X132860500Y-134740700D01*
X179056800Y-125255400D02*
X179056800Y-134780400D01*
D10*
G36*
X154646500Y-78920400D02*
G01*
X152746500Y-78920400D01*
X152746500Y-73800400D01*
X154646500Y-73800400D01*
X154646500Y-78920400D01*
G37*
D11*
X161991200Y-125255400D02*
X161991200Y-134780400D01*
X155919000Y-125255400D02*
X155919000Y-134780400D01*
X157982700Y-125255400D02*
X157982700Y-134780400D01*
X127859900Y-125215700D02*
X127859900Y-134740700D01*
X177072400Y-125255400D02*
X177072400Y-134780400D01*
X125835900Y-125215700D02*
X125835900Y-134740700D01*
X109802100Y-125215700D02*
X109802100Y-134740700D01*
D10*
G36*
X135279000Y-78920400D02*
G01*
X133379000Y-78920400D01*
X133379000Y-73800400D01*
X135279000Y-73800400D01*
X135279000Y-78920400D01*
G37*
G36*
X160044000Y-78920400D02*
G01*
X158144000Y-78920400D01*
X158144000Y-73800400D01*
X160044000Y-73800400D01*
X160044000Y-78920400D01*
G37*
G36*
X146193000Y-78920400D02*
G01*
X144293000Y-78920400D01*
X144293000Y-73800400D01*
X146193000Y-73800400D01*
X146193000Y-78920400D01*
G37*
D11*
X142901500Y-125215700D02*
X142901500Y-134740700D01*
D10*
G36*
X163099900Y-78920400D02*
G01*
X161199900Y-78920400D01*
X161199900Y-73800400D01*
X163099900Y-73800400D01*
X163099900Y-78920400D01*
G37*
D11*
X119803300Y-125215700D02*
X119803300Y-134740700D01*
D10*
G36*
X143534000Y-78920400D02*
G01*
X141634000Y-78920400D01*
X141634000Y-73800400D01*
X143534000Y-73800400D01*
X143534000Y-78920400D01*
G37*
D11*
X126828000Y-125215700D02*
X126828000Y-134740700D01*
D10*
G36*
X143534000Y-78920400D02*
G01*
X141634000Y-78920400D01*
X141634000Y-73800400D01*
X143534000Y-73800400D01*
X143534000Y-78920400D01*
G37*
G36*
X137938000Y-78920400D02*
G01*
X136038000Y-78920400D01*
X136038000Y-73800400D01*
X137938000Y-73800400D01*
X137938000Y-78920400D01*
G37*
D11*
X114763000Y-125215700D02*
X114763000Y-134740700D01*
D10*
G36*
X140716200Y-78920400D02*
G01*
X138816200Y-78920400D01*
X138816200Y-73800400D01*
X140716200Y-73800400D01*
X140716200Y-78920400D01*
G37*
D11*
X120795500Y-125215700D02*
X120795500Y-134740700D01*
X156950900Y-125255400D02*
X156950900Y-134780400D01*
X135876800Y-125215700D02*
X135876800Y-134740700D01*
X134844900Y-125215700D02*
X134844900Y-134740700D01*
X154926800Y-125255400D02*
X154926800Y-134780400D01*
X133852700Y-125215700D02*
X133852700Y-134740700D01*
D10*
G36*
X149010900Y-78920400D02*
G01*
X147110900Y-78920400D01*
X147110900Y-73800400D01*
X149010900Y-73800400D01*
X149010900Y-78920400D01*
G37*
D11*
X143933300Y-125215700D02*
X143933300Y-134740700D01*
X153934600Y-125255400D02*
X153934600Y-134780400D01*
X122819600Y-125215700D02*
X122819600Y-134740700D01*
X169015900Y-125255400D02*
X169015900Y-134780400D01*
X110714900Y-125215700D02*
X110714900Y-134740700D01*
X152942400Y-125255400D02*
X152942400Y-134780400D01*
D10*
G36*
X132342100Y-78920400D02*
G01*
X130442100Y-78920400D01*
X130442100Y-73800400D01*
X132342100Y-73800400D01*
X132342100Y-78920400D01*
G37*
G36*
X149010900Y-78920400D02*
G01*
X147110900Y-78920400D01*
X147110900Y-73800400D01*
X149010900Y-73800400D01*
X149010900Y-78920400D01*
G37*
D11*
X112699300Y-125215700D02*
X112699300Y-134740700D01*
X111707100Y-125215700D02*
X111707100Y-134740700D01*
X123811800Y-125215700D02*
X123811800Y-134740700D01*
X128852100Y-125215700D02*
X128852100Y-134740700D01*
X144925500Y-125215700D02*
X144925500Y-134740700D01*
X115755200Y-125215700D02*
X115755200Y-134740700D01*
X175048300Y-125255400D02*
X175048300Y-134780400D01*
D10*
G36*
X157345200Y-78920400D02*
G01*
X155445200Y-78920400D01*
X155445200Y-73800400D01*
X157345200Y-73800400D01*
X157345200Y-78920400D01*
G37*
D11*
X136908700Y-125215700D02*
X136908700Y-134740700D01*
X137861200Y-125215700D02*
X137861200Y-134740700D01*
X158974900Y-125255400D02*
X158974900Y-134780400D01*
X172071800Y-125255400D02*
X172071800Y-134780400D01*
X178064600Y-125255400D02*
X178064600Y-134780400D01*
X160006800Y-125255400D02*
X160006800Y-134780400D01*
X174056200Y-125255400D02*
X174056200Y-134780400D01*
X121748000Y-125255400D02*
X121748000Y-134780400D01*
X171039900Y-125255400D02*
X171039900Y-134780400D01*
X164015200Y-125255400D02*
X164015200Y-134780400D01*
X170047700Y-125255400D02*
X170047700Y-134780400D01*
D10*
G36*
X151789000Y-78920400D02*
G01*
X149889000Y-78920400D01*
X149889000Y-73800400D01*
X151789000Y-73800400D01*
X151789000Y-78920400D01*
G37*
D11*
X138893000Y-125215700D02*
X138893000Y-134740700D01*
D10*
G36*
X157345200Y-78920400D02*
G01*
X155445200Y-78920400D01*
X155445200Y-73800400D01*
X157345200Y-73800400D01*
X157345200Y-78920400D01*
G37*
D11*
X176040500Y-125255400D02*
X176040500Y-134780400D01*
D10*
G36*
X154646500Y-78920400D02*
G01*
X152746500Y-78920400D01*
X152746500Y-73800400D01*
X154646500Y-73800400D01*
X154646500Y-78920400D01*
G37*
D11*
X116787100Y-125215700D02*
X116787100Y-134740700D01*
X131868300Y-125215700D02*
X131868300Y-134740700D01*
X182112700Y-125255400D02*
X182112700Y-134780400D01*
X129844300Y-125215700D02*
X129844300Y-134740700D01*
X168023700Y-125255400D02*
X168023700Y-134780400D01*
X163023000Y-125255400D02*
X163023000Y-134780400D01*
X124804000Y-125215700D02*
X124804000Y-134740700D01*
X141909300Y-125215700D02*
X141909300Y-134740700D01*
X173064000Y-125255400D02*
X173064000Y-134780400D01*
D10*
G36*
X132342100Y-78920400D02*
G01*
X130442100Y-78920400D01*
X130442100Y-73800400D01*
X132342100Y-73800400D01*
X132342100Y-78920400D01*
G37*
G36*
X151789000Y-78920400D02*
G01*
X149889000Y-78920400D01*
X149889000Y-73800400D01*
X151789000Y-73800400D01*
X151789000Y-78920400D01*
G37*
D11*
X160999000Y-125255400D02*
X160999000Y-134780400D01*
D10*
G36*
X146193000Y-78920400D02*
G01*
X144293000Y-78920400D01*
X144293000Y-73800400D01*
X146193000Y-73800400D01*
X146193000Y-78920400D01*
G37*
D11*
X139885200Y-125215700D02*
X139885200Y-134740700D01*
X130836500Y-125215700D02*
X130836500Y-134740700D01*
X118771500Y-125215700D02*
X118771500Y-134740700D01*
X183104900Y-125255400D02*
X183104900Y-134780400D01*
X167031500Y-125255400D02*
X167031500Y-134780400D01*
D10*
G36*
X160044000Y-78920400D02*
G01*
X158144000Y-78920400D01*
X158144000Y-73800400D01*
X160044000Y-73800400D01*
X160044000Y-78920400D01*
G37*
D11*
X181080900Y-125255400D02*
X181080900Y-134780400D01*
D10*
G36*
X135279000Y-78920400D02*
G01*
X133379000Y-78920400D01*
X133379000Y-73800400D01*
X135279000Y-73800400D01*
X135279000Y-78920400D01*
G37*
D11*
X140837700Y-125215700D02*
X140837700Y-134740700D01*
D10*
G36*
X163099900Y-78920400D02*
G01*
X161199900Y-78920400D01*
X161199900Y-73800400D01*
X163099900Y-73800400D01*
X163099900Y-78920400D01*
G37*
D11*
X180088700Y-125255400D02*
X180088700Y-134780400D01*
X164967700Y-125295100D02*
X164967700Y-134820100D01*
D10*
G36*
X140716200Y-78920400D02*
G01*
X138816200Y-78920400D01*
X138816200Y-73800400D01*
X140716200Y-73800400D01*
X140716200Y-78920400D01*
G37*
D11*
X165999600Y-125255400D02*
X165999600Y-134780400D01*
X117779300Y-125215700D02*
X117779300Y-134740700D01*
X113731200Y-125215700D02*
X113731200Y-134740700D01*
G36*
X183462606Y-124916009D02*
G01*
X183509106Y-124969659D01*
X183520498Y-125021516D01*
X183560497Y-135109186D01*
X183540765Y-135177386D01*
X183487294Y-135224091D01*
X183434186Y-135235686D01*
X152583093Y-135159312D01*
X152515022Y-135139141D01*
X152468662Y-135085370D01*
X152457406Y-135032907D01*
X152489596Y-125025579D01*
X152509817Y-124957523D01*
X152563622Y-124911203D01*
X152615579Y-124899984D01*
X183394483Y-124896016D01*
X183462606Y-124916009D01*
G37*
G36*
X145297149Y-124824815D02*
G01*
X145365240Y-124844917D01*
X145411654Y-124898641D01*
X145422964Y-124950851D01*
X145420036Y-135112851D01*
X145400014Y-135180966D01*
X145346345Y-135227444D01*
X145293851Y-135238815D01*
X109475779Y-135186185D01*
X109407688Y-135166083D01*
X109361274Y-135112359D01*
X109349964Y-135060221D01*
X109347036Y-124898221D01*
X109367018Y-124830095D01*
X109420661Y-124783586D01*
X109473221Y-124772185D01*
X145297149Y-124824815D01*
G37*
M02*
