%TF.GenerationSoftware,KiCad,Pcbnew,(6.0.2)*%
%TF.CreationDate,2022-05-14T16:30:45-05:00*%
%TF.ProjectId,REF1156 Mod 1110,52454631-3135-4362-904d-6f6420313131,rev?*%
%TF.SameCoordinates,Original*%
%TF.FileFunction,Copper,L1,Top*%
%TF.FilePolarity,Positive*%
%FSLAX46Y46*%
G04 Gerber Fmt 4.6, Leading zero omitted, Abs format (unit mm)*
G04 Created by KiCad (PCBNEW (6.0.2)) date 2022-05-14 16:30:45*
%MOMM*%
%LPD*%
G01*
G04 APERTURE LIST*
%TA.AperFunction,NonConductor*%
%ADD10C,0.000000*%
%TD*%
%TA.AperFunction,NonConductor*%
%ADD11C,0.300000*%
%TD*%
%TA.AperFunction,NonConductor*%
%ADD12C,0.500000*%
%TD*%
%TA.AperFunction,NonConductor*%
%ADD13C,2.100000*%
%TD*%
%TA.AperFunction,ViaPad*%
%ADD14C,0.600010*%
%TD*%
%TA.AperFunction,ViaPad*%
%ADD15C,4.200010*%
%TD*%
%TA.AperFunction,Conductor*%
%ADD16C,0.250000*%
%TD*%
%TA.AperFunction,Conductor*%
%ADD17C,0.640000*%
%TD*%
%TA.AperFunction,Conductor*%
%ADD18C,0.189000*%
%TD*%
%TA.AperFunction,Conductor*%
%ADD19C,0.167000*%
%TD*%
G04 APERTURE END LIST*
D10*
G36*
X128394900Y-104818800D02*
G01*
X126054900Y-104818800D01*
X126054900Y-104178800D01*
X128394900Y-104178800D01*
X128394900Y-104818800D01*
G37*
G36*
X135537100Y-85646400D02*
G01*
X134867100Y-85646400D01*
X134867100Y-83346400D01*
X135537100Y-83346400D01*
X135537100Y-85646400D01*
G37*
D11*
X170197700Y-121683500D02*
G75*
G03*
X170197700Y-121683500I-150000J0D01*
G01*
X170832700Y-94735700D02*
G75*
G03*
X170832700Y-94735700I-150000J0D01*
G01*
X167578300Y-97315400D02*
G75*
G03*
X167578300Y-97315400I-150000J0D01*
G01*
D12*
X138468300Y-118905400D02*
G75*
G03*
X138468300Y-118905400I-250000J0D01*
G01*
X146445500Y-110848800D02*
G75*
G03*
X146445500Y-110848800I-250000J0D01*
G01*
D10*
G36*
X163779600Y-103724200D02*
G01*
X163139600Y-103724200D01*
X163139600Y-101384200D01*
X163779600Y-101384200D01*
X163779600Y-103724200D01*
G37*
G36*
X128394900Y-107398500D02*
G01*
X126054900Y-107398500D01*
X126054900Y-106758500D01*
X128394900Y-106758500D01*
X128394900Y-107398500D01*
G37*
D12*
X146961500Y-112079200D02*
G75*
G03*
X146961500Y-112079200I-250000J0D01*
G01*
D11*
X179524300Y-123032900D02*
G75*
G03*
X179524300Y-123032900I-150000J0D01*
G01*
D10*
G36*
X131727100Y-85646400D02*
G01*
X131057100Y-85646400D01*
X131057100Y-83346400D01*
X131727100Y-83346400D01*
X131727100Y-85646400D01*
G37*
G36*
X132997100Y-97076400D02*
G01*
X132327100Y-97076400D01*
X132327100Y-94776400D01*
X132997100Y-94776400D01*
X132997100Y-97076400D01*
G37*
G36*
X130637100Y-94356400D02*
G01*
X128337100Y-94356400D01*
X128337100Y-93686400D01*
X130637100Y-93686400D01*
X130637100Y-94356400D01*
G37*
D12*
X164066800Y-110094800D02*
G75*
G03*
X164066800Y-110094800I-250000J0D01*
G01*
D10*
G36*
X133259900Y-115233500D02*
G01*
X132619900Y-115233500D01*
X132619900Y-112893500D01*
X133259900Y-112893500D01*
X133259900Y-115233500D01*
G37*
G36*
X128394900Y-111168800D02*
G01*
X126054900Y-111168800D01*
X126054900Y-110528800D01*
X128394900Y-110528800D01*
X128394900Y-111168800D01*
G37*
D12*
X157319900Y-91124200D02*
G75*
G03*
X157319900Y-91124200I-250000J0D01*
G01*
D11*
X157180200Y-119857900D02*
G75*
G03*
X157180200Y-119857900I-150000J0D01*
G01*
X156624600Y-105887900D02*
G75*
G03*
X156624600Y-105887900I-150000J0D01*
G01*
X134320200Y-117516400D02*
G75*
G03*
X134320200Y-117516400I-150000J0D01*
G01*
D12*
X138150900Y-121604200D02*
G75*
G03*
X138150900Y-121604200I-250000J0D01*
G01*
D10*
G36*
X138300200Y-115233500D02*
G01*
X137660200Y-115233500D01*
X137660200Y-112893500D01*
X138300200Y-112893500D01*
X138300200Y-115233500D01*
G37*
D11*
X135550500Y-118389500D02*
G75*
G03*
X135550500Y-118389500I-150000J0D01*
G01*
X150949300Y-112357000D02*
G75*
G03*
X150949300Y-112357000I-150000J0D01*
G01*
D12*
X177362100Y-102673200D02*
G75*
G03*
X177362100Y-102673200I-250000J0D01*
G01*
D10*
G36*
X137069900Y-103763800D02*
G01*
X136429900Y-103763800D01*
X136429900Y-101423800D01*
X137069900Y-101423800D01*
X137069900Y-103763800D01*
G37*
D12*
X155732400Y-100807900D02*
G75*
G03*
X155732400Y-100807900I-250000J0D01*
G01*
D10*
G36*
X155104600Y-112399200D02*
G01*
X152764600Y-112399200D01*
X152764600Y-111759200D01*
X155104600Y-111759200D01*
X155104600Y-112399200D01*
G37*
G36*
X139386800Y-85646400D02*
G01*
X138716800Y-85646400D01*
X138716800Y-83346400D01*
X139386800Y-83346400D01*
X139386800Y-85646400D01*
G37*
D11*
X165832100Y-120492900D02*
G75*
G03*
X165832100Y-120492900I-150000J0D01*
G01*
X145194600Y-108269200D02*
G75*
G03*
X145194600Y-108269200I-150000J0D01*
G01*
X181072100Y-90290700D02*
G75*
G03*
X181072100Y-90290700I-150000J0D01*
G01*
D10*
G36*
X142106800Y-86736400D02*
G01*
X139806800Y-86736400D01*
X139806800Y-86066400D01*
X142106800Y-86066400D01*
X142106800Y-86736400D01*
G37*
D11*
X145154900Y-102951000D02*
G75*
G03*
X145154900Y-102951000I-150000J0D01*
G01*
D12*
X140889300Y-83067600D02*
G75*
G03*
X140889300Y-83067600I-250000J0D01*
G01*
D10*
G36*
X139649600Y-115233500D02*
G01*
X139009600Y-115233500D01*
X139009600Y-112893500D01*
X139649600Y-112893500D01*
X139649600Y-115233500D01*
G37*
D11*
X163054000Y-108666000D02*
G75*
G03*
X163054000Y-108666000I-150000J0D01*
G01*
D10*
G36*
X155425200Y-95705400D02*
G01*
X154825200Y-95705400D01*
X154825200Y-93845400D01*
X155425200Y-93845400D01*
X155425200Y-95705400D01*
G37*
D12*
X153470200Y-93386400D02*
G75*
G03*
X153470200Y-93386400I-250000J0D01*
G01*
D11*
X122850500Y-113468200D02*
G75*
G03*
X122850500Y-113468200I-150000J0D01*
G01*
D10*
G36*
X128394900Y-112438800D02*
G01*
X126054900Y-112438800D01*
X126054900Y-111798800D01*
X128394900Y-111798800D01*
X128394900Y-112438800D01*
G37*
D12*
X147953700Y-90489200D02*
G75*
G03*
X147953700Y-90489200I-250000J0D01*
G01*
D10*
G36*
X156159600Y-115193800D02*
G01*
X155519600Y-115193800D01*
X155519600Y-112853800D01*
X156159600Y-112853800D01*
X156159600Y-115193800D01*
G37*
G36*
X159969600Y-115193800D02*
G01*
X159329600Y-115193800D01*
X159329600Y-112853800D01*
X159969600Y-112853800D01*
X159969600Y-115193800D01*
G37*
G36*
X169114300Y-112399200D02*
G01*
X166774300Y-112399200D01*
X166774300Y-111759200D01*
X169114300Y-111759200D01*
X169114300Y-112399200D01*
G37*
D11*
X151346200Y-116444800D02*
G75*
G03*
X151346200Y-116444800I-150000J0D01*
G01*
D12*
X152597100Y-79852900D02*
G75*
G03*
X152597100Y-79852900I-250000J0D01*
G01*
D13*
X176177700Y-94973800D02*
G75*
G03*
X176177700Y-94973800I-1050000J0D01*
G01*
D12*
X158193000Y-79773500D02*
G75*
G03*
X158193000Y-79773500I-250000J0D01*
G01*
D11*
X180040200Y-88107900D02*
G75*
G03*
X180040200Y-88107900I-150000J0D01*
G01*
X171269300Y-124025100D02*
G75*
G03*
X171269300Y-124025100I-150000J0D01*
G01*
D10*
G36*
X156695200Y-95705400D02*
G01*
X156095200Y-95705400D01*
X156095200Y-93845400D01*
X156695200Y-93845400D01*
X156695200Y-95705400D01*
G37*
D12*
X143865900Y-108269200D02*
G75*
G03*
X143865900Y-108269200I-250000J0D01*
G01*
D11*
X137019000Y-123588500D02*
G75*
G03*
X137019000Y-123588500I-150000J0D01*
G01*
X151465200Y-98466400D02*
G75*
G03*
X151465200Y-98466400I-150000J0D01*
G01*
X157815200Y-86798200D02*
G75*
G03*
X157815200Y-86798200I-150000J0D01*
G01*
X155632400Y-100807900D02*
G75*
G03*
X155632400Y-100807900I-150000J0D01*
G01*
D10*
G36*
X160544900Y-86061400D02*
G01*
X159944900Y-86061400D01*
X159944900Y-84201400D01*
X160544900Y-84201400D01*
X160544900Y-86061400D01*
G37*
G36*
X130637100Y-93086400D02*
G01*
X128337100Y-93086400D01*
X128337100Y-92416400D01*
X130637100Y-92416400D01*
X130637100Y-93086400D01*
G37*
D12*
X144143700Y-105729200D02*
G75*
G03*
X144143700Y-105729200I-250000J0D01*
G01*
X132118300Y-122755100D02*
G75*
G03*
X132118300Y-122755100I-250000J0D01*
G01*
D11*
X165832100Y-122834500D02*
G75*
G03*
X165832100Y-122834500I-150000J0D01*
G01*
D12*
X148469600Y-111960100D02*
G75*
G03*
X148469600Y-111960100I-250000J0D01*
G01*
D10*
G36*
X155104600Y-107358800D02*
G01*
X152764600Y-107358800D01*
X152764600Y-106718800D01*
X155104600Y-106718800D01*
X155104600Y-107358800D01*
G37*
D11*
X173134600Y-118111700D02*
G75*
G03*
X173134600Y-118111700I-150000J0D01*
G01*
D10*
G36*
X134529900Y-103763800D02*
G01*
X133889900Y-103763800D01*
X133889900Y-101423800D01*
X134529900Y-101423800D01*
X134529900Y-103763800D01*
G37*
D11*
X168530900Y-119977000D02*
G75*
G03*
X168530900Y-119977000I-150000J0D01*
G01*
X131462700Y-87671400D02*
G75*
G03*
X131462700Y-87671400I-150000J0D01*
G01*
X147853700Y-90489200D02*
G75*
G03*
X147853700Y-90489200I-150000J0D01*
G01*
D10*
G36*
X169114300Y-106049200D02*
G01*
X166774300Y-106049200D01*
X166774300Y-105409200D01*
X169114300Y-105409200D01*
X169114300Y-106049200D01*
G37*
D12*
X170297700Y-121683500D02*
G75*
G03*
X170297700Y-121683500I-250000J0D01*
G01*
X126522400Y-119262600D02*
G75*
G03*
X126522400Y-119262600I-250000J0D01*
G01*
X144262700Y-113984200D02*
G75*
G03*
X144262700Y-113984200I-250000J0D01*
G01*
D10*
G36*
X158699600Y-103724200D02*
G01*
X158059600Y-103724200D01*
X158059600Y-101384200D01*
X158699600Y-101384200D01*
X158699600Y-103724200D01*
G37*
D12*
X146366200Y-88584200D02*
G75*
G03*
X146366200Y-88584200I-250000J0D01*
G01*
X159701200Y-116167000D02*
G75*
G03*
X159701200Y-116167000I-250000J0D01*
G01*
X158550200Y-105252900D02*
G75*
G03*
X158550200Y-105252900I-250000J0D01*
G01*
D11*
X161942700Y-111126700D02*
G75*
G03*
X161942700Y-111126700I-150000J0D01*
G01*
X141225900Y-85210700D02*
G75*
G03*
X141225900Y-85210700I-150000J0D01*
G01*
X126422400Y-119262600D02*
G75*
G03*
X126422400Y-119262600I-150000J0D01*
G01*
D12*
X168630900Y-119977000D02*
G75*
G03*
X168630900Y-119977000I-250000J0D01*
G01*
D11*
X158728000Y-111325100D02*
G75*
G03*
X158728000Y-111325100I-150000J0D01*
G01*
X157100900Y-112079200D02*
G75*
G03*
X157100900Y-112079200I-150000J0D01*
G01*
D12*
X179664000Y-104697300D02*
G75*
G03*
X179664000Y-104697300I-250000J0D01*
G01*
X151049300Y-112357000D02*
G75*
G03*
X151049300Y-112357000I-250000J0D01*
G01*
D11*
X143765900Y-108269200D02*
G75*
G03*
X143765900Y-108269200I-150000J0D01*
G01*
D12*
X144421500Y-86877600D02*
G75*
G03*
X144421500Y-86877600I-250000J0D01*
G01*
D11*
X163649300Y-82908800D02*
G75*
G03*
X163649300Y-82908800I-150000J0D01*
G01*
D12*
X144024600Y-106999200D02*
G75*
G03*
X144024600Y-106999200I-250000J0D01*
G01*
X163749300Y-82908800D02*
G75*
G03*
X163749300Y-82908800I-250000J0D01*
G01*
D11*
X143091200Y-114658800D02*
G75*
G03*
X143091200Y-114658800I-150000J0D01*
G01*
D10*
G36*
X166894900Y-95705400D02*
G01*
X166294900Y-95705400D01*
X166294900Y-93845400D01*
X166894900Y-93845400D01*
X166894900Y-95705400D01*
G37*
D11*
X180437100Y-109936000D02*
G75*
G03*
X180437100Y-109936000I-150000J0D01*
G01*
X157974000Y-108745400D02*
G75*
G03*
X157974000Y-108745400I-150000J0D01*
G01*
D12*
X160891800Y-97315400D02*
G75*
G03*
X160891800Y-97315400I-250000J0D01*
G01*
X137079300Y-87353800D02*
G75*
G03*
X137079300Y-87353800I-250000J0D01*
G01*
D10*
G36*
X163045200Y-95705400D02*
G01*
X162445200Y-95705400D01*
X162445200Y-93845400D01*
X163045200Y-93845400D01*
X163045200Y-95705400D01*
G37*
G36*
X128394900Y-108668500D02*
G01*
X126054900Y-108668500D01*
X126054900Y-108028500D01*
X128394900Y-108028500D01*
X128394900Y-108668500D01*
G37*
D12*
X135650500Y-118389500D02*
G75*
G03*
X135650500Y-118389500I-250000J0D01*
G01*
D11*
X125152400Y-92156000D02*
G75*
G03*
X125152400Y-92156000I-150000J0D01*
G01*
D12*
X143230900Y-88306400D02*
G75*
G03*
X143230900Y-88306400I-250000J0D01*
G01*
D11*
X173531500Y-105014800D02*
G75*
G03*
X173531500Y-105014800I-150000J0D01*
G01*
D10*
G36*
X130637100Y-90586000D02*
G01*
X128337100Y-90586000D01*
X128337100Y-89916000D01*
X130637100Y-89916000D01*
X130637100Y-90586000D01*
G37*
D11*
X143924600Y-106999200D02*
G75*
G03*
X143924600Y-106999200I-150000J0D01*
G01*
D12*
X157200900Y-112079200D02*
G75*
G03*
X157200900Y-112079200I-250000J0D01*
G01*
X158828000Y-111325100D02*
G75*
G03*
X158828000Y-111325100I-250000J0D01*
G01*
D11*
X143607100Y-122675700D02*
G75*
G03*
X143607100Y-122675700I-150000J0D01*
G01*
D10*
G36*
X133259900Y-103763800D02*
G01*
X132619900Y-103763800D01*
X132619900Y-101423800D01*
X133259900Y-101423800D01*
X133259900Y-103763800D01*
G37*
D12*
X156645200Y-110015400D02*
G75*
G03*
X156645200Y-110015400I-250000J0D01*
G01*
X144342100Y-79932300D02*
G75*
G03*
X144342100Y-79932300I-250000J0D01*
G01*
X154105200Y-124223500D02*
G75*
G03*
X154105200Y-124223500I-250000J0D01*
G01*
X165813000Y-87036400D02*
G75*
G03*
X165813000Y-87036400I-250000J0D01*
G01*
D10*
G36*
X162509600Y-115193800D02*
G01*
X161869600Y-115193800D01*
X161869600Y-112853800D01*
X162509600Y-112853800D01*
X162509600Y-115193800D01*
G37*
D12*
X164939900Y-118072000D02*
G75*
G03*
X164939900Y-118072000I-250000J0D01*
G01*
D11*
X159759900Y-106522900D02*
G75*
G03*
X159759900Y-106522900I-150000J0D01*
G01*
D12*
X146326500Y-97196400D02*
G75*
G03*
X146326500Y-97196400I-250000J0D01*
G01*
X122950500Y-113468200D02*
G75*
G03*
X122950500Y-113468200I-250000J0D01*
G01*
X144342100Y-101919200D02*
G75*
G03*
X144342100Y-101919200I-250000J0D01*
G01*
D11*
X140392400Y-97434500D02*
G75*
G03*
X140392400Y-97434500I-150000J0D01*
G01*
D12*
X142238700Y-122675700D02*
G75*
G03*
X142238700Y-122675700I-250000J0D01*
G01*
D11*
X136899900Y-105530700D02*
G75*
G03*
X136899900Y-105530700I-150000J0D01*
G01*
X125152400Y-105729200D02*
G75*
G03*
X125152400Y-105729200I-150000J0D01*
G01*
D10*
G36*
X163779600Y-115193800D02*
G01*
X163139600Y-115193800D01*
X163139600Y-112853800D01*
X163779600Y-112853800D01*
X163779600Y-115193800D01*
G37*
D11*
X157339000Y-104379800D02*
G75*
G03*
X157339000Y-104379800I-150000J0D01*
G01*
X155910200Y-91917900D02*
G75*
G03*
X155910200Y-91917900I-150000J0D01*
G01*
X144321500Y-86877600D02*
G75*
G03*
X144321500Y-86877600I-150000J0D01*
G01*
X143130900Y-88306400D02*
G75*
G03*
X143130900Y-88306400I-150000J0D01*
G01*
D12*
X181648300Y-119302300D02*
G75*
G03*
X181648300Y-119302300I-250000J0D01*
G01*
X178830500Y-103546400D02*
G75*
G03*
X178830500Y-103546400I-250000J0D01*
G01*
D10*
G36*
X169114300Y-104779200D02*
G01*
X166774300Y-104779200D01*
X166774300Y-104139200D01*
X169114300Y-104139200D01*
X169114300Y-104779200D01*
G37*
D11*
X146266200Y-88584200D02*
G75*
G03*
X146266200Y-88584200I-150000J0D01*
G01*
D12*
X157280200Y-119857900D02*
G75*
G03*
X157280200Y-119857900I-250000J0D01*
G01*
X136999900Y-112079200D02*
G75*
G03*
X136999900Y-112079200I-250000J0D01*
G01*
D10*
G36*
X130719900Y-103763800D02*
G01*
X130079900Y-103763800D01*
X130079900Y-101423800D01*
X130719900Y-101423800D01*
X130719900Y-103763800D01*
G37*
D12*
X149779300Y-91838500D02*
G75*
G03*
X149779300Y-91838500I-250000J0D01*
G01*
D11*
X158450200Y-105252900D02*
G75*
G03*
X158450200Y-105252900I-150000J0D01*
G01*
D12*
X162201500Y-97315400D02*
G75*
G03*
X162201500Y-97315400I-250000J0D01*
G01*
X165932100Y-120492900D02*
G75*
G03*
X165932100Y-120492900I-250000J0D01*
G01*
D10*
G36*
X166359300Y-103724200D02*
G01*
X165719300Y-103724200D01*
X165719300Y-101384200D01*
X166359300Y-101384200D01*
X166359300Y-103724200D01*
G37*
G36*
X155104600Y-109898800D02*
G01*
X152764600Y-109898800D01*
X152764600Y-109258800D01*
X155104600Y-109258800D01*
X155104600Y-109898800D01*
G37*
D11*
X142138700Y-122675700D02*
G75*
G03*
X142138700Y-122675700I-150000J0D01*
G01*
X173134600Y-120532600D02*
G75*
G03*
X173134600Y-120532600I-150000J0D01*
G01*
X149679300Y-91838500D02*
G75*
G03*
X149679300Y-91838500I-150000J0D01*
G01*
X173174300Y-119342000D02*
G75*
G03*
X173174300Y-119342000I-150000J0D01*
G01*
D12*
X134420200Y-106245100D02*
G75*
G03*
X134420200Y-106245100I-250000J0D01*
G01*
X178076500Y-110809200D02*
G75*
G03*
X178076500Y-110809200I-250000J0D01*
G01*
X130649900Y-109975700D02*
G75*
G03*
X130649900Y-109975700I-250000J0D01*
G01*
X145294600Y-87790400D02*
G75*
G03*
X145294600Y-87790400I-250000J0D01*
G01*
D11*
X153211500Y-123231400D02*
G75*
G03*
X153211500Y-123231400I-150000J0D01*
G01*
D12*
X152398700Y-95489800D02*
G75*
G03*
X152398700Y-95489800I-250000J0D01*
G01*
D11*
X145194600Y-87790400D02*
G75*
G03*
X145194600Y-87790400I-150000J0D01*
G01*
D10*
G36*
X155104600Y-111129200D02*
G01*
X152764600Y-111129200D01*
X152764600Y-110489200D01*
X155104600Y-110489200D01*
X155104600Y-111129200D01*
G37*
G36*
X136807100Y-97076400D02*
G01*
X136137100Y-97076400D01*
X136137100Y-94776400D01*
X136807100Y-94776400D01*
X136807100Y-97076400D01*
G37*
D11*
X153370200Y-93386400D02*
G75*
G03*
X153370200Y-93386400I-150000J0D01*
G01*
D12*
X159859900Y-106522900D02*
G75*
G03*
X159859900Y-106522900I-250000J0D01*
G01*
D10*
G36*
X169114300Y-111129200D02*
G01*
X166774300Y-111129200D01*
X166774300Y-110489200D01*
X169114300Y-110489200D01*
X169114300Y-111129200D01*
G37*
D12*
X151446200Y-116444800D02*
G75*
G03*
X151446200Y-116444800I-250000J0D01*
G01*
D11*
X132177100Y-89576400D02*
G75*
G03*
X132177100Y-89576400I-150000J0D01*
G01*
D10*
G36*
X138300200Y-103763800D02*
G01*
X137660200Y-103763800D01*
X137660200Y-101423800D01*
X138300200Y-101423800D01*
X138300200Y-103763800D01*
G37*
G36*
X123590200Y-112294200D02*
G01*
X121890200Y-112294200D01*
X121890200Y-110594200D01*
X123590200Y-110594200D01*
X123590200Y-112294200D01*
G37*
D11*
X155275200Y-83027900D02*
G75*
G03*
X155275200Y-83027900I-150000J0D01*
G01*
D10*
G36*
X134306800Y-97076400D02*
G01*
X133636800Y-97076400D01*
X133636800Y-94776400D01*
X134306800Y-94776400D01*
X134306800Y-97076400D01*
G37*
D12*
X180894300Y-120532600D02*
G75*
G03*
X180894300Y-120532600I-250000J0D01*
G01*
D11*
X140789300Y-83067600D02*
G75*
G03*
X140789300Y-83067600I-150000J0D01*
G01*
D10*
G36*
X150379300Y-109158800D02*
G01*
X148679300Y-109158800D01*
X148679300Y-107458800D01*
X150379300Y-107458800D01*
X150379300Y-109158800D01*
G37*
G36*
X142404600Y-107398500D02*
G01*
X140064600Y-107398500D01*
X140064600Y-106758500D01*
X142404600Y-106758500D01*
X142404600Y-107398500D01*
G37*
D12*
X150771500Y-114777900D02*
G75*
G03*
X150771500Y-114777900I-250000J0D01*
G01*
X173234600Y-118111700D02*
G75*
G03*
X173234600Y-118111700I-250000J0D01*
G01*
X134142400Y-82115100D02*
G75*
G03*
X134142400Y-82115100I-250000J0D01*
G01*
X161169600Y-108666000D02*
G75*
G03*
X161169600Y-108666000I-250000J0D01*
G01*
D11*
X151306500Y-119857900D02*
G75*
G03*
X151306500Y-119857900I-150000J0D01*
G01*
D10*
G36*
X142105200Y-79118800D02*
G01*
X140205200Y-79118800D01*
X140205200Y-73998800D01*
X142105200Y-73998800D01*
X142105200Y-79118800D01*
G37*
D12*
X157915200Y-86798200D02*
G75*
G03*
X157915200Y-86798200I-250000J0D01*
G01*
X136960200Y-118587900D02*
G75*
G03*
X136960200Y-118587900I-250000J0D01*
G01*
D11*
X161069600Y-108666000D02*
G75*
G03*
X161069600Y-108666000I-150000J0D01*
G01*
D10*
G36*
X130637100Y-89316000D02*
G01*
X128337100Y-89316000D01*
X128337100Y-88646000D01*
X130637100Y-88646000D01*
X130637100Y-89316000D01*
G37*
G36*
X156075200Y-79118800D02*
G01*
X154175200Y-79118800D01*
X154175200Y-73998800D01*
X156075200Y-73998800D01*
X156075200Y-79118800D01*
G37*
D11*
X149123700Y-115135100D02*
G75*
G03*
X149123700Y-115135100I-150000J0D01*
G01*
X144043700Y-105729200D02*
G75*
G03*
X144043700Y-105729200I-150000J0D01*
G01*
D12*
X141325900Y-85210700D02*
G75*
G03*
X141325900Y-85210700I-250000J0D01*
G01*
D10*
G36*
X159274900Y-86061400D02*
G01*
X158674900Y-86061400D01*
X158674900Y-84201400D01*
X159274900Y-84201400D01*
X159274900Y-86061400D01*
G37*
D11*
X132137400Y-93505400D02*
G75*
G03*
X132137400Y-93505400I-150000J0D01*
G01*
X151385900Y-108269200D02*
G75*
G03*
X151385900Y-108269200I-150000J0D01*
G01*
D10*
G36*
X131727100Y-97076400D02*
G01*
X131057100Y-97076400D01*
X131057100Y-94776400D01*
X131727100Y-94776400D01*
X131727100Y-97076400D01*
G37*
D12*
X176489000Y-112079200D02*
G75*
G03*
X176489000Y-112079200I-250000J0D01*
G01*
X159740900Y-112079200D02*
G75*
G03*
X159740900Y-112079200I-250000J0D01*
G01*
X162399900Y-117317900D02*
G75*
G03*
X162399900Y-117317900I-250000J0D01*
G01*
X149223700Y-115135100D02*
G75*
G03*
X149223700Y-115135100I-250000J0D01*
G01*
X164146200Y-117159200D02*
G75*
G03*
X164146200Y-117159200I-250000J0D01*
G01*
D11*
X144242100Y-79932300D02*
G75*
G03*
X144242100Y-79932300I-150000J0D01*
G01*
D10*
G36*
X162509600Y-103724200D02*
G01*
X161869600Y-103724200D01*
X161869600Y-101384200D01*
X162509600Y-101384200D01*
X162509600Y-103724200D01*
G37*
D12*
X129856200Y-105332300D02*
G75*
G03*
X129856200Y-105332300I-250000J0D01*
G01*
D11*
X154283000Y-114738200D02*
G75*
G03*
X154283000Y-114738200I-150000J0D01*
G01*
X136860200Y-118587900D02*
G75*
G03*
X136860200Y-118587900I-150000J0D01*
G01*
D10*
G36*
X165009900Y-115193800D02*
G01*
X164369900Y-115193800D01*
X164369900Y-112853800D01*
X165009900Y-112853800D01*
X165009900Y-115193800D01*
G37*
D12*
X121998000Y-122755100D02*
G75*
G03*
X121998000Y-122755100I-250000J0D01*
G01*
X163669900Y-105213200D02*
G75*
G03*
X163669900Y-105213200I-250000J0D01*
G01*
D11*
X138130200Y-104498800D02*
G75*
G03*
X138130200Y-104498800I-150000J0D01*
G01*
D12*
X170337400Y-109539200D02*
G75*
G03*
X170337400Y-109539200I-250000J0D01*
G01*
X137119000Y-123588500D02*
G75*
G03*
X137119000Y-123588500I-250000J0D01*
G01*
D11*
X160394900Y-88425400D02*
G75*
G03*
X160394900Y-88425400I-150000J0D01*
G01*
D12*
X135531500Y-86560100D02*
G75*
G03*
X135531500Y-86560100I-250000J0D01*
G01*
D11*
X156545200Y-97156700D02*
G75*
G03*
X156545200Y-97156700I-150000J0D01*
G01*
D10*
G36*
X130637100Y-86736400D02*
G01*
X128337100Y-86736400D01*
X128337100Y-86066400D01*
X130637100Y-86066400D01*
X130637100Y-86736400D01*
G37*
D12*
X160891800Y-79654500D02*
G75*
G03*
X160891800Y-79654500I-250000J0D01*
G01*
D10*
G36*
X155464900Y-86061400D02*
G01*
X154864900Y-86061400D01*
X154864900Y-84201400D01*
X155464900Y-84201400D01*
X155464900Y-86061400D01*
G37*
D11*
X134042400Y-82115100D02*
G75*
G03*
X134042400Y-82115100I-150000J0D01*
G01*
X159640900Y-112079200D02*
G75*
G03*
X159640900Y-112079200I-150000J0D01*
G01*
D10*
G36*
X164369900Y-79118800D02*
G01*
X162469900Y-79118800D01*
X162469900Y-73998800D01*
X164369900Y-73998800D01*
X164369900Y-79118800D01*
G37*
D11*
X164244600Y-92632300D02*
G75*
G03*
X164244600Y-92632300I-150000J0D01*
G01*
D10*
G36*
X139327100Y-79118800D02*
G01*
X137427100Y-79118800D01*
X137427100Y-73998800D01*
X139327100Y-73998800D01*
X139327100Y-79118800D01*
G37*
G36*
X165585200Y-86061400D02*
G01*
X164985200Y-86061400D01*
X164985200Y-84201400D01*
X165585200Y-84201400D01*
X165585200Y-86061400D01*
G37*
D11*
X146226500Y-97196400D02*
G75*
G03*
X146226500Y-97196400I-150000J0D01*
G01*
D12*
X136960200Y-107435700D02*
G75*
G03*
X136960200Y-107435700I-250000J0D01*
G01*
X143230900Y-119897600D02*
G75*
G03*
X143230900Y-119897600I-250000J0D01*
G01*
D11*
X181548300Y-119302300D02*
G75*
G03*
X181548300Y-119302300I-150000J0D01*
G01*
X126898700Y-122794800D02*
G75*
G03*
X126898700Y-122794800I-150000J0D01*
G01*
D10*
G36*
X131989900Y-103763800D02*
G01*
X131349900Y-103763800D01*
X131349900Y-101423800D01*
X131989900Y-101423800D01*
X131989900Y-103763800D01*
G37*
D11*
X121898000Y-122755100D02*
G75*
G03*
X121898000Y-122755100I-150000J0D01*
G01*
D10*
G36*
X155104600Y-106049200D02*
G01*
X152764600Y-106049200D01*
X152764600Y-105409200D01*
X155104600Y-105409200D01*
X155104600Y-106049200D01*
G37*
D12*
X177282700Y-123787000D02*
G75*
G03*
X177282700Y-123787000I-250000J0D01*
G01*
X175734900Y-113984200D02*
G75*
G03*
X175734900Y-113984200I-250000J0D01*
G01*
D10*
G36*
X138116800Y-97076400D02*
G01*
X137446800Y-97076400D01*
X137446800Y-94776400D01*
X138116800Y-94776400D01*
X138116800Y-97076400D01*
G37*
D11*
X149401500Y-90489200D02*
G75*
G03*
X149401500Y-90489200I-150000J0D01*
G01*
D12*
X161050500Y-124342600D02*
G75*
G03*
X161050500Y-124342600I-250000J0D01*
G01*
D11*
X156545200Y-86679200D02*
G75*
G03*
X156545200Y-86679200I-150000J0D01*
G01*
D12*
X151565200Y-98466400D02*
G75*
G03*
X151565200Y-98466400I-250000J0D01*
G01*
X167678300Y-97315400D02*
G75*
G03*
X167678300Y-97315400I-250000J0D01*
G01*
D11*
X161069600Y-116008200D02*
G75*
G03*
X161069600Y-116008200I-150000J0D01*
G01*
X143130900Y-119897600D02*
G75*
G03*
X143130900Y-119897600I-150000J0D01*
G01*
D12*
X125252400Y-92156000D02*
G75*
G03*
X125252400Y-92156000I-250000J0D01*
G01*
X164344600Y-92632300D02*
G75*
G03*
X164344600Y-92632300I-250000J0D01*
G01*
X181291200Y-123985400D02*
G75*
G03*
X181291200Y-123985400I-250000J0D01*
G01*
X134420200Y-104498800D02*
G75*
G03*
X134420200Y-104498800I-250000J0D01*
G01*
D11*
X179564000Y-104697300D02*
G75*
G03*
X179564000Y-104697300I-150000J0D01*
G01*
D10*
G36*
X158813700Y-79118800D02*
G01*
X156913700Y-79118800D01*
X156913700Y-73998800D01*
X158813700Y-73998800D01*
X158813700Y-79118800D01*
G37*
D12*
X149501500Y-90489200D02*
G75*
G03*
X149501500Y-90489200I-250000J0D01*
G01*
D11*
X145075500Y-121604200D02*
G75*
G03*
X145075500Y-121604200I-150000J0D01*
G01*
D10*
G36*
X142106800Y-91856000D02*
G01*
X139806800Y-91856000D01*
X139806800Y-91186000D01*
X142106800Y-91186000D01*
X142106800Y-91856000D01*
G37*
D11*
X136225200Y-98744200D02*
G75*
G03*
X136225200Y-98744200I-150000J0D01*
G01*
X180794300Y-120532600D02*
G75*
G03*
X180794300Y-120532600I-150000J0D01*
G01*
D10*
G36*
X132997100Y-85646400D02*
G01*
X132327100Y-85646400D01*
X132327100Y-83346400D01*
X132997100Y-83346400D01*
X132997100Y-85646400D01*
G37*
G36*
X155104600Y-104779200D02*
G01*
X152764600Y-104779200D01*
X152764600Y-104139200D01*
X155104600Y-104139200D01*
X155104600Y-104779200D01*
G37*
D11*
X172063000Y-123072600D02*
G75*
G03*
X172063000Y-123072600I-150000J0D01*
G01*
D10*
G36*
X130719900Y-115233500D02*
G01*
X130079900Y-115233500D01*
X130079900Y-112893500D01*
X130719900Y-112893500D01*
X130719900Y-115233500D01*
G37*
D11*
X136026800Y-124223500D02*
G75*
G03*
X136026800Y-124223500I-150000J0D01*
G01*
D12*
X159344000Y-124223500D02*
G75*
G03*
X159344000Y-124223500I-250000J0D01*
G01*
X134420200Y-112039500D02*
G75*
G03*
X134420200Y-112039500I-250000J0D01*
G01*
X155375200Y-83027900D02*
G75*
G03*
X155375200Y-83027900I-250000J0D01*
G01*
X158550200Y-122675700D02*
G75*
G03*
X158550200Y-122675700I-250000J0D01*
G01*
D11*
X130549900Y-84417000D02*
G75*
G03*
X130549900Y-84417000I-150000J0D01*
G01*
X157219900Y-91124200D02*
G75*
G03*
X157219900Y-91124200I-150000J0D01*
G01*
X144162700Y-113984200D02*
G75*
G03*
X144162700Y-113984200I-150000J0D01*
G01*
D12*
X178870200Y-122040700D02*
G75*
G03*
X178870200Y-122040700I-250000J0D01*
G01*
D10*
G36*
X160505200Y-95705400D02*
G01*
X159905200Y-95705400D01*
X159905200Y-93845400D01*
X160505200Y-93845400D01*
X160505200Y-95705400D01*
G37*
D11*
X176389000Y-112079200D02*
G75*
G03*
X176389000Y-112079200I-150000J0D01*
G01*
D12*
X136999900Y-105530700D02*
G75*
G03*
X136999900Y-105530700I-250000J0D01*
G01*
D10*
G36*
X156159600Y-103724200D02*
G01*
X155519600Y-103724200D01*
X155519600Y-101384200D01*
X156159600Y-101384200D01*
X156159600Y-103724200D01*
G37*
D12*
X175457100Y-101641400D02*
G75*
G03*
X175457100Y-101641400I-250000J0D01*
G01*
D10*
G36*
X142404600Y-104818800D02*
G01*
X140064600Y-104818800D01*
X140064600Y-104178800D01*
X142404600Y-104178800D01*
X142404600Y-104818800D01*
G37*
D12*
X134420200Y-117516400D02*
G75*
G03*
X134420200Y-117516400I-250000J0D01*
G01*
D11*
X171745500Y-98585400D02*
G75*
G03*
X171745500Y-98585400I-150000J0D01*
G01*
X160950500Y-124342600D02*
G75*
G03*
X160950500Y-124342600I-150000J0D01*
G01*
X142337100Y-95847000D02*
G75*
G03*
X142337100Y-95847000I-150000J0D01*
G01*
D10*
G36*
X134306800Y-85646400D02*
G01*
X133636800Y-85646400D01*
X133636800Y-83346400D01*
X134306800Y-83346400D01*
X134306800Y-85646400D01*
G37*
D11*
X127652700Y-91124200D02*
G75*
G03*
X127652700Y-91124200I-150000J0D01*
G01*
X144083300Y-120612000D02*
G75*
G03*
X144083300Y-120612000I-150000J0D01*
G01*
D12*
X126998700Y-122794800D02*
G75*
G03*
X126998700Y-122794800I-250000J0D01*
G01*
D11*
X130549900Y-109975700D02*
G75*
G03*
X130549900Y-109975700I-150000J0D01*
G01*
D10*
G36*
X156734900Y-86061400D02*
G01*
X156134900Y-86061400D01*
X156134900Y-84201400D01*
X156734900Y-84201400D01*
X156734900Y-86061400D01*
G37*
D12*
X136325200Y-98744200D02*
G75*
G03*
X136325200Y-98744200I-250000J0D01*
G01*
D11*
X155989600Y-122953500D02*
G75*
G03*
X155989600Y-122953500I-150000J0D01*
G01*
D10*
G36*
X142404600Y-109938500D02*
G01*
X140064600Y-109938500D01*
X140064600Y-109298500D01*
X142404600Y-109298500D01*
X142404600Y-109938500D01*
G37*
D12*
X148469600Y-119897600D02*
G75*
G03*
X148469600Y-119897600I-250000J0D01*
G01*
X133507400Y-121524800D02*
G75*
G03*
X133507400Y-121524800I-250000J0D01*
G01*
D10*
G36*
X161814900Y-86061400D02*
G01*
X161214900Y-86061400D01*
X161214900Y-84201400D01*
X161814900Y-84201400D01*
X161814900Y-86061400D01*
G37*
D11*
X148369600Y-111960100D02*
G75*
G03*
X148369600Y-111960100I-150000J0D01*
G01*
D10*
G36*
X155104600Y-108628800D02*
G01*
X152764600Y-108628800D01*
X152764600Y-107988800D01*
X155104600Y-107988800D01*
X155104600Y-108628800D01*
G37*
D12*
X136126800Y-124223500D02*
G75*
G03*
X136126800Y-124223500I-250000J0D01*
G01*
X137952400Y-92791000D02*
G75*
G03*
X137952400Y-92791000I-250000J0D01*
G01*
X158074000Y-108745400D02*
G75*
G03*
X158074000Y-108745400I-250000J0D01*
G01*
D11*
X152298700Y-95489800D02*
G75*
G03*
X152298700Y-95489800I-150000J0D01*
G01*
D12*
X127752700Y-91124200D02*
G75*
G03*
X127752700Y-91124200I-250000J0D01*
G01*
D10*
G36*
X157429600Y-103724200D02*
G01*
X156789600Y-103724200D01*
X156789600Y-101384200D01*
X157429600Y-101384200D01*
X157429600Y-103724200D01*
G37*
D11*
X136899900Y-112079200D02*
G75*
G03*
X136899900Y-112079200I-150000J0D01*
G01*
D12*
X153470200Y-115690700D02*
G75*
G03*
X153470200Y-115690700I-250000J0D01*
G01*
X155375200Y-79773500D02*
G75*
G03*
X155375200Y-79773500I-250000J0D01*
G01*
D10*
G36*
X164354900Y-86061400D02*
G01*
X163754900Y-86061400D01*
X163754900Y-84201400D01*
X164354900Y-84201400D01*
X164354900Y-86061400D01*
G37*
D12*
X165932100Y-122834500D02*
G75*
G03*
X165932100Y-122834500I-250000J0D01*
G01*
D11*
X162299900Y-117317900D02*
G75*
G03*
X162299900Y-117317900I-150000J0D01*
G01*
X178770200Y-122040700D02*
G75*
G03*
X178770200Y-122040700I-150000J0D01*
G01*
D10*
G36*
X169114300Y-108628800D02*
G01*
X166774300Y-108628800D01*
X166774300Y-107988800D01*
X169114300Y-107988800D01*
X169114300Y-108628800D01*
G37*
D12*
X156724600Y-105887900D02*
G75*
G03*
X156724600Y-105887900I-250000J0D01*
G01*
X130649900Y-84417000D02*
G75*
G03*
X130649900Y-84417000I-250000J0D01*
G01*
X181172100Y-90290700D02*
G75*
G03*
X181172100Y-90290700I-250000J0D01*
G01*
D10*
G36*
X142106800Y-93086400D02*
G01*
X139806800Y-93086400D01*
X139806800Y-92416400D01*
X142106800Y-92416400D01*
X142106800Y-93086400D01*
G37*
G36*
X142106800Y-94356400D02*
G01*
X139806800Y-94356400D01*
X139806800Y-93686400D01*
X142106800Y-93686400D01*
X142106800Y-94356400D01*
G37*
D11*
X137852400Y-92791000D02*
G75*
G03*
X137852400Y-92791000I-150000J0D01*
G01*
D12*
X151485900Y-108269200D02*
G75*
G03*
X151485900Y-108269200I-250000J0D01*
G01*
D11*
X147853700Y-113984200D02*
G75*
G03*
X147853700Y-113984200I-150000J0D01*
G01*
D13*
X118789600Y-105252900D02*
G75*
G03*
X118789600Y-105252900I-1050000J0D01*
G01*
D10*
G36*
X133770900Y-79118800D02*
G01*
X131870900Y-79118800D01*
X131870900Y-73998800D01*
X133770900Y-73998800D01*
X133770900Y-79118800D01*
G37*
D11*
X160791800Y-79654500D02*
G75*
G03*
X160791800Y-79654500I-150000J0D01*
G01*
D12*
X153311500Y-123231400D02*
G75*
G03*
X153311500Y-123231400I-250000J0D01*
G01*
X139420900Y-123469500D02*
G75*
G03*
X139420900Y-123469500I-250000J0D01*
G01*
D11*
X146861500Y-112079200D02*
G75*
G03*
X146861500Y-112079200I-150000J0D01*
G01*
X138130200Y-112079200D02*
G75*
G03*
X138130200Y-112079200I-150000J0D01*
G01*
D12*
X156129300Y-124263200D02*
G75*
G03*
X156129300Y-124263200I-250000J0D01*
G01*
X149819000Y-79852900D02*
G75*
G03*
X149819000Y-79852900I-250000J0D01*
G01*
D10*
G36*
X158004900Y-86061400D02*
G01*
X157404900Y-86061400D01*
X157404900Y-84201400D01*
X158004900Y-84201400D01*
X158004900Y-86061400D01*
G37*
D11*
X170237400Y-109539200D02*
G75*
G03*
X170237400Y-109539200I-150000J0D01*
G01*
X162934900Y-92672000D02*
G75*
G03*
X162934900Y-92672000I-150000J0D01*
G01*
D10*
G36*
X142404600Y-112438800D02*
G01*
X140064600Y-112438800D01*
X140064600Y-111798800D01*
X142404600Y-111798800D01*
X142404600Y-112438800D01*
G37*
D12*
X143191200Y-114658800D02*
G75*
G03*
X143191200Y-114658800I-250000J0D01*
G01*
X140492400Y-97434500D02*
G75*
G03*
X140492400Y-97434500I-250000J0D01*
G01*
D11*
X154640200Y-92592600D02*
G75*
G03*
X154640200Y-92592600I-150000J0D01*
G01*
X165713000Y-87036400D02*
G75*
G03*
X165713000Y-87036400I-150000J0D01*
G01*
X152497100Y-79852900D02*
G75*
G03*
X152497100Y-79852900I-150000J0D01*
G01*
X177182700Y-123787000D02*
G75*
G03*
X177182700Y-123787000I-150000J0D01*
G01*
D12*
X141603700Y-80011700D02*
G75*
G03*
X141603700Y-80011700I-250000J0D01*
G01*
D10*
G36*
X136807100Y-85646400D02*
G01*
X136137100Y-85646400D01*
X136137100Y-83346400D01*
X136807100Y-83346400D01*
X136807100Y-85646400D01*
G37*
D12*
X125252400Y-105729200D02*
G75*
G03*
X125252400Y-105729200I-250000J0D01*
G01*
X173274300Y-119342000D02*
G75*
G03*
X173274300Y-119342000I-250000J0D01*
G01*
X173234600Y-120532600D02*
G75*
G03*
X173234600Y-120532600I-250000J0D01*
G01*
X126482700Y-97196400D02*
G75*
G03*
X126482700Y-97196400I-250000J0D01*
G01*
X147080500Y-79852900D02*
G75*
G03*
X147080500Y-79852900I-250000J0D01*
G01*
X163154000Y-108666000D02*
G75*
G03*
X163154000Y-108666000I-250000J0D01*
G01*
X156089600Y-122953500D02*
G75*
G03*
X156089600Y-122953500I-250000J0D01*
G01*
D10*
G36*
X131032400Y-79118800D02*
G01*
X129132400Y-79118800D01*
X129132400Y-73998800D01*
X131032400Y-73998800D01*
X131032400Y-79118800D01*
G37*
G36*
X139649600Y-103763800D02*
G01*
X139009600Y-103763800D01*
X139009600Y-101423800D01*
X139649600Y-101423800D01*
X139649600Y-103763800D01*
G37*
D11*
X146980500Y-89695400D02*
G75*
G03*
X146980500Y-89695400I-150000J0D01*
G01*
D10*
G36*
X150439600Y-79118800D02*
G01*
X148539600Y-79118800D01*
X148539600Y-73998800D01*
X150439600Y-73998800D01*
X150439600Y-79118800D01*
G37*
D12*
X151406500Y-119857900D02*
G75*
G03*
X151406500Y-119857900I-250000J0D01*
G01*
D11*
X158450200Y-122675700D02*
G75*
G03*
X158450200Y-122675700I-150000J0D01*
G01*
D10*
G36*
X147323300Y-109158800D02*
G01*
X145623300Y-109158800D01*
X145623300Y-107458800D01*
X147323300Y-107458800D01*
X147323300Y-109158800D01*
G37*
G36*
X129449900Y-115233500D02*
G01*
X128809900Y-115233500D01*
X128809900Y-112893500D01*
X129449900Y-112893500D01*
X129449900Y-115233500D01*
G37*
D12*
X145254900Y-102951000D02*
G75*
G03*
X145254900Y-102951000I-250000J0D01*
G01*
D11*
X175634900Y-113984200D02*
G75*
G03*
X175634900Y-113984200I-150000J0D01*
G01*
X135431500Y-86560100D02*
G75*
G03*
X135431500Y-86560100I-150000J0D01*
G01*
X177976500Y-110809200D02*
G75*
G03*
X177976500Y-110809200I-150000J0D01*
G01*
X133407400Y-121524800D02*
G75*
G03*
X133407400Y-121524800I-150000J0D01*
G01*
D12*
X179624300Y-123032900D02*
G75*
G03*
X179624300Y-123032900I-250000J0D01*
G01*
X131562700Y-87671400D02*
G75*
G03*
X131562700Y-87671400I-250000J0D01*
G01*
D10*
G36*
X157429600Y-115193800D02*
G01*
X156789600Y-115193800D01*
X156789600Y-112853800D01*
X157429600Y-112853800D01*
X157429600Y-115193800D01*
G37*
G36*
X158699600Y-115193800D02*
G01*
X158059600Y-115193800D01*
X158059600Y-112853800D01*
X158699600Y-112853800D01*
X158699600Y-115193800D01*
G37*
D11*
X135629900Y-112118800D02*
G75*
G03*
X135629900Y-112118800I-150000J0D01*
G01*
D12*
X147953700Y-113984200D02*
G75*
G03*
X147953700Y-113984200I-250000J0D01*
G01*
X161169600Y-116008200D02*
G75*
G03*
X161169600Y-116008200I-250000J0D01*
G01*
D10*
G36*
X159969600Y-103724200D02*
G01*
X159329600Y-103724200D01*
X159329600Y-101384200D01*
X159969600Y-101384200D01*
X159969600Y-103724200D01*
G37*
D11*
X127692400Y-99498200D02*
G75*
G03*
X127692400Y-99498200I-150000J0D01*
G01*
D12*
X156010200Y-91917900D02*
G75*
G03*
X156010200Y-91917900I-250000J0D01*
G01*
D10*
G36*
X137069900Y-115233500D02*
G01*
X136429900Y-115233500D01*
X136429900Y-112893500D01*
X137069900Y-112893500D01*
X137069900Y-115233500D01*
G37*
D11*
X156029300Y-124263200D02*
G75*
G03*
X156029300Y-124263200I-150000J0D01*
G01*
D12*
X171845500Y-98585400D02*
G75*
G03*
X171845500Y-98585400I-250000J0D01*
G01*
D11*
X136979300Y-87353800D02*
G75*
G03*
X136979300Y-87353800I-150000J0D01*
G01*
D10*
G36*
X163084900Y-86061400D02*
G01*
X162484900Y-86061400D01*
X162484900Y-84201400D01*
X163084900Y-84201400D01*
X163084900Y-86061400D01*
G37*
G36*
X169114300Y-107358800D02*
G01*
X166774300Y-107358800D01*
X166774300Y-106718800D01*
X169114300Y-106718800D01*
X169114300Y-107358800D01*
G37*
D11*
X163966800Y-110094800D02*
G75*
G03*
X163966800Y-110094800I-150000J0D01*
G01*
D10*
G36*
X128394900Y-106088800D02*
G01*
X126054900Y-106088800D01*
X126054900Y-105448800D01*
X128394900Y-105448800D01*
X128394900Y-106088800D01*
G37*
G36*
X147701200Y-79118800D02*
G01*
X145801200Y-79118800D01*
X145801200Y-73998800D01*
X147701200Y-73998800D01*
X147701200Y-79118800D01*
G37*
G36*
X161631500Y-79118800D02*
G01*
X159731500Y-79118800D01*
X159731500Y-73998800D01*
X161631500Y-73998800D01*
X161631500Y-79118800D01*
G37*
D11*
X129597400Y-95132600D02*
G75*
G03*
X129597400Y-95132600I-150000J0D01*
G01*
D12*
X127792400Y-99498200D02*
G75*
G03*
X127792400Y-99498200I-250000J0D01*
G01*
X157439000Y-104379800D02*
G75*
G03*
X157439000Y-104379800I-250000J0D01*
G01*
D10*
G36*
X174231500Y-107372900D02*
G01*
X172531500Y-107372900D01*
X172531500Y-105672900D01*
X174231500Y-105672900D01*
X174231500Y-107372900D01*
G37*
D12*
X162042700Y-111126700D02*
G75*
G03*
X162042700Y-111126700I-250000J0D01*
G01*
D10*
G36*
X174231500Y-110468500D02*
G01*
X172531500Y-110468500D01*
X172531500Y-108768500D01*
X174231500Y-108768500D01*
X174231500Y-110468500D01*
G37*
G36*
X165545500Y-95705400D02*
G01*
X164945500Y-95705400D01*
X164945500Y-93845400D01*
X165545500Y-93845400D01*
X165545500Y-95705400D01*
G37*
D12*
X170932700Y-94735700D02*
G75*
G03*
X170932700Y-94735700I-250000J0D01*
G01*
D10*
G36*
X157965200Y-95705400D02*
G01*
X157365200Y-95705400D01*
X157365200Y-93845400D01*
X157965200Y-93845400D01*
X157965200Y-95705400D01*
G37*
D11*
X159601200Y-116167000D02*
G75*
G03*
X159601200Y-116167000I-150000J0D01*
G01*
X146980500Y-79852900D02*
G75*
G03*
X146980500Y-79852900I-150000J0D01*
G01*
D10*
G36*
X136549000Y-79118800D02*
G01*
X134649000Y-79118800D01*
X134649000Y-73998800D01*
X136549000Y-73998800D01*
X136549000Y-79118800D01*
G37*
D12*
X145175500Y-121604200D02*
G75*
G03*
X145175500Y-121604200I-250000J0D01*
G01*
X132237400Y-93505400D02*
G75*
G03*
X132237400Y-93505400I-250000J0D01*
G01*
D10*
G36*
X144883300Y-79118800D02*
G01*
X142983300Y-79118800D01*
X142983300Y-73998800D01*
X144883300Y-73998800D01*
X144883300Y-79118800D01*
G37*
D12*
X145294600Y-108269200D02*
G75*
G03*
X145294600Y-108269200I-250000J0D01*
G01*
D11*
X148369600Y-119897600D02*
G75*
G03*
X148369600Y-119897600I-150000J0D01*
G01*
D10*
G36*
X142106800Y-88006400D02*
G01*
X139806800Y-88006400D01*
X139806800Y-87336400D01*
X142106800Y-87336400D01*
X142106800Y-88006400D01*
G37*
G36*
X142404600Y-108668500D02*
G01*
X140064600Y-108668500D01*
X140064600Y-108028500D01*
X142404600Y-108028500D01*
X142404600Y-108668500D01*
G37*
G36*
X164315200Y-95705400D02*
G01*
X163715200Y-95705400D01*
X163715200Y-93845400D01*
X164315200Y-93845400D01*
X164315200Y-95705400D01*
G37*
D12*
X172163000Y-123072600D02*
G75*
G03*
X172163000Y-123072600I-250000J0D01*
G01*
D10*
G36*
X128394900Y-109938500D02*
G01*
X126054900Y-109938500D01*
X126054900Y-109298500D01*
X128394900Y-109298500D01*
X128394900Y-109938500D01*
G37*
G36*
X129449900Y-103763800D02*
G01*
X128809900Y-103763800D01*
X128809900Y-101423800D01*
X129449900Y-101423800D01*
X129449900Y-103763800D01*
G37*
D11*
X159244000Y-124223500D02*
G75*
G03*
X159244000Y-124223500I-150000J0D01*
G01*
D10*
G36*
X135799900Y-115233500D02*
G01*
X135159900Y-115233500D01*
X135159900Y-112893500D01*
X135799900Y-112893500D01*
X135799900Y-115233500D01*
G37*
D11*
X156545200Y-110015400D02*
G75*
G03*
X156545200Y-110015400I-150000J0D01*
G01*
D12*
X132277100Y-89576400D02*
G75*
G03*
X132277100Y-89576400I-250000J0D01*
G01*
D11*
X162101500Y-97315400D02*
G75*
G03*
X162101500Y-97315400I-150000J0D01*
G01*
D12*
X129697400Y-95132600D02*
G75*
G03*
X129697400Y-95132600I-250000J0D01*
G01*
X154740200Y-92592600D02*
G75*
G03*
X154740200Y-92592600I-250000J0D01*
G01*
D11*
X141503700Y-80011700D02*
G75*
G03*
X141503700Y-80011700I-150000J0D01*
G01*
D10*
G36*
X131989900Y-115233500D02*
G01*
X131349900Y-115233500D01*
X131349900Y-112893500D01*
X131989900Y-112893500D01*
X131989900Y-115233500D01*
G37*
D12*
X173631500Y-105014800D02*
G75*
G03*
X173631500Y-105014800I-250000J0D01*
G01*
D10*
G36*
X165009900Y-103724200D02*
G01*
X164369900Y-103724200D01*
X164369900Y-101384200D01*
X165009900Y-101384200D01*
X165009900Y-103724200D01*
G37*
D12*
X174861800Y-123548800D02*
G75*
G03*
X174861800Y-123548800I-250000J0D01*
G01*
X156645200Y-97156700D02*
G75*
G03*
X156645200Y-97156700I-250000J0D01*
G01*
X156645200Y-86679200D02*
G75*
G03*
X156645200Y-86679200I-250000J0D01*
G01*
X180537100Y-109936000D02*
G75*
G03*
X180537100Y-109936000I-250000J0D01*
G01*
D11*
X163569900Y-105213200D02*
G75*
G03*
X163569900Y-105213200I-150000J0D01*
G01*
X164839900Y-118072000D02*
G75*
G03*
X164839900Y-118072000I-150000J0D01*
G01*
X160791800Y-97315400D02*
G75*
G03*
X160791800Y-97315400I-150000J0D01*
G01*
X177262100Y-102673200D02*
G75*
G03*
X177262100Y-102673200I-150000J0D01*
G01*
X151346200Y-94656400D02*
G75*
G03*
X151346200Y-94656400I-150000J0D01*
G01*
X155275200Y-79773500D02*
G75*
G03*
X155275200Y-79773500I-150000J0D01*
G01*
X158093000Y-79773500D02*
G75*
G03*
X158093000Y-79773500I-150000J0D01*
G01*
D10*
G36*
X142106800Y-89316000D02*
G01*
X139806800Y-89316000D01*
X139806800Y-88646000D01*
X142106800Y-88646000D01*
X142106800Y-89316000D01*
G37*
G36*
X161239600Y-115193800D02*
G01*
X160599600Y-115193800D01*
X160599600Y-112853800D01*
X161239600Y-112853800D01*
X161239600Y-115193800D01*
G37*
D12*
X143707100Y-122675700D02*
G75*
G03*
X143707100Y-122675700I-250000J0D01*
G01*
D11*
X153370200Y-115690700D02*
G75*
G03*
X153370200Y-115690700I-150000J0D01*
G01*
X136860200Y-107435700D02*
G75*
G03*
X136860200Y-107435700I-150000J0D01*
G01*
X134320200Y-106245100D02*
G75*
G03*
X134320200Y-106245100I-150000J0D01*
G01*
X174761800Y-123548800D02*
G75*
G03*
X174761800Y-123548800I-150000J0D01*
G01*
D10*
G36*
X142404600Y-111168800D02*
G01*
X140064600Y-111168800D01*
X140064600Y-110528800D01*
X142404600Y-110528800D01*
X142404600Y-111168800D01*
G37*
G36*
X159235200Y-95705400D02*
G01*
X158635200Y-95705400D01*
X158635200Y-93845400D01*
X159235200Y-93845400D01*
X159235200Y-95705400D01*
G37*
D12*
X138984300Y-91481400D02*
G75*
G03*
X138984300Y-91481400I-250000J0D01*
G01*
X160494900Y-88425400D02*
G75*
G03*
X160494900Y-88425400I-250000J0D01*
G01*
D11*
X154005200Y-124223500D02*
G75*
G03*
X154005200Y-124223500I-150000J0D01*
G01*
X178730500Y-103546400D02*
G75*
G03*
X178730500Y-103546400I-150000J0D01*
G01*
D10*
G36*
X161239600Y-103724200D02*
G01*
X160599600Y-103724200D01*
X160599600Y-101384200D01*
X161239600Y-101384200D01*
X161239600Y-103724200D01*
G37*
G36*
X130637100Y-88006400D02*
G01*
X128337100Y-88006400D01*
X128337100Y-87336400D01*
X130637100Y-87336400D01*
X130637100Y-88006400D01*
G37*
D12*
X138230200Y-104498800D02*
G75*
G03*
X138230200Y-104498800I-250000J0D01*
G01*
D11*
X138368300Y-118905400D02*
G75*
G03*
X138368300Y-118905400I-150000J0D01*
G01*
X144242100Y-101919200D02*
G75*
G03*
X144242100Y-101919200I-150000J0D01*
G01*
D12*
X151446200Y-94656400D02*
G75*
G03*
X151446200Y-94656400I-250000J0D01*
G01*
D11*
X164046200Y-117159200D02*
G75*
G03*
X164046200Y-117159200I-150000J0D01*
G01*
D12*
X147080500Y-89695400D02*
G75*
G03*
X147080500Y-89695400I-250000J0D01*
G01*
D10*
G36*
X166934600Y-86061400D02*
G01*
X166334600Y-86061400D01*
X166334600Y-84201400D01*
X166934600Y-84201400D01*
X166934600Y-86061400D01*
G37*
D11*
X138050900Y-121604200D02*
G75*
G03*
X138050900Y-121604200I-150000J0D01*
G01*
D12*
X142437100Y-95847000D02*
G75*
G03*
X142437100Y-95847000I-250000J0D01*
G01*
D11*
X134320200Y-104498800D02*
G75*
G03*
X134320200Y-104498800I-150000J0D01*
G01*
D12*
X171369300Y-124025100D02*
G75*
G03*
X171369300Y-124025100I-250000J0D01*
G01*
X180140200Y-88107900D02*
G75*
G03*
X180140200Y-88107900I-250000J0D01*
G01*
D11*
X129756200Y-105332300D02*
G75*
G03*
X129756200Y-105332300I-150000J0D01*
G01*
D10*
G36*
X134529900Y-115233500D02*
G01*
X133889900Y-115233500D01*
X133889900Y-112893500D01*
X134529900Y-112893500D01*
X134529900Y-115233500D01*
G37*
D11*
X138884300Y-91481400D02*
G75*
G03*
X138884300Y-91481400I-150000J0D01*
G01*
D10*
G36*
X169114300Y-109898800D02*
G01*
X166774300Y-109898800D01*
X166774300Y-109258800D01*
X169114300Y-109258800D01*
X169114300Y-109898800D01*
G37*
G36*
X142404600Y-106088800D02*
G01*
X140064600Y-106088800D01*
X140064600Y-105448800D01*
X142404600Y-105448800D01*
X142404600Y-106088800D01*
G37*
G36*
X135799900Y-103763800D02*
G01*
X135159900Y-103763800D01*
X135159900Y-101423800D01*
X135799900Y-101423800D01*
X135799900Y-103763800D01*
G37*
D12*
X135729900Y-112118800D02*
G75*
G03*
X135729900Y-112118800I-250000J0D01*
G01*
D11*
X181191200Y-123985400D02*
G75*
G03*
X181191200Y-123985400I-150000J0D01*
G01*
X149719000Y-79852900D02*
G75*
G03*
X149719000Y-79852900I-150000J0D01*
G01*
D10*
G36*
X135537100Y-97076400D02*
G01*
X134867100Y-97076400D01*
X134867100Y-94776400D01*
X135537100Y-94776400D01*
X135537100Y-97076400D01*
G37*
D11*
X175357100Y-101641400D02*
G75*
G03*
X175357100Y-101641400I-150000J0D01*
G01*
D12*
X144183300Y-120612000D02*
G75*
G03*
X144183300Y-120612000I-250000J0D01*
G01*
D10*
G36*
X123590200Y-109158800D02*
G01*
X121890200Y-109158800D01*
X121890200Y-107458800D01*
X123590200Y-107458800D01*
X123590200Y-109158800D01*
G37*
D12*
X154383000Y-114738200D02*
G75*
G03*
X154383000Y-114738200I-250000J0D01*
G01*
D11*
X132018300Y-122755100D02*
G75*
G03*
X132018300Y-122755100I-150000J0D01*
G01*
D10*
G36*
X153257400Y-79118800D02*
G01*
X151357400Y-79118800D01*
X151357400Y-73998800D01*
X153257400Y-73998800D01*
X153257400Y-79118800D01*
G37*
D12*
X138230200Y-112079200D02*
G75*
G03*
X138230200Y-112079200I-250000J0D01*
G01*
D10*
G36*
X161775200Y-95705400D02*
G01*
X161175200Y-95705400D01*
X161175200Y-93845400D01*
X161775200Y-93845400D01*
X161775200Y-95705400D01*
G37*
G36*
X139386800Y-97076400D02*
G01*
X138716800Y-97076400D01*
X138716800Y-94776400D01*
X139386800Y-94776400D01*
X139386800Y-97076400D01*
G37*
D11*
X146345500Y-110848800D02*
G75*
G03*
X146345500Y-110848800I-150000J0D01*
G01*
X134320200Y-112039500D02*
G75*
G03*
X134320200Y-112039500I-150000J0D01*
G01*
D10*
G36*
X166359300Y-115193800D02*
G01*
X165719300Y-115193800D01*
X165719300Y-112853800D01*
X166359300Y-112853800D01*
X166359300Y-115193800D01*
G37*
D12*
X163034900Y-92672000D02*
G75*
G03*
X163034900Y-92672000I-250000J0D01*
G01*
D10*
G36*
X138116800Y-85646400D02*
G01*
X137446800Y-85646400D01*
X137446800Y-83346400D01*
X138116800Y-83346400D01*
X138116800Y-85646400D01*
G37*
D11*
X139320900Y-123469500D02*
G75*
G03*
X139320900Y-123469500I-150000J0D01*
G01*
D10*
G36*
X142106800Y-90586000D02*
G01*
X139806800Y-90586000D01*
X139806800Y-89916000D01*
X142106800Y-89916000D01*
X142106800Y-90586000D01*
G37*
G36*
X130637100Y-91856000D02*
G01*
X128337100Y-91856000D01*
X128337100Y-91186000D01*
X130637100Y-91186000D01*
X130637100Y-91856000D01*
G37*
D11*
X150671500Y-114777900D02*
G75*
G03*
X150671500Y-114777900I-150000J0D01*
G01*
X126382700Y-97196400D02*
G75*
G03*
X126382700Y-97196400I-150000J0D01*
G01*
D14*
%TO.N,*%
X144092100Y-79932600D03*
X162152100Y-117322600D03*
X146192100Y-110852600D03*
X162902100Y-108662600D03*
X134172100Y-112042600D03*
X148972100Y-115132600D03*
X160642100Y-79652600D03*
X164692100Y-118072600D03*
X131992100Y-93502600D03*
X179892100Y-88112600D03*
X172982100Y-118112600D03*
X131312100Y-87672600D03*
X156392100Y-97152600D03*
X136712100Y-118592600D03*
X167432100Y-97312600D03*
X173022100Y-119342600D03*
X179412100Y-104692600D03*
X150522100Y-114782600D03*
X143892100Y-105732600D03*
X170682100Y-94732600D03*
X142982100Y-119892600D03*
X165682100Y-122832600D03*
X146832100Y-79852600D03*
X156392100Y-110012600D03*
X129452100Y-95132600D03*
X136072100Y-98742600D03*
X135402100Y-118392600D03*
X151192100Y-116442600D03*
X158302100Y-122672600D03*
X138732100Y-91482600D03*
X160802100Y-124342600D03*
X171912100Y-123072600D03*
X159092100Y-124222600D03*
X151312100Y-98462600D03*
X142982100Y-88302600D03*
X155842100Y-122952600D03*
X144092100Y-101922600D03*
X160642100Y-97312600D03*
X150802100Y-112352600D03*
X161792100Y-111122600D03*
X148222100Y-111962600D03*
X141992100Y-122672600D03*
X148222100Y-119892600D03*
X146072100Y-97192600D03*
X141352100Y-80012600D03*
X174612100Y-123552600D03*
X149532100Y-91842600D03*
X122702100Y-113472600D03*
X157942100Y-79772600D03*
X181402100Y-119302600D03*
X155762100Y-91922600D03*
X152152100Y-95492600D03*
X156392100Y-86682600D03*
X158302100Y-105252600D03*
X159452100Y-116162600D03*
X149572100Y-79852600D03*
X160242100Y-88422600D03*
X137982100Y-112082600D03*
X156952100Y-112082600D03*
X125002100Y-92152600D03*
X132032100Y-89572600D03*
X136712100Y-107432600D03*
X163502100Y-82912600D03*
X135482100Y-112122600D03*
X178622100Y-122042600D03*
X178582100Y-103542600D03*
X143612100Y-108272600D03*
X136832100Y-87352600D03*
X135282100Y-86562600D03*
X146712100Y-112082600D03*
X145002100Y-102952600D03*
X179372100Y-123032600D03*
X180642100Y-120532600D03*
X161952100Y-97312600D03*
X170092100Y-109542600D03*
X154132100Y-114742600D03*
X177822100Y-110812600D03*
X136872100Y-123592600D03*
X127502100Y-91122600D03*
X151152100Y-119862600D03*
X160922100Y-108662600D03*
X144012100Y-113982600D03*
X134172100Y-106242600D03*
X146832100Y-89692600D03*
X155482100Y-100812600D03*
X152352100Y-79852600D03*
X134172100Y-104502600D03*
X162782100Y-92672600D03*
X151232100Y-108272600D03*
X154492100Y-92592600D03*
X133892100Y-82112600D03*
X155882100Y-124262600D03*
X157072100Y-91122600D03*
X146112100Y-88582600D03*
X153222100Y-93382600D03*
X143452100Y-122672600D03*
X170052100Y-121682600D03*
X144922100Y-121602600D03*
X137982100Y-104502600D03*
X160922100Y-116012600D03*
X180922100Y-90292600D03*
X139172100Y-123472600D03*
D15*
X175132100Y-94972600D03*
D14*
X130402100Y-84412600D03*
X159612100Y-106522600D03*
X165562100Y-87032600D03*
X158582100Y-111322600D03*
X140642100Y-83072600D03*
X168382100Y-119972600D03*
X157662100Y-86802600D03*
X176242100Y-112082600D03*
X142942100Y-114662600D03*
X147702100Y-113982600D03*
X126272100Y-119262600D03*
X165682100Y-120492600D03*
X172982100Y-120532600D03*
X121752100Y-122752600D03*
X157822100Y-108742600D03*
X181042100Y-123982600D03*
X177112100Y-102672600D03*
X142192100Y-95842600D03*
X136752100Y-112082600D03*
X143932100Y-120612600D03*
X137702100Y-92792600D03*
X133262100Y-121522600D03*
X177032100Y-123782600D03*
X145042100Y-108272600D03*
X125002100Y-105732600D03*
X164092100Y-92632600D03*
X126232100Y-97192600D03*
X157192100Y-104382600D03*
X127542100Y-99502600D03*
X129602100Y-105332600D03*
X151192100Y-94652600D03*
X159492100Y-112082600D03*
D15*
X117742100Y-105252600D03*
D14*
X153222100Y-115692600D03*
X163892100Y-117162600D03*
X136752100Y-105532600D03*
X134172100Y-117512600D03*
X144172100Y-86872600D03*
X140242100Y-97432600D03*
X163812100Y-110092600D03*
X171122100Y-124022600D03*
X126752100Y-122792600D03*
X141072100Y-85212600D03*
X143772100Y-107002600D03*
X157032100Y-119862600D03*
X147702100Y-90492600D03*
X171592100Y-98582600D03*
X155122100Y-83032600D03*
X138222100Y-118902600D03*
X145042100Y-87792600D03*
X163422100Y-105212600D03*
X149252100Y-90492600D03*
X137902100Y-121602600D03*
X175482100Y-113982600D03*
X156472100Y-105892600D03*
X153852100Y-124222600D03*
X175212100Y-101642600D03*
X155122100Y-79772600D03*
X180292100Y-109932600D03*
X135872100Y-124222600D03*
X153062100Y-123232600D03*
X131872100Y-122752600D03*
X130402100Y-109972600D03*
X173382100Y-105012600D03*
%TD*%
D16*
%TO.N,*%
X138615200Y-91481400D02*
X140956800Y-91481400D01*
D17*
X169055400Y-125414200D02*
X169055400Y-134939200D01*
D16*
X154371200Y-95608800D02*
X154371200Y-96045400D01*
D17*
X170047700Y-121604200D02*
X170127100Y-121683500D01*
D18*
X115247300Y-82351000D02*
X115247300Y-82199800D01*
D16*
X141353700Y-76995400D02*
X141393300Y-76955700D01*
D17*
X133932100Y-97355100D02*
X133971800Y-97315400D01*
D18*
X114680700Y-81331000D02*
X114775100Y-81482100D01*
D16*
X148299000Y-119857900D02*
X148338700Y-119897600D01*
X157824000Y-107515100D02*
X157824000Y-108785100D01*
X135599000Y-92156000D02*
X137504000Y-94061000D01*
X141075900Y-85052000D02*
X141075900Y-86441000D01*
D17*
X178342400Y-109578800D02*
X182509600Y-113746000D01*
D16*
X130399900Y-111245700D02*
X138416800Y-111245700D01*
D19*
X114035900Y-119673800D02*
X114135900Y-119790500D01*
D16*
X163380200Y-103189200D02*
X163499300Y-103070100D01*
X135479900Y-102633500D02*
X135559300Y-102554200D01*
D17*
X153021700Y-125414200D02*
X153021700Y-134939200D01*
D16*
X155760200Y-100093500D02*
X155760200Y-102474800D01*
X129129900Y-99934800D02*
X129090200Y-99895100D01*
X155919000Y-125652300D02*
X156077700Y-125811000D01*
D18*
X116097300Y-81482100D02*
X115908500Y-81557600D01*
D16*
X146790900Y-79892600D02*
X146790900Y-78106700D01*
D17*
X133971800Y-82115100D02*
X133971800Y-84536000D01*
D16*
X163539000Y-82908800D02*
X162546800Y-82908800D01*
D17*
X170127100Y-121683500D02*
X170127100Y-125612600D01*
D19*
X116069300Y-119840500D02*
X115969300Y-119673800D01*
X120222700Y-119290500D02*
X120222700Y-120123800D01*
D18*
X114680700Y-81973200D02*
X114680700Y-82577600D01*
D17*
X156037900Y-125414200D02*
X156037900Y-134939200D01*
D16*
X126272400Y-97355100D02*
X126669300Y-97752000D01*
D18*
X116191800Y-81331000D02*
X116097300Y-81482100D01*
D17*
X110714900Y-118786400D02*
X110714900Y-125255400D01*
D19*
X115102500Y-119840500D02*
X115002500Y-119673800D01*
D16*
X135083000Y-117238500D02*
X159729000Y-117238500D01*
X162110200Y-117357600D02*
X162070500Y-117397300D01*
X147544900Y-112714200D02*
X149211800Y-112714200D01*
X152109000Y-95608800D02*
X154371200Y-95608800D01*
X160879900Y-107515100D02*
X157824000Y-107515100D01*
X137702400Y-124620400D02*
X139170900Y-124620400D01*
X152307400Y-110253500D02*
X155085500Y-110253500D01*
X173024300Y-119342000D02*
X181358700Y-119342000D01*
X165999600Y-113984200D02*
X175445200Y-113984200D01*
X156434900Y-86798200D02*
X156434900Y-85528200D01*
X151156500Y-90290700D02*
X149529300Y-91917900D01*
X155085500Y-110253500D02*
X155720500Y-110888500D01*
X143734900Y-106999200D02*
X143854000Y-107118200D01*
X160165500Y-91878200D02*
X160205200Y-91917900D01*
D17*
X165047000Y-125453800D02*
X165047000Y-134978800D01*
D16*
X149330900Y-97037600D02*
X146314600Y-94021400D01*
X176318300Y-112079200D02*
X176397700Y-111999800D01*
X154728300Y-103387600D02*
X154728300Y-100530100D01*
X143814300Y-120691400D02*
X125042100Y-120691400D01*
D17*
X133892400Y-97752000D02*
X136988000Y-97752000D01*
X120914500Y-125414200D02*
X120914500Y-134939200D01*
D16*
X153775900Y-113944500D02*
X155879300Y-113944500D01*
D17*
X181080900Y-124025100D02*
X180168000Y-124025100D01*
D16*
X160681500Y-78146400D02*
X160800500Y-78027300D01*
X157824000Y-108785100D02*
X157903300Y-108864500D01*
X160879900Y-116047900D02*
X160879900Y-114023800D01*
D18*
X116191800Y-90972300D02*
X114680700Y-90972300D01*
D16*
X127859900Y-112118800D02*
X130320500Y-112118800D01*
X162745200Y-89854200D02*
X162784900Y-89814500D01*
X156831800Y-105094200D02*
X156990500Y-105252900D01*
X172071800Y-126168200D02*
X172111500Y-126207900D01*
X140202700Y-119103800D02*
X165682100Y-119103800D01*
X164610500Y-99339500D02*
X164689900Y-99418800D01*
X150164300Y-100093500D02*
X155760200Y-100093500D01*
D18*
X114680700Y-90254500D02*
X114680700Y-89725600D01*
D16*
X164054900Y-85567900D02*
X164054900Y-90290700D01*
D19*
X118556100Y-119540500D02*
X119056100Y-119040500D01*
D17*
X171079500Y-125414200D02*
X171079500Y-134939200D01*
D16*
X163380200Y-118032300D02*
X163300900Y-118111700D01*
X156434900Y-85528200D02*
X156355500Y-85448800D01*
D17*
X162070500Y-125493500D02*
X162070500Y-121643800D01*
D16*
X130320500Y-112118800D02*
X130360200Y-112079200D01*
D18*
X116191800Y-81179800D02*
X116191800Y-81331000D01*
D16*
X134249600Y-113388800D02*
X134090900Y-113547600D01*
D18*
X115908500Y-81557600D02*
X115436200Y-81557600D01*
D19*
X120222700Y-120123800D02*
X120122700Y-120290500D01*
D16*
X168460200Y-104459200D02*
X170484300Y-104459200D01*
X144012700Y-77273200D02*
X143933300Y-77193800D01*
X147505200Y-110967900D02*
X147505200Y-112674500D01*
X142028300Y-122596400D02*
X142028300Y-126366700D01*
X147505200Y-112674500D02*
X147544900Y-112714200D01*
X143139600Y-114658800D02*
X139964600Y-114658800D01*
X151196200Y-116603500D02*
X151196200Y-116524200D01*
X166634600Y-81400700D02*
X166634600Y-85369500D01*
D18*
X114680700Y-87934800D02*
X114680700Y-87557000D01*
D16*
X153259900Y-116325700D02*
X159252700Y-116325700D01*
X172071800Y-123072600D02*
X172071800Y-126168200D01*
D17*
X136432400Y-82234200D02*
X136472100Y-82273800D01*
X154053600Y-125414200D02*
X154053600Y-134939200D01*
X135837100Y-124223500D02*
X135837100Y-125731700D01*
D16*
X149569000Y-79932300D02*
X149569000Y-77828800D01*
D17*
X183144600Y-124422000D02*
X183581200Y-123985400D01*
X161038600Y-125414200D02*
X161038600Y-134939200D01*
D16*
X135479900Y-112079200D02*
X135479900Y-113627000D01*
D18*
X115436200Y-90254500D02*
X115436200Y-89725600D01*
D17*
X157069900Y-125493500D02*
X157069900Y-121683500D01*
D16*
X131074600Y-86401400D02*
X132979600Y-88306400D01*
X155601500Y-106403800D02*
X149767400Y-106403800D01*
X163380200Y-116682900D02*
X163896200Y-117198800D01*
X157943000Y-79773500D02*
X157943000Y-78186000D01*
D19*
X118189300Y-119040500D02*
X118189300Y-120373800D01*
D18*
X115625100Y-80953200D02*
X115908500Y-80953200D01*
D16*
X153220200Y-115690700D02*
X153220200Y-116286000D01*
X139686800Y-119619800D02*
X140202700Y-119103800D01*
D18*
X114964000Y-92861300D02*
X115908500Y-92861300D01*
D16*
X136234000Y-98625100D02*
X136432400Y-98625100D01*
X155045900Y-126247600D02*
X155006200Y-126287300D01*
X126907400Y-105808500D02*
X126986800Y-105729200D01*
X145362100Y-109777300D02*
X146314600Y-109777300D01*
D17*
X174095700Y-125414200D02*
X174095700Y-134939200D01*
D16*
X160681500Y-79694200D02*
X160681500Y-78146400D01*
X146116200Y-88663500D02*
X146592400Y-88187300D01*
D17*
X124843600Y-125414200D02*
X124843600Y-134939200D01*
D16*
X155720500Y-110888500D02*
X157427100Y-110888500D01*
X157030200Y-112079200D02*
X155760200Y-112079200D01*
X131669900Y-114619200D02*
X131669900Y-116008200D01*
D19*
X113835900Y-119623800D02*
X114035900Y-119673800D01*
D18*
X116191800Y-93087900D02*
X116191800Y-93465700D01*
D17*
X119922300Y-125414200D02*
X119922300Y-134939200D01*
D16*
X136869000Y-87433200D02*
X136948300Y-87353800D01*
X173103700Y-122794800D02*
X173103700Y-126366700D01*
X159490900Y-114500100D02*
X159649600Y-114341400D01*
X155125200Y-79892600D02*
X155125200Y-78067000D01*
D17*
X113850100Y-125414200D02*
X113850100Y-134939200D01*
D16*
X164689900Y-114103200D02*
X164729600Y-114063500D01*
X144846200Y-100649200D02*
X149291200Y-105094200D01*
D17*
X145044600Y-108308800D02*
X146394000Y-108308800D01*
X122700500Y-108031000D02*
X122700500Y-98545700D01*
X183144600Y-125295100D02*
X183144600Y-124422000D01*
X115874200Y-125414200D02*
X115874200Y-134939200D01*
X110714900Y-121604200D02*
X133297100Y-121604200D01*
D16*
X168420500Y-112079200D02*
X176318300Y-112079200D01*
X152347100Y-79972000D02*
X152347100Y-78424200D01*
X129487100Y-105372000D02*
X135479900Y-105372000D01*
D18*
X116191800Y-89310000D02*
X116191800Y-88781100D01*
D16*
X153220200Y-113349200D02*
X150084900Y-116484500D01*
X154728300Y-100530100D02*
X149807100Y-100530100D01*
X127701200Y-85766400D02*
X135043300Y-78424200D01*
X159729000Y-117238500D02*
X160919600Y-116047900D01*
X130320500Y-109975700D02*
X138059600Y-109975700D01*
D17*
X153894900Y-107118200D02*
X153855200Y-107078500D01*
D16*
X163023000Y-108705700D02*
X163062700Y-108745400D01*
X126550200Y-110848800D02*
X125597700Y-110848800D01*
X164689900Y-99418800D02*
X164689900Y-102871700D01*
X154450500Y-109578800D02*
X154490200Y-109618500D01*
X146314600Y-109777300D02*
X147505200Y-110967900D01*
D18*
X114680700Y-85970300D02*
X114680700Y-85441400D01*
D16*
X164650200Y-88107900D02*
X164689900Y-88147600D01*
D17*
X110714900Y-124382300D02*
X109921200Y-124382300D01*
D16*
X158935200Y-88147600D02*
X158935200Y-85210700D01*
X130479300Y-116484500D02*
X130399900Y-116405100D01*
X164689900Y-102871700D02*
X164769300Y-102951000D01*
X164689900Y-118191000D02*
X164689900Y-114103200D01*
D17*
X157069900Y-121683500D02*
X156990500Y-121604200D01*
D16*
X140718700Y-83067600D02*
X142385500Y-81400700D01*
X157109600Y-112079200D02*
X157109600Y-113507900D01*
X154172700Y-114658800D02*
X154172700Y-115770100D01*
X161514900Y-91163800D02*
X161514900Y-95132600D01*
X165285200Y-86877600D02*
X165523300Y-87115700D01*
X162110200Y-114500100D02*
X162110200Y-117357600D01*
X134249600Y-112079200D02*
X134249600Y-113388800D01*
X141353700Y-80051400D02*
X141353700Y-76995400D01*
D17*
X145044500Y-125414200D02*
X145044500Y-134939200D01*
D16*
X142385500Y-81400700D02*
X166634600Y-81400700D01*
X158339900Y-105332300D02*
X158339900Y-102792300D01*
X163777100Y-110055100D02*
X163856500Y-109975700D01*
D17*
X132900100Y-125414200D02*
X132900100Y-134939200D01*
D16*
X146195500Y-97236000D02*
X146394000Y-97236000D01*
D18*
X115341800Y-81179800D02*
X115436200Y-81028700D01*
D16*
X149767400Y-106403800D02*
X144409600Y-101046000D01*
X150799300Y-112436400D02*
X150839000Y-112436400D01*
X143020500Y-88346000D02*
X143020500Y-86679200D01*
D17*
X122859200Y-125414200D02*
X122859200Y-134939200D01*
D16*
X159570200Y-106562600D02*
X155760200Y-106562600D01*
X130399900Y-116405100D02*
X130399900Y-114023800D01*
X140361500Y-97474200D02*
X137742100Y-97474200D01*
D17*
X158062000Y-125414200D02*
X158062000Y-134939200D01*
D16*
X129249000Y-116841700D02*
X150878700Y-116841700D01*
X159094000Y-127319200D02*
X159014600Y-127398500D01*
D18*
X115247300Y-83371000D02*
X114680700Y-82993200D01*
D19*
X114802500Y-120373800D02*
X115002500Y-120340500D01*
D17*
X163022900Y-125414200D02*
X163022900Y-134939200D01*
D16*
X136710200Y-107435700D02*
X136789600Y-107435700D01*
D18*
X115436200Y-87632600D02*
X115625100Y-87405900D01*
D16*
X126669300Y-97752000D02*
X132662100Y-97752000D01*
X124883300Y-92156000D02*
X135599000Y-92156000D01*
X164293000Y-118667300D02*
X164848700Y-118111700D01*
X155085500Y-97553500D02*
X155482400Y-97950400D01*
X165324900Y-96442300D02*
X165324900Y-94656400D01*
X130399900Y-100252300D02*
X130360200Y-100292000D01*
D17*
X162070500Y-121643800D02*
X162030900Y-121604200D01*
D18*
X116191800Y-89725600D02*
X116191800Y-90254500D01*
D16*
X157704900Y-87552300D02*
X145282700Y-87552300D01*
X178104300Y-126485700D02*
X178183700Y-126565100D01*
X150839000Y-112436400D02*
X152386800Y-110888500D01*
X132900200Y-114619200D02*
X132939900Y-114579500D01*
X155125200Y-78067000D02*
X155482400Y-77709800D01*
D17*
X149807100Y-108269200D02*
X151315200Y-108269200D01*
D16*
X146314600Y-94021400D02*
X140837700Y-94021400D01*
D18*
X116191800Y-92445700D02*
X114680700Y-92067900D01*
D17*
X116866500Y-125652300D02*
X116866500Y-122834500D01*
D16*
X138496200Y-86639500D02*
X139051800Y-86083800D01*
X132622400Y-86282300D02*
X133773300Y-87433200D01*
X150561200Y-99101400D02*
X150799300Y-99339500D01*
X145282700Y-87552300D02*
X144965200Y-87869800D01*
X179929900Y-88147600D02*
X179969600Y-88107900D01*
D17*
X137781800Y-98545700D02*
X171516200Y-98545700D01*
D16*
X130320500Y-86401400D02*
X131074600Y-86401400D01*
X131669900Y-116008200D02*
X131749300Y-116087600D01*
X140401200Y-113230100D02*
X151354900Y-113230100D01*
D19*
X120122700Y-119123800D02*
X120222700Y-119290500D01*
D17*
X144012600Y-125414200D02*
X144012600Y-134939200D01*
D19*
X114602500Y-119673800D02*
X114502500Y-119840500D01*
X113335900Y-119623800D02*
X113535900Y-119673800D01*
D17*
X139924800Y-125414200D02*
X139924800Y-134939200D01*
D16*
X178659900Y-108269200D02*
X180366500Y-109975700D01*
D17*
X142980700Y-125414200D02*
X142980700Y-134939200D01*
X180167900Y-125414200D02*
X180167900Y-134939200D01*
D18*
X116191800Y-85970300D02*
X114680700Y-85970300D01*
D16*
X174611800Y-123548800D02*
X174691200Y-123548800D01*
X141552100Y-108348500D02*
X143695200Y-108348500D01*
X157109600Y-91163800D02*
X161514900Y-91163800D01*
X132939900Y-101046000D02*
X132900200Y-101085700D01*
X147981500Y-115174800D02*
X147465500Y-115690700D01*
D17*
X151315200Y-108269200D02*
X151354900Y-108308800D01*
D16*
X129090200Y-116682900D02*
X129249000Y-116841700D01*
X129129900Y-101919200D02*
X129129900Y-99934800D01*
X136749900Y-105729200D02*
X136749900Y-102633500D01*
D17*
X118890400Y-125414200D02*
X118890400Y-134939200D01*
D16*
X140956800Y-91481400D02*
X140996500Y-91521000D01*
D17*
X135559300Y-122834500D02*
X136789600Y-121604200D01*
D16*
X152386800Y-110888500D02*
X153894900Y-110888500D01*
X148219600Y-111960100D02*
X148259300Y-111960100D01*
X164015200Y-124501400D02*
X164015200Y-126406400D01*
X149489600Y-110729800D02*
X151116800Y-110729800D01*
X159371800Y-110571000D02*
X159887700Y-111087000D01*
X153220200Y-116286000D02*
X153259900Y-116325700D01*
X144409600Y-101046000D02*
X132939900Y-101046000D01*
X136472100Y-95926400D02*
X136511800Y-95966000D01*
X139289900Y-101919200D02*
X144131800Y-101919200D01*
X130360200Y-102236700D02*
X130439600Y-102316000D01*
D19*
X119922700Y-119040500D02*
X120122700Y-119123800D01*
D16*
X155879300Y-113944500D02*
X155919000Y-113904800D01*
X129090200Y-99895100D02*
X149965900Y-99895100D01*
D17*
X130876100Y-125414200D02*
X130876100Y-134939200D01*
D16*
X162546800Y-82908800D02*
X161514900Y-83940700D01*
D17*
X155045700Y-125414200D02*
X155045700Y-134939200D01*
D16*
X170325500Y-120016700D02*
X173103700Y-122794800D01*
D18*
X116191800Y-82351000D02*
X116097300Y-82502100D01*
D16*
X128812400Y-88941400D02*
X127701200Y-88941400D01*
X146949600Y-104856000D02*
X147981500Y-105887900D01*
D17*
X170127000Y-125414200D02*
X170127000Y-134939200D01*
X146394000Y-108308800D02*
X146513000Y-108427900D01*
X136789600Y-121604200D02*
X170047700Y-121604200D01*
D16*
X132939900Y-115690700D02*
X132900200Y-115651000D01*
X178540900Y-103586000D02*
X178580500Y-103546400D01*
X163380200Y-105292600D02*
X163380200Y-103189200D01*
D18*
X115436200Y-81557600D02*
X115530700Y-81557600D01*
D16*
X137742100Y-97474200D02*
X137742100Y-96204200D01*
X149807100Y-100530100D02*
X149529300Y-100252300D01*
X155125200Y-94696000D02*
X155204600Y-94616700D01*
X165324900Y-94656400D02*
X165245500Y-94577000D01*
D17*
X180168000Y-124025100D02*
X180168000Y-125771400D01*
X125875400Y-125414200D02*
X125875400Y-134939200D01*
D16*
X162784900Y-83821700D02*
X162824600Y-83782000D01*
X133773300Y-87433200D02*
X136869000Y-87433200D01*
D17*
X170682700Y-94735700D02*
X170722400Y-94775400D01*
D16*
X161991200Y-99736400D02*
X150362700Y-99736400D01*
X127105900Y-109578800D02*
X127145500Y-109618500D01*
X140718700Y-83147000D02*
X140718700Y-83067600D01*
X157704900Y-93346700D02*
X157704900Y-94815100D01*
X175048300Y-104697300D02*
X179493300Y-104697300D01*
D19*
X119422700Y-119290500D02*
X119522700Y-119123800D01*
D17*
X136472100Y-82273800D02*
X136472100Y-84178800D01*
D16*
X136749900Y-123628200D02*
X136749900Y-123667900D01*
X142028300Y-126366700D02*
X141949000Y-126446000D01*
D17*
X110714900Y-125255400D02*
X110834000Y-125374500D01*
D19*
X116069300Y-120373800D02*
X116069300Y-119040500D01*
D16*
X160244900Y-88663500D02*
X147941800Y-88663500D01*
D18*
X115436200Y-81028700D02*
X115625100Y-80953200D01*
D16*
X151354900Y-113230100D02*
X152466200Y-112118800D01*
X137980200Y-104617900D02*
X137980200Y-102474800D01*
D17*
X168023600Y-125414200D02*
X168023600Y-134939200D01*
X109841800Y-124461700D02*
X109841800Y-125374500D01*
D16*
X132900200Y-101085700D02*
X132900200Y-102276400D01*
X137980200Y-112039500D02*
X137980200Y-114023800D01*
X132900200Y-115651000D02*
X132900200Y-114619200D01*
D17*
X127185200Y-107078500D02*
X127185200Y-108348500D01*
D16*
X140837700Y-94021400D02*
X140758300Y-93942000D01*
X164689900Y-88147600D02*
X179929900Y-88147600D01*
X155919000Y-123072600D02*
X155680900Y-123072600D01*
X136472100Y-94259500D02*
X136472100Y-95926400D01*
X150362700Y-99736400D02*
X150124600Y-99498200D01*
X160205200Y-85448800D02*
X160205200Y-88623800D01*
D19*
X113135900Y-120373800D02*
X113135900Y-119623800D01*
D16*
X161514900Y-89219200D02*
X149013300Y-89219200D01*
X141710900Y-110848800D02*
X146116200Y-110848800D01*
X177112100Y-102673200D02*
X177151800Y-102633500D01*
X154172700Y-105848200D02*
X154133000Y-105808500D01*
D17*
X109921100Y-125414200D02*
X109921100Y-134939200D01*
D16*
X158339900Y-122556700D02*
X158339900Y-125334800D01*
D19*
X119522700Y-120290500D02*
X119422700Y-120123800D01*
D16*
X150124600Y-99498200D02*
X127582100Y-99498200D01*
D18*
X115908500Y-92861300D02*
X116097300Y-92936800D01*
D19*
X119056100Y-119040500D02*
X119056100Y-120373800D01*
D16*
X157744600Y-110571000D02*
X159371800Y-110571000D01*
X127701200Y-90925700D02*
X128296500Y-91521000D01*
X160681500Y-97315400D02*
X160840200Y-97474200D01*
X151037400Y-119857900D02*
X157030200Y-119857900D01*
D17*
X123851400Y-125414200D02*
X123851400Y-134939200D01*
D18*
X116191800Y-86385900D02*
X116191800Y-86914800D01*
D16*
X150759600Y-110213800D02*
X152029600Y-108943800D01*
X148934000Y-115174800D02*
X147981500Y-115174800D01*
X147981500Y-110213800D02*
X150759600Y-110213800D01*
X144885900Y-110253500D02*
X145362100Y-109777300D01*
D19*
X114135900Y-119790500D02*
X114135900Y-120373800D01*
D16*
X173103700Y-126366700D02*
X173143300Y-126406400D01*
D19*
X119722700Y-120373800D02*
X119522700Y-120290500D01*
D16*
X179136200Y-126049200D02*
X179136200Y-123469500D01*
X156950900Y-97950400D02*
X157585900Y-97315400D01*
X173619600Y-122477300D02*
X172071800Y-120929500D01*
X161991200Y-117675100D02*
X162229300Y-117437000D01*
X159609900Y-102673200D02*
X159649600Y-102633500D01*
D19*
X114802500Y-119623800D02*
X114602500Y-119673800D01*
D16*
X150878700Y-116841700D02*
X151315200Y-116405100D01*
D19*
X115769300Y-119623800D02*
X115569300Y-119673800D01*
D16*
X136789600Y-107435700D02*
X139607400Y-110253500D01*
D17*
X136988000Y-97752000D02*
X137781800Y-98545700D01*
D16*
X131273000Y-87671400D02*
X129844300Y-87671400D01*
X129447400Y-93942000D02*
X129487100Y-93902300D01*
D19*
X115969300Y-119673800D02*
X115769300Y-119623800D01*
D16*
X162745200Y-94854800D02*
X162784900Y-94894500D01*
X149211800Y-112714200D02*
X150759600Y-111166400D01*
D17*
X127899500Y-125414200D02*
X127899500Y-134939200D01*
X136908600Y-125414200D02*
X136908600Y-134939200D01*
D16*
X168182400Y-105729200D02*
X170365200Y-105729200D01*
D18*
X114964000Y-87330400D02*
X115152900Y-87330400D01*
D16*
X143695200Y-108348500D02*
X143734900Y-108308800D01*
D17*
X173460900Y-106403800D02*
X173302100Y-106562600D01*
X122740200Y-111523500D02*
X122700500Y-111483800D01*
D16*
X173619600Y-123866400D02*
X173619600Y-122477300D01*
X137662700Y-92791000D02*
X141274300Y-92791000D01*
X131749300Y-116087600D02*
X149251500Y-116087600D01*
D17*
X175127600Y-125414200D02*
X175127600Y-134939200D01*
D18*
X115152900Y-87330400D02*
X115341800Y-87405900D01*
D17*
X138932600Y-125414200D02*
X138932600Y-134939200D01*
X173381500Y-105014800D02*
X173381500Y-106880100D01*
D18*
X114680700Y-89310000D02*
X116191800Y-89310000D01*
D16*
X157943000Y-78186000D02*
X158181200Y-77947900D01*
X136313300Y-117675100D02*
X161991200Y-117675100D01*
X149965900Y-99895100D02*
X150164300Y-100093500D01*
X170127100Y-106999200D02*
X172984600Y-104141700D01*
X139170900Y-124620400D02*
X140004300Y-125453800D01*
D17*
X183581200Y-111325100D02*
X178659900Y-106403800D01*
D16*
X160840200Y-108705700D02*
X163023000Y-108705700D01*
D19*
X114602500Y-120340500D02*
X114802500Y-120373800D01*
D17*
X170127100Y-125612600D02*
X170166800Y-125652300D01*
X109841800Y-125374500D02*
X109921200Y-125453800D01*
D16*
X134170200Y-104538500D02*
X134170200Y-102038200D01*
X151116800Y-110729800D02*
X152267700Y-109578800D01*
X126351800Y-119262600D02*
X134289300Y-119262600D01*
X132622400Y-85091700D02*
X132622400Y-86282300D01*
X175405500Y-101681000D02*
X175445200Y-101641400D01*
D17*
X116866500Y-122834500D02*
X135559300Y-122834500D01*
D16*
X174095900Y-124342600D02*
X173619600Y-123866400D01*
D17*
X177151700Y-125414200D02*
X177151700Y-134939200D01*
D16*
X132027100Y-89576400D02*
X142822100Y-89576400D01*
D18*
X116191800Y-82199800D02*
X116191800Y-82351000D01*
D16*
X150045200Y-89854200D02*
X162745200Y-89854200D01*
D18*
X116097300Y-92936800D02*
X116191800Y-93087900D01*
D16*
X143020500Y-86679200D02*
X147664000Y-82035700D01*
X132979600Y-88306400D02*
X142980900Y-88306400D01*
D17*
X166078900Y-125414200D02*
X166078900Y-134939200D01*
X157069800Y-125414200D02*
X157069800Y-134939200D01*
D16*
X131392100Y-94180100D02*
X131392100Y-95370700D01*
D17*
X167071100Y-125414200D02*
X167071100Y-134939200D01*
D16*
X153021800Y-123152000D02*
X153021800Y-126366700D01*
X156355500Y-86877600D02*
X156434900Y-86798200D01*
X154371200Y-96045400D02*
X156395200Y-96045400D01*
X149688000Y-96442300D02*
X165324900Y-96442300D01*
X141274300Y-92791000D02*
X141314000Y-92751400D01*
X157030200Y-119857900D02*
X157069900Y-119897600D01*
D17*
X121867000Y-125453800D02*
X121867000Y-134978800D01*
D16*
X160879900Y-103189200D02*
X160879900Y-107515100D01*
X176080200Y-124937900D02*
X176080200Y-126446000D01*
X131669900Y-100649200D02*
X144846200Y-100649200D01*
X152466200Y-112118800D02*
X153418700Y-112118800D01*
D18*
X114680700Y-82577600D02*
X115341800Y-82577600D01*
X115341800Y-82502100D02*
X115247300Y-82351000D01*
D16*
X147981500Y-105887900D02*
X147981500Y-110213800D01*
X141353700Y-104498800D02*
X141353700Y-102951000D01*
X158339900Y-102792300D02*
X158379600Y-102752600D01*
D17*
X133932100Y-82234200D02*
X136432400Y-82234200D01*
D16*
X156990500Y-105252900D02*
X158379600Y-105252900D01*
X135043300Y-117278200D02*
X135083000Y-117238500D01*
X146116200Y-88822300D02*
X146116200Y-88663500D01*
D17*
X133297100Y-121604200D02*
X133336800Y-121564500D01*
D16*
X144052400Y-86877600D02*
X156355500Y-86877600D01*
D18*
X165324900Y-79226000D02*
X165702700Y-78659300D01*
D16*
X138853300Y-118945100D02*
X139131200Y-118667300D01*
X172071800Y-120929500D02*
X172071800Y-119064200D01*
D17*
X182509600Y-122596400D02*
X181080900Y-124025100D01*
D18*
X116191800Y-93465700D02*
X114680700Y-93465700D01*
D16*
X141393300Y-106999200D02*
X143734900Y-106999200D01*
X136432400Y-98625100D02*
X136908700Y-99101400D01*
X129447400Y-95172300D02*
X129447400Y-93942000D01*
D18*
X114964000Y-80953200D02*
X114775100Y-81028700D01*
D16*
X160205200Y-88623800D02*
X160244900Y-88663500D01*
D17*
X173103600Y-125414200D02*
X173103600Y-134939200D01*
D16*
X163300900Y-118111700D02*
X137186500Y-118111700D01*
D17*
X114882000Y-125414200D02*
X114882000Y-134939200D01*
D16*
X159887700Y-111087000D02*
X161713300Y-111087000D01*
X141353700Y-102951000D02*
X144885900Y-102951000D01*
D17*
X126391500Y-108348500D02*
X121152700Y-108348500D01*
D18*
X115341800Y-87405900D02*
X115436200Y-87557000D01*
D17*
X137900700Y-125414200D02*
X137900700Y-134939200D01*
D16*
X144012700Y-124501400D02*
X144012700Y-126803200D01*
D19*
X119522700Y-119123800D02*
X119722700Y-119040500D01*
D17*
X134884500Y-125414200D02*
X134884500Y-134939200D01*
D18*
X115530700Y-81557600D02*
X115341800Y-81331000D01*
X115436200Y-86914800D02*
X115436200Y-86385900D01*
D16*
X154410900Y-92672000D02*
X158935200Y-92672000D01*
X139210500Y-123588500D02*
X141036200Y-125414200D01*
X136908700Y-99101400D02*
X150561200Y-99101400D01*
X165682100Y-119103800D02*
X165682100Y-120532600D01*
D19*
X115569300Y-119673800D02*
X115469300Y-119840500D01*
D16*
X130360200Y-100292000D02*
X130360200Y-102236700D01*
X124923000Y-105808500D02*
X126907400Y-105808500D01*
X156514300Y-97037600D02*
X149330900Y-97037600D01*
D18*
X114775100Y-87405900D02*
X114964000Y-87330400D01*
D16*
X173024300Y-120492900D02*
X180564900Y-120492900D01*
X170365200Y-105729200D02*
X172508300Y-103586000D01*
X162745200Y-92552900D02*
X162745200Y-94854800D01*
D17*
X178659900Y-106403800D02*
X173460900Y-106403800D01*
D16*
X131630200Y-102316000D02*
X131630200Y-100688800D01*
X154172700Y-115770100D02*
X154212400Y-115809800D01*
D18*
X114775100Y-81482100D02*
X114964000Y-81557600D01*
D16*
X149291200Y-105094200D02*
X156831800Y-105094200D01*
X132662100Y-97752000D02*
X132662100Y-95926400D01*
X162110200Y-99855400D02*
X161991200Y-99736400D01*
D17*
X141988600Y-125414200D02*
X141988600Y-134939200D01*
D16*
X163419900Y-78384500D02*
X163419900Y-80884800D01*
X139210500Y-123429800D02*
X139210500Y-123588500D01*
X167388700Y-97355100D02*
X167468000Y-97275700D01*
X141750500Y-112118800D02*
X146671800Y-112118800D01*
D17*
X183184200Y-125414200D02*
X183184200Y-134939200D01*
X171516200Y-98545700D02*
X171635200Y-98664800D01*
X176119800Y-125414200D02*
X176119800Y-134939200D01*
D18*
X116097300Y-82502100D02*
X115908500Y-82577600D01*
D17*
X182509600Y-113746000D02*
X182509600Y-122596400D01*
D16*
X135043300Y-117595700D02*
X135043300Y-117278200D01*
X137980200Y-114023800D02*
X137900900Y-114103200D01*
D19*
X114502500Y-119840500D02*
X114502500Y-120173800D01*
D16*
X159252700Y-116325700D02*
X159490900Y-116087600D01*
X178104300Y-122675700D02*
X178104300Y-126485700D01*
X181358700Y-119342000D02*
X181438000Y-119421400D01*
X164650200Y-83821700D02*
X164650200Y-88107900D01*
D17*
X122740200Y-113547600D02*
X122740200Y-111523500D01*
D16*
X167944300Y-102514500D02*
X168777700Y-101681000D01*
X158935200Y-92672000D02*
X158935200Y-94815100D01*
X155760200Y-112079200D02*
X154490200Y-113349200D01*
X135479900Y-118508500D02*
X136313300Y-117675100D01*
X135321200Y-86639500D02*
X138496200Y-86639500D01*
X152267700Y-109578800D02*
X154450500Y-109578800D01*
X155680900Y-123072600D02*
X155045900Y-123707600D01*
X150799300Y-99339500D02*
X164610500Y-99339500D01*
X138416800Y-111245700D02*
X140401200Y-113230100D01*
X137781800Y-80884800D02*
X137781800Y-84694800D01*
X146790900Y-78106700D02*
X146949600Y-77947900D01*
D17*
X159054200Y-125414200D02*
X159054200Y-134939200D01*
D16*
X153220200Y-93386400D02*
X157665200Y-93386400D01*
X153894900Y-124183800D02*
X153894900Y-126128500D01*
X159094000Y-124144200D02*
X159094000Y-127319200D01*
X176080200Y-126446000D02*
X176159600Y-126525400D01*
X143457100Y-123945700D02*
X144012700Y-124501400D01*
X155799900Y-91878200D02*
X160165500Y-91878200D01*
X174492700Y-104141700D02*
X175048300Y-104697300D01*
D17*
X160046400Y-125414200D02*
X160046400Y-134939200D01*
D16*
X130360200Y-111285400D02*
X130399900Y-111245700D01*
X155919000Y-124183800D02*
X155919000Y-125652300D01*
D17*
X133892300Y-125414200D02*
X133892300Y-134939200D01*
D16*
X136749900Y-123667900D02*
X137702400Y-124620400D01*
D17*
X133971800Y-97315400D02*
X133971800Y-96402600D01*
D16*
X131947700Y-93624500D02*
X131392100Y-94180100D01*
X146671800Y-112118800D02*
X146751200Y-112039500D01*
X134289300Y-119262600D02*
X134646500Y-119619800D01*
D17*
X182192000Y-125414200D02*
X182192000Y-134939200D01*
X173381500Y-106880100D02*
X173460900Y-106959500D01*
D18*
X114775100Y-81028700D02*
X114680700Y-81179800D01*
D16*
X151196200Y-94696000D02*
X155125200Y-94696000D01*
X158895500Y-88187300D02*
X158935200Y-88147600D01*
D17*
X164054800Y-125414200D02*
X164054800Y-134939200D01*
D16*
X175445200Y-113984200D02*
X175484900Y-113944500D01*
D17*
X172111400Y-125414200D02*
X172111400Y-134939200D01*
D16*
X143457100Y-122675700D02*
X143457100Y-123945700D01*
X135440200Y-118508500D02*
X135479900Y-118508500D01*
D19*
X119422700Y-120123800D02*
X119422700Y-119290500D01*
D17*
X117898300Y-125414200D02*
X117898300Y-134939200D01*
D16*
X138853300Y-105094200D02*
X142941200Y-105094200D01*
D19*
X114502500Y-120173800D02*
X114602500Y-120340500D01*
D16*
X157665200Y-93386400D02*
X157704900Y-93346700D01*
D18*
X114680700Y-81179800D02*
X114680700Y-81331000D01*
X114775100Y-92936800D02*
X114964000Y-92861300D01*
D16*
X125042100Y-120691400D02*
X124962700Y-120612000D01*
X157427100Y-110888500D02*
X157744600Y-110571000D01*
X124962700Y-120612000D02*
X124962700Y-109697900D01*
X162110200Y-102395400D02*
X162110200Y-99855400D01*
X144885900Y-102951000D02*
X144965200Y-102871700D01*
D18*
X114964000Y-81557600D02*
X115436200Y-81557600D01*
X115341800Y-81331000D02*
X115341800Y-81179800D01*
X115247300Y-84164400D02*
X114680700Y-83786600D01*
D16*
X125518300Y-110928200D02*
X125518300Y-119977000D01*
X158339900Y-115770100D02*
X158339900Y-114023800D01*
X159530500Y-112079200D02*
X158300200Y-113309500D01*
D18*
X116191800Y-86914800D02*
X114680700Y-86914800D01*
D16*
X178699600Y-122080400D02*
X178104300Y-122675700D01*
X168777700Y-101681000D02*
X175405500Y-101681000D01*
X160879900Y-114023800D02*
X160959300Y-113944500D01*
X155760200Y-104419500D02*
X154728300Y-103387600D01*
D19*
X115469300Y-120173800D02*
X115569300Y-120340500D01*
D17*
X151196200Y-108269200D02*
X153894900Y-108269200D01*
D16*
X146394000Y-97236000D02*
X146711500Y-97553500D01*
D17*
X129883900Y-125414200D02*
X129883900Y-134939200D01*
D16*
X134209900Y-117595700D02*
X135043300Y-117595700D01*
X127701200Y-88941400D02*
X127701200Y-85766400D01*
X147465500Y-115690700D02*
X132939900Y-115690700D01*
D18*
X114680700Y-91274500D02*
X114680700Y-90670100D01*
D16*
X137186500Y-118111700D02*
X136749900Y-118548200D01*
D18*
X114680700Y-87557000D02*
X114775100Y-87405900D01*
D16*
X161514900Y-83940700D02*
X161514900Y-89219200D01*
X138059600Y-109975700D02*
X140202700Y-112118800D01*
X129090200Y-114539800D02*
X129090200Y-116682900D01*
D18*
X114680700Y-86914800D02*
X114680700Y-86385900D01*
D16*
X177826500Y-110848800D02*
X177866200Y-110809200D01*
D17*
X110833900Y-125414200D02*
X110833900Y-134939200D01*
D16*
X137504000Y-94061000D02*
X140679000Y-94061000D01*
X131630200Y-100688800D02*
X131669900Y-100649200D01*
X143179300Y-104856000D02*
X146949600Y-104856000D01*
X177112100Y-123826700D02*
X177112100Y-126247600D01*
D17*
X136472100Y-84178800D02*
X136511800Y-84218500D01*
D16*
X165721800Y-122715400D02*
X165721800Y-122794800D01*
X164054900Y-92552900D02*
X164054900Y-94775400D01*
X153021800Y-126366700D02*
X153061500Y-126406400D01*
X157863700Y-108943800D02*
X157943000Y-108864500D01*
X126193000Y-97355100D02*
X126272400Y-97355100D01*
X174691200Y-123548800D02*
X176080200Y-124937900D01*
X150759600Y-111166400D02*
X151394600Y-111166400D01*
X146116200Y-110848800D02*
X146155900Y-110809200D01*
D19*
X115769300Y-120373800D02*
X115969300Y-120340500D01*
D16*
X162824600Y-83782000D02*
X164610500Y-83782000D01*
X139131200Y-118667300D02*
X164293000Y-118667300D01*
X134646500Y-119619800D02*
X139686800Y-119619800D01*
X142266500Y-119857900D02*
X148299000Y-119857900D01*
X172508300Y-103586000D02*
X178540900Y-103586000D01*
X125518300Y-119977000D02*
X125756500Y-120215100D01*
X155482400Y-111285400D02*
X158657400Y-111285400D01*
D17*
X183581200Y-123985400D02*
X183581200Y-111325100D01*
X181160100Y-125414200D02*
X181160100Y-134939200D01*
D19*
X115102500Y-120173800D02*
X115102500Y-119840500D01*
D16*
X141075900Y-86441000D02*
X140996500Y-86520400D01*
D17*
X109921200Y-124382300D02*
X109841800Y-124461700D01*
D18*
X115530700Y-81973200D02*
X115908500Y-81973200D01*
D16*
X155760200Y-106562600D02*
X155601500Y-106403800D01*
X168261800Y-120016700D02*
X170325500Y-120016700D01*
D18*
X115436200Y-85970300D02*
X115436200Y-85441400D01*
D16*
X139964600Y-114658800D02*
X139409000Y-114103200D01*
D17*
X128931400Y-125414200D02*
X128931400Y-134939200D01*
D16*
X165285200Y-82035700D02*
X165285200Y-86877600D01*
X179136200Y-123469500D02*
X179533000Y-123072600D01*
D18*
X116191800Y-87934800D02*
X114680700Y-87934800D01*
D17*
X143814300Y-109618500D02*
X145084300Y-108348500D01*
D16*
X142941200Y-105094200D02*
X143179300Y-104856000D01*
D18*
X114680700Y-93465700D02*
X114680700Y-93087900D01*
X115625100Y-87405900D02*
X115814000Y-87330400D01*
X116097300Y-82048700D02*
X116191800Y-82199800D01*
X115908500Y-80953200D02*
X116097300Y-81028700D01*
D16*
X153418700Y-112118800D02*
X153498000Y-112039500D01*
X152347100Y-78424200D02*
X152545500Y-78225700D01*
X156633300Y-105848200D02*
X154172700Y-105848200D01*
D17*
X112818300Y-125414200D02*
X112818300Y-134939200D01*
D16*
X138258000Y-118945100D02*
X138853300Y-118945100D01*
D17*
X162110100Y-125414200D02*
X162110100Y-134939200D01*
D16*
X157585900Y-97315400D02*
X160681500Y-97315400D01*
X179493300Y-104697300D02*
X179533000Y-104737000D01*
D18*
X115436200Y-87557000D02*
X115436200Y-87934800D01*
D16*
X149529300Y-100252300D02*
X130399900Y-100252300D01*
X156395200Y-96045400D02*
X156395200Y-94854800D01*
X165721800Y-122794800D02*
X164015200Y-124501400D01*
D19*
X117689300Y-119540500D02*
X118189300Y-119040500D01*
D16*
X170484300Y-104459200D02*
X172270200Y-102673200D01*
D17*
X126907300Y-125414200D02*
X126907300Y-134939200D01*
D16*
X144012700Y-80011700D02*
X144012700Y-77273200D01*
X130360200Y-112079200D02*
X130360200Y-111285400D01*
X134209900Y-106284800D02*
X137662700Y-106284800D01*
X131947700Y-93584800D02*
X131947700Y-93624500D01*
X154728300Y-112039500D02*
X155482400Y-111285400D01*
X172984600Y-104141700D02*
X174492700Y-104141700D01*
D18*
X114680700Y-92067900D02*
X116191800Y-91690200D01*
X115341800Y-82048700D02*
X115530700Y-81973200D01*
D17*
X116906100Y-125414200D02*
X116906100Y-134939200D01*
D16*
X141353700Y-105808500D02*
X143933300Y-105808500D01*
D18*
X115625100Y-92294600D02*
X115625100Y-91841300D01*
D17*
X179136100Y-125414200D02*
X179136100Y-134939200D01*
X131907900Y-125414200D02*
X131907900Y-134939200D01*
D16*
X157704900Y-94815100D02*
X157665200Y-94854800D01*
X156434900Y-110055100D02*
X163777100Y-110055100D01*
X161514900Y-95132600D02*
X161435500Y-95212000D01*
X146592400Y-88187300D02*
X158895500Y-88187300D01*
X158339900Y-125334800D02*
X157982700Y-125692000D01*
X155482400Y-97950400D02*
X156950900Y-97950400D01*
D19*
X113635900Y-119790500D02*
X113635900Y-120373800D01*
D16*
X155760200Y-102474800D02*
X155879300Y-102593800D01*
D18*
X165702700Y-78659300D02*
X165702700Y-80170400D01*
D16*
X157308000Y-104419500D02*
X155760200Y-104419500D01*
X125597700Y-110848800D02*
X125518300Y-110928200D01*
D17*
X145044600Y-125493500D02*
X145044600Y-121643800D01*
D19*
X119722700Y-119040500D02*
X119922700Y-119040500D01*
D18*
X114680700Y-93087900D02*
X114775100Y-92936800D01*
D16*
X146711500Y-97553500D02*
X155085500Y-97553500D01*
D17*
X168777700Y-109578800D02*
X178342400Y-109578800D01*
D16*
X139051800Y-84893200D02*
X139012100Y-84853500D01*
X165682100Y-120532600D02*
X165721800Y-120572300D01*
D18*
X115247300Y-82199800D02*
X115341800Y-82048700D01*
D16*
X164610500Y-83782000D02*
X164650200Y-83821700D01*
D18*
X115814000Y-87330400D02*
X116191800Y-87330400D01*
D16*
X151196200Y-116524200D02*
X153775900Y-113944500D01*
D19*
X115969300Y-120340500D02*
X116069300Y-120173800D01*
D16*
X160205200Y-94934200D02*
X160284600Y-95013500D01*
X136749900Y-113468200D02*
X136670500Y-113547600D01*
X147664000Y-82035700D02*
X165285200Y-82035700D01*
X158300200Y-115809800D02*
X158339900Y-115770100D01*
X168341200Y-106999200D02*
X170127100Y-106999200D01*
X163419900Y-80884800D02*
X137781800Y-80884800D01*
D17*
X135837100Y-125731700D02*
X135876800Y-125771400D01*
D16*
X153894900Y-110888500D02*
X153974300Y-110809200D01*
X148259300Y-111960100D02*
X149489600Y-110729800D01*
D18*
X115908500Y-81973200D02*
X116097300Y-82048700D01*
D17*
X153894900Y-108269200D02*
X153894900Y-107118200D01*
D16*
X139091500Y-95886700D02*
X142107700Y-95886700D01*
X129884000Y-92791000D02*
X135003700Y-92791000D01*
D19*
X116822700Y-119540500D02*
X117322700Y-119040500D01*
D16*
X143933300Y-105808500D02*
X143973000Y-105768800D01*
X153894900Y-126128500D02*
X154014000Y-126247600D01*
D18*
X116191800Y-90254500D02*
X114680700Y-90254500D01*
D16*
X129844300Y-87671400D02*
X129764900Y-87750700D01*
X161713300Y-111087000D02*
X161753000Y-111047300D01*
D17*
X133932100Y-98585400D02*
X133932100Y-97355100D01*
D16*
X168023700Y-110848800D02*
X177826500Y-110848800D01*
X149013300Y-89219200D02*
X147664000Y-90568500D01*
X142980900Y-88306400D02*
X143020500Y-88346000D01*
X167825200Y-108269200D02*
X178659900Y-108269200D01*
X157704900Y-85369500D02*
X157704900Y-87552300D01*
X180564900Y-120492900D02*
X180604600Y-120532600D01*
X171198700Y-123985400D02*
X171198700Y-126446000D01*
D17*
X155164900Y-83027900D02*
X155164900Y-84655100D01*
D16*
X154212400Y-115809800D02*
X158300200Y-115809800D01*
D17*
X140917000Y-125414200D02*
X140917000Y-134939200D01*
X166634600Y-94735700D02*
X170682700Y-94735700D01*
D19*
X115002500Y-120340500D02*
X115102500Y-120173800D01*
X117322700Y-119040500D02*
X117322700Y-120373800D01*
D17*
X135876700Y-125414200D02*
X135876700Y-134939200D01*
D16*
X149370500Y-90528800D02*
X150045200Y-89854200D01*
X130439600Y-84456700D02*
X131392100Y-84456700D01*
X139607400Y-110253500D02*
X144885900Y-110253500D01*
X135479900Y-105372000D02*
X135479900Y-102633500D01*
X155045900Y-123707600D02*
X155045900Y-126247600D01*
X160205200Y-91917900D02*
X160205200Y-94934200D01*
D17*
X133892400Y-98545700D02*
X133932100Y-98585400D01*
D16*
X139051800Y-86083800D02*
X139051800Y-84893200D01*
X171198700Y-126446000D02*
X171119300Y-126525400D01*
X163380200Y-116643200D02*
X163380200Y-118032300D01*
D17*
X178143900Y-125414200D02*
X178143900Y-134939200D01*
D16*
X147941800Y-88663500D02*
X146949600Y-89655700D01*
X135003700Y-92791000D02*
X136472100Y-94259500D01*
X157149300Y-104498800D02*
X157149300Y-102435100D01*
X152029600Y-108943800D02*
X157863700Y-108943800D01*
D19*
X113635900Y-119757200D02*
X113835900Y-119623800D01*
X119922700Y-120373800D02*
X119722700Y-120373800D01*
D16*
X131392100Y-95370700D02*
X131471500Y-95450100D01*
X180961800Y-90290700D02*
X151156500Y-90290700D01*
D19*
X115569300Y-120340500D02*
X115769300Y-120373800D01*
D16*
X144092100Y-113984200D02*
X147703700Y-113984200D01*
X149251500Y-116087600D02*
X150521500Y-114817600D01*
X159609900Y-106602300D02*
X159609900Y-102673200D01*
X141909300Y-120215100D02*
X142266500Y-119857900D01*
X127582100Y-99498200D02*
X127383700Y-99696700D01*
X136749900Y-112079200D02*
X136749900Y-113468200D01*
X161951500Y-97355100D02*
X167388700Y-97355100D01*
D17*
X122700500Y-98545700D02*
X133892400Y-98545700D01*
D19*
X120122700Y-120290500D02*
X119922700Y-120373800D01*
D16*
X128296500Y-91521000D02*
X128971200Y-91521000D01*
D17*
X141988700Y-109618500D02*
X143814300Y-109618500D01*
D16*
X172270200Y-102673200D02*
X177112100Y-102673200D01*
X125756500Y-120215100D02*
X141909300Y-120215100D01*
X142822100Y-89576400D02*
X149688000Y-96442300D01*
X124962700Y-109697900D02*
X125081800Y-109578800D01*
D19*
X115469300Y-119840500D02*
X115469300Y-120173800D01*
D16*
X140679000Y-94061000D02*
X140758300Y-93981700D01*
X142107700Y-95886700D02*
X142147400Y-95926400D01*
D19*
X113535900Y-119673800D02*
X113635900Y-119790500D01*
D16*
X158339900Y-114023800D02*
X158419300Y-113944500D01*
D17*
X111826100Y-125414200D02*
X111826100Y-134939200D01*
D16*
X137662700Y-106284800D02*
X138853300Y-105094200D01*
X163380200Y-114658800D02*
X163380200Y-116682900D01*
X159490900Y-116325700D02*
X159490900Y-114500100D01*
D18*
X114680700Y-82993200D02*
X116191800Y-82993200D01*
D17*
X121152700Y-108348500D02*
X110714900Y-118786400D01*
D16*
X137781800Y-84694800D02*
X137821500Y-84734500D01*
X166039300Y-102514500D02*
X167944300Y-102514500D01*
D18*
X115341800Y-82577600D02*
X115341800Y-82502100D01*
D16*
X149370500Y-90568500D02*
X149370500Y-90528800D01*
D18*
X116097300Y-81028700D02*
X116191800Y-81179800D01*
D16*
X151394600Y-111166400D02*
X152307400Y-110253500D01*
X172071800Y-119064200D02*
X173064000Y-118072000D01*
D19*
X115002500Y-119673800D02*
X114802500Y-119623800D01*
D16*
X157109600Y-113507900D02*
X157069900Y-113547600D01*
D17*
X145044600Y-121643800D02*
X145004900Y-121604200D01*
D16*
X150084900Y-116484500D02*
X130479300Y-116484500D01*
X162784900Y-89814500D02*
X162784900Y-83821700D01*
D18*
X114680700Y-83786600D02*
X116191800Y-83786600D01*
D19*
X113135900Y-119757200D02*
X113335900Y-119623800D01*
D16*
X174095900Y-125890400D02*
X174095900Y-124342600D01*
X125081800Y-109578800D02*
X127105900Y-109578800D01*
X154490200Y-113349200D02*
X153220200Y-113349200D01*
%TD*%
M02*
