%TF.GenerationSoftware,KiCad,Pcbnew,(6.0.2)*%
%TF.CreationDate,2022-05-14T16:30:45-05:00*%
%TF.ProjectId,REF1156 Mod 1110,52454631-3135-4362-904d-6f6420313131,rev?*%
%TF.SameCoordinates,Original*%
%TF.FileFunction,Copper,L2,Bot*%
%TF.FilePolarity,Positive*%
%FSLAX46Y46*%
G04 Gerber Fmt 4.6, Leading zero omitted, Abs format (unit mm)*
G04 Created by KiCad (PCBNEW (6.0.2)) date 2022-05-14 16:30:45*
%MOMM*%
%LPD*%
G01*
G04 APERTURE LIST*
%TA.AperFunction,NonConductor*%
%ADD10C,0.500000*%
%TD*%
%TA.AperFunction,NonConductor*%
%ADD11C,0.300000*%
%TD*%
%TA.AperFunction,NonConductor*%
%ADD12C,0.000000*%
%TD*%
%TA.AperFunction,NonConductor*%
%ADD13C,0.200000*%
%TD*%
%TA.AperFunction,NonConductor*%
%ADD14C,2.100000*%
%TD*%
%TA.AperFunction,ViaPad*%
%ADD15C,0.600010*%
%TD*%
%TA.AperFunction,ViaPad*%
%ADD16C,4.200010*%
%TD*%
%TA.AperFunction,Conductor*%
%ADD17C,0.640000*%
%TD*%
%TA.AperFunction,Conductor*%
%ADD18C,0.250000*%
%TD*%
%TA.AperFunction,Conductor*%
%ADD19C,0.750000*%
%TD*%
%TA.AperFunction,Conductor*%
%ADD20C,1.230000*%
%TD*%
G04 APERTURE END LIST*
D10*
X178830500Y-103546400D02*
G75*
G03*
X178830500Y-103546400I-250000J0D01*
G01*
D11*
X145194600Y-108269200D02*
G75*
G03*
X145194600Y-108269200I-150000J0D01*
G01*
D10*
X149779300Y-91838500D02*
G75*
G03*
X149779300Y-91838500I-250000J0D01*
G01*
D11*
X140392400Y-97434500D02*
G75*
G03*
X140392400Y-97434500I-150000J0D01*
G01*
D10*
X144262700Y-113984200D02*
G75*
G03*
X144262700Y-113984200I-250000J0D01*
G01*
X175457100Y-101641400D02*
G75*
G03*
X175457100Y-101641400I-250000J0D01*
G01*
X165932100Y-120492900D02*
G75*
G03*
X165932100Y-120492900I-250000J0D01*
G01*
X161169600Y-108666000D02*
G75*
G03*
X161169600Y-108666000I-250000J0D01*
G01*
D11*
X138368300Y-118905400D02*
G75*
G03*
X138368300Y-118905400I-150000J0D01*
G01*
D10*
X146961500Y-112079200D02*
G75*
G03*
X146961500Y-112079200I-250000J0D01*
G01*
D12*
G36*
X135279000Y-78920400D02*
G01*
X133379000Y-78920400D01*
X133379000Y-73800400D01*
X135279000Y-73800400D01*
X135279000Y-78920400D01*
G37*
D11*
X158450200Y-122675700D02*
G75*
G03*
X158450200Y-122675700I-150000J0D01*
G01*
D10*
X151446200Y-94656400D02*
G75*
G03*
X151446200Y-94656400I-250000J0D01*
G01*
X135650500Y-118389500D02*
G75*
G03*
X135650500Y-118389500I-250000J0D01*
G01*
X157280200Y-119857900D02*
G75*
G03*
X157280200Y-119857900I-250000J0D01*
G01*
D13*
X180870300Y-108451600D02*
X181805300Y-109390600D01*
D11*
X148369600Y-111960100D02*
G75*
G03*
X148369600Y-111960100I-150000J0D01*
G01*
X130549900Y-84417000D02*
G75*
G03*
X130549900Y-84417000I-150000J0D01*
G01*
D10*
X156645200Y-110015400D02*
G75*
G03*
X156645200Y-110015400I-250000J0D01*
G01*
X181648300Y-119302300D02*
G75*
G03*
X181648300Y-119302300I-250000J0D01*
G01*
X132118300Y-122755100D02*
G75*
G03*
X132118300Y-122755100I-250000J0D01*
G01*
D11*
X131462700Y-87671400D02*
G75*
G03*
X131462700Y-87671400I-150000J0D01*
G01*
D10*
X144421500Y-86877600D02*
G75*
G03*
X144421500Y-86877600I-250000J0D01*
G01*
X163034900Y-92672000D02*
G75*
G03*
X163034900Y-92672000I-250000J0D01*
G01*
D11*
X144043700Y-105729200D02*
G75*
G03*
X144043700Y-105729200I-150000J0D01*
G01*
D10*
X161050500Y-124342600D02*
G75*
G03*
X161050500Y-124342600I-250000J0D01*
G01*
X130649900Y-109975700D02*
G75*
G03*
X130649900Y-109975700I-250000J0D01*
G01*
X126522400Y-119262600D02*
G75*
G03*
X126522400Y-119262600I-250000J0D01*
G01*
X149501500Y-90489200D02*
G75*
G03*
X149501500Y-90489200I-250000J0D01*
G01*
D11*
X136860200Y-118587900D02*
G75*
G03*
X136860200Y-118587900I-150000J0D01*
G01*
D12*
G36*
X137938000Y-78920400D02*
G01*
X136038000Y-78920400D01*
X136038000Y-73800400D01*
X137938000Y-73800400D01*
X137938000Y-78920400D01*
G37*
D10*
X163669900Y-105213200D02*
G75*
G03*
X163669900Y-105213200I-250000J0D01*
G01*
D11*
X140789300Y-83067600D02*
G75*
G03*
X140789300Y-83067600I-150000J0D01*
G01*
D10*
X148469600Y-111960100D02*
G75*
G03*
X148469600Y-111960100I-250000J0D01*
G01*
X149223700Y-115135100D02*
G75*
G03*
X149223700Y-115135100I-250000J0D01*
G01*
D11*
X144083300Y-120612000D02*
G75*
G03*
X144083300Y-120612000I-150000J0D01*
G01*
D10*
X157915200Y-86798200D02*
G75*
G03*
X157915200Y-86798200I-250000J0D01*
G01*
D11*
X130549900Y-109975700D02*
G75*
G03*
X130549900Y-109975700I-150000J0D01*
G01*
D10*
X156089600Y-122953500D02*
G75*
G03*
X156089600Y-122953500I-250000J0D01*
G01*
D11*
X149719000Y-79852900D02*
G75*
G03*
X149719000Y-79852900I-150000J0D01*
G01*
D10*
X158550200Y-122675700D02*
G75*
G03*
X158550200Y-122675700I-250000J0D01*
G01*
D11*
X171745500Y-98585400D02*
G75*
G03*
X171745500Y-98585400I-150000J0D01*
G01*
X138050900Y-121604200D02*
G75*
G03*
X138050900Y-121604200I-150000J0D01*
G01*
X138884300Y-91481400D02*
G75*
G03*
X138884300Y-91481400I-150000J0D01*
G01*
X164244600Y-92632300D02*
G75*
G03*
X164244600Y-92632300I-150000J0D01*
G01*
X178770200Y-122040700D02*
G75*
G03*
X178770200Y-122040700I-150000J0D01*
G01*
D10*
X138230200Y-112079200D02*
G75*
G03*
X138230200Y-112079200I-250000J0D01*
G01*
D11*
X157219900Y-91124200D02*
G75*
G03*
X157219900Y-91124200I-150000J0D01*
G01*
D10*
X143191200Y-114658800D02*
G75*
G03*
X143191200Y-114658800I-250000J0D01*
G01*
D11*
X154640200Y-92592600D02*
G75*
G03*
X154640200Y-92592600I-150000J0D01*
G01*
X149401500Y-90489200D02*
G75*
G03*
X149401500Y-90489200I-150000J0D01*
G01*
D10*
X127792400Y-99498200D02*
G75*
G03*
X127792400Y-99498200I-250000J0D01*
G01*
X134420200Y-106245100D02*
G75*
G03*
X134420200Y-106245100I-250000J0D01*
G01*
X180894300Y-120532600D02*
G75*
G03*
X180894300Y-120532600I-250000J0D01*
G01*
D12*
G36*
X154646500Y-78920400D02*
G01*
X152746500Y-78920400D01*
X152746500Y-73800400D01*
X154646500Y-73800400D01*
X154646500Y-78920400D01*
G37*
D11*
X163569900Y-105213200D02*
G75*
G03*
X163569900Y-105213200I-150000J0D01*
G01*
D10*
X140889300Y-83067600D02*
G75*
G03*
X140889300Y-83067600I-250000J0D01*
G01*
X152398700Y-95489800D02*
G75*
G03*
X152398700Y-95489800I-250000J0D01*
G01*
D11*
X152497100Y-79852900D02*
G75*
G03*
X152497100Y-79852900I-150000J0D01*
G01*
D10*
X153470200Y-93386400D02*
G75*
G03*
X153470200Y-93386400I-250000J0D01*
G01*
D11*
X146266200Y-88584200D02*
G75*
G03*
X146266200Y-88584200I-150000J0D01*
G01*
D10*
X146445500Y-110848800D02*
G75*
G03*
X146445500Y-110848800I-250000J0D01*
G01*
X161169600Y-116008200D02*
G75*
G03*
X161169600Y-116008200I-250000J0D01*
G01*
X127752700Y-91124200D02*
G75*
G03*
X127752700Y-91124200I-250000J0D01*
G01*
D11*
X149679300Y-91838500D02*
G75*
G03*
X149679300Y-91838500I-150000J0D01*
G01*
D10*
X135729900Y-112118800D02*
G75*
G03*
X135729900Y-112118800I-250000J0D01*
G01*
X154383000Y-114738200D02*
G75*
G03*
X154383000Y-114738200I-250000J0D01*
G01*
D11*
X134320200Y-117516400D02*
G75*
G03*
X134320200Y-117516400I-150000J0D01*
G01*
D12*
G36*
X132342100Y-78920400D02*
G01*
X130442100Y-78920400D01*
X130442100Y-73800400D01*
X132342100Y-73800400D01*
X132342100Y-78920400D01*
G37*
D10*
X164146200Y-117159200D02*
G75*
G03*
X164146200Y-117159200I-250000J0D01*
G01*
X160494900Y-88425400D02*
G75*
G03*
X160494900Y-88425400I-250000J0D01*
G01*
X126998700Y-122794800D02*
G75*
G03*
X126998700Y-122794800I-250000J0D01*
G01*
D11*
X180437100Y-109936000D02*
G75*
G03*
X180437100Y-109936000I-150000J0D01*
G01*
X155989600Y-122953500D02*
G75*
G03*
X155989600Y-122953500I-150000J0D01*
G01*
X136899900Y-112079200D02*
G75*
G03*
X136899900Y-112079200I-150000J0D01*
G01*
D10*
X145294600Y-87790400D02*
G75*
G03*
X145294600Y-87790400I-250000J0D01*
G01*
D11*
X153370200Y-93386400D02*
G75*
G03*
X153370200Y-93386400I-150000J0D01*
G01*
D10*
X139420900Y-123469500D02*
G75*
G03*
X139420900Y-123469500I-250000J0D01*
G01*
X167678300Y-97315400D02*
G75*
G03*
X167678300Y-97315400I-250000J0D01*
G01*
X126482700Y-97196400D02*
G75*
G03*
X126482700Y-97196400I-250000J0D01*
G01*
X171369300Y-124025100D02*
G75*
G03*
X171369300Y-124025100I-250000J0D01*
G01*
D11*
X136860200Y-107435700D02*
G75*
G03*
X136860200Y-107435700I-150000J0D01*
G01*
D10*
X144342100Y-79932300D02*
G75*
G03*
X144342100Y-79932300I-250000J0D01*
G01*
D11*
X173174300Y-119342000D02*
G75*
G03*
X173174300Y-119342000I-150000J0D01*
G01*
D10*
X178076500Y-110809200D02*
G75*
G03*
X178076500Y-110809200I-250000J0D01*
G01*
D11*
X171269300Y-124025100D02*
G75*
G03*
X171269300Y-124025100I-150000J0D01*
G01*
D13*
X181800300Y-111975600D02*
X181803300Y-109377600D01*
D12*
G36*
X163099900Y-78920400D02*
G01*
X161199900Y-78920400D01*
X161199900Y-73800400D01*
X163099900Y-73800400D01*
X163099900Y-78920400D01*
G37*
D10*
X142437100Y-95847000D02*
G75*
G03*
X142437100Y-95847000I-250000J0D01*
G01*
X159859900Y-106522900D02*
G75*
G03*
X159859900Y-106522900I-250000J0D01*
G01*
X162201500Y-97315400D02*
G75*
G03*
X162201500Y-97315400I-250000J0D01*
G01*
D11*
X164839900Y-118072000D02*
G75*
G03*
X164839900Y-118072000I-150000J0D01*
G01*
X135431500Y-86560100D02*
G75*
G03*
X135431500Y-86560100I-150000J0D01*
G01*
D10*
X147953700Y-113984200D02*
G75*
G03*
X147953700Y-113984200I-250000J0D01*
G01*
D11*
X134320200Y-106245100D02*
G75*
G03*
X134320200Y-106245100I-150000J0D01*
G01*
D10*
X173234600Y-118111700D02*
G75*
G03*
X173234600Y-118111700I-250000J0D01*
G01*
D11*
X153211500Y-123231400D02*
G75*
G03*
X153211500Y-123231400I-150000J0D01*
G01*
D10*
X151446200Y-116444800D02*
G75*
G03*
X151446200Y-116444800I-250000J0D01*
G01*
D11*
X132018300Y-122755100D02*
G75*
G03*
X132018300Y-122755100I-150000J0D01*
G01*
D10*
X140492400Y-97434500D02*
G75*
G03*
X140492400Y-97434500I-250000J0D01*
G01*
D11*
X162299900Y-117317900D02*
G75*
G03*
X162299900Y-117317900I-150000J0D01*
G01*
D10*
X157319900Y-91124200D02*
G75*
G03*
X157319900Y-91124200I-250000J0D01*
G01*
X175734900Y-113984200D02*
G75*
G03*
X175734900Y-113984200I-250000J0D01*
G01*
D11*
X142337100Y-95847000D02*
G75*
G03*
X142337100Y-95847000I-150000J0D01*
G01*
X163649300Y-82908800D02*
G75*
G03*
X163649300Y-82908800I-150000J0D01*
G01*
D10*
X136325200Y-98744200D02*
G75*
G03*
X136325200Y-98744200I-250000J0D01*
G01*
X160891800Y-79654500D02*
G75*
G03*
X160891800Y-79654500I-250000J0D01*
G01*
X136126800Y-124223500D02*
G75*
G03*
X136126800Y-124223500I-250000J0D01*
G01*
D11*
X136026800Y-124223500D02*
G75*
G03*
X136026800Y-124223500I-150000J0D01*
G01*
X174761800Y-123548800D02*
G75*
G03*
X174761800Y-123548800I-150000J0D01*
G01*
D10*
X132277100Y-89576400D02*
G75*
G03*
X132277100Y-89576400I-250000J0D01*
G01*
D11*
X173134600Y-120532600D02*
G75*
G03*
X173134600Y-120532600I-150000J0D01*
G01*
X125152400Y-105729200D02*
G75*
G03*
X125152400Y-105729200I-150000J0D01*
G01*
X136225200Y-98744200D02*
G75*
G03*
X136225200Y-98744200I-150000J0D01*
G01*
X159244000Y-124223500D02*
G75*
G03*
X159244000Y-124223500I-150000J0D01*
G01*
X143130900Y-119897600D02*
G75*
G03*
X143130900Y-119897600I-150000J0D01*
G01*
D10*
X134420200Y-117516400D02*
G75*
G03*
X134420200Y-117516400I-250000J0D01*
G01*
X125252400Y-92156000D02*
G75*
G03*
X125252400Y-92156000I-250000J0D01*
G01*
X164066800Y-110094800D02*
G75*
G03*
X164066800Y-110094800I-250000J0D01*
G01*
D11*
X127652700Y-91124200D02*
G75*
G03*
X127652700Y-91124200I-150000J0D01*
G01*
X156545200Y-86679200D02*
G75*
G03*
X156545200Y-86679200I-150000J0D01*
G01*
D10*
X178870200Y-122040700D02*
G75*
G03*
X178870200Y-122040700I-250000J0D01*
G01*
D11*
X172063000Y-123072600D02*
G75*
G03*
X172063000Y-123072600I-150000J0D01*
G01*
D10*
X162042700Y-111126700D02*
G75*
G03*
X162042700Y-111126700I-250000J0D01*
G01*
X141325900Y-85210700D02*
G75*
G03*
X141325900Y-85210700I-250000J0D01*
G01*
D11*
X141503700Y-80011700D02*
G75*
G03*
X141503700Y-80011700I-150000J0D01*
G01*
X155275200Y-79773500D02*
G75*
G03*
X155275200Y-79773500I-150000J0D01*
G01*
D10*
X156645200Y-86679200D02*
G75*
G03*
X156645200Y-86679200I-250000J0D01*
G01*
D11*
X177976500Y-110809200D02*
G75*
G03*
X177976500Y-110809200I-150000J0D01*
G01*
D10*
X151406500Y-119857900D02*
G75*
G03*
X151406500Y-119857900I-250000J0D01*
G01*
D11*
X144321500Y-86877600D02*
G75*
G03*
X144321500Y-86877600I-150000J0D01*
G01*
X122850500Y-113468200D02*
G75*
G03*
X122850500Y-113468200I-150000J0D01*
G01*
D10*
X165813000Y-87036400D02*
G75*
G03*
X165813000Y-87036400I-250000J0D01*
G01*
D11*
X151346200Y-116444800D02*
G75*
G03*
X151346200Y-116444800I-150000J0D01*
G01*
D10*
X137079300Y-87353800D02*
G75*
G03*
X137079300Y-87353800I-250000J0D01*
G01*
D11*
X156029300Y-124263200D02*
G75*
G03*
X156029300Y-124263200I-150000J0D01*
G01*
X143924600Y-106999200D02*
G75*
G03*
X143924600Y-106999200I-150000J0D01*
G01*
D10*
X137119000Y-123588500D02*
G75*
G03*
X137119000Y-123588500I-250000J0D01*
G01*
X138984300Y-91481400D02*
G75*
G03*
X138984300Y-91481400I-250000J0D01*
G01*
X150771500Y-114777900D02*
G75*
G03*
X150771500Y-114777900I-250000J0D01*
G01*
D11*
X170197700Y-121683500D02*
G75*
G03*
X170197700Y-121683500I-150000J0D01*
G01*
X155632400Y-100807900D02*
G75*
G03*
X155632400Y-100807900I-150000J0D01*
G01*
X161942700Y-111126700D02*
G75*
G03*
X161942700Y-111126700I-150000J0D01*
G01*
D10*
X129697400Y-95132600D02*
G75*
G03*
X129697400Y-95132600I-250000J0D01*
G01*
X158074000Y-108745400D02*
G75*
G03*
X158074000Y-108745400I-250000J0D01*
G01*
X143230900Y-88306400D02*
G75*
G03*
X143230900Y-88306400I-250000J0D01*
G01*
D11*
X181072100Y-90290700D02*
G75*
G03*
X181072100Y-90290700I-150000J0D01*
G01*
D10*
X155375200Y-79773500D02*
G75*
G03*
X155375200Y-79773500I-250000J0D01*
G01*
X144024600Y-106999200D02*
G75*
G03*
X144024600Y-106999200I-250000J0D01*
G01*
X135531500Y-86560100D02*
G75*
G03*
X135531500Y-86560100I-250000J0D01*
G01*
X163154000Y-108666000D02*
G75*
G03*
X163154000Y-108666000I-250000J0D01*
G01*
X168630900Y-119977000D02*
G75*
G03*
X168630900Y-119977000I-250000J0D01*
G01*
D11*
X125152400Y-92156000D02*
G75*
G03*
X125152400Y-92156000I-150000J0D01*
G01*
D10*
X156724600Y-105887900D02*
G75*
G03*
X156724600Y-105887900I-250000J0D01*
G01*
X144342100Y-101919200D02*
G75*
G03*
X144342100Y-101919200I-250000J0D01*
G01*
D12*
G36*
X151789000Y-78920400D02*
G01*
X149889000Y-78920400D01*
X149889000Y-73800400D01*
X151789000Y-73800400D01*
X151789000Y-78920400D01*
G37*
D10*
X136999900Y-105530700D02*
G75*
G03*
X136999900Y-105530700I-250000J0D01*
G01*
X136960200Y-107435700D02*
G75*
G03*
X136960200Y-107435700I-250000J0D01*
G01*
D11*
X165832100Y-120492900D02*
G75*
G03*
X165832100Y-120492900I-150000J0D01*
G01*
X121898000Y-122755100D02*
G75*
G03*
X121898000Y-122755100I-150000J0D01*
G01*
X126422400Y-119262600D02*
G75*
G03*
X126422400Y-119262600I-150000J0D01*
G01*
X143607100Y-122675700D02*
G75*
G03*
X143607100Y-122675700I-150000J0D01*
G01*
D10*
X145254900Y-102951000D02*
G75*
G03*
X145254900Y-102951000I-250000J0D01*
G01*
X158193000Y-79773500D02*
G75*
G03*
X158193000Y-79773500I-250000J0D01*
G01*
X138150900Y-121604200D02*
G75*
G03*
X138150900Y-121604200I-250000J0D01*
G01*
X151565200Y-98466400D02*
G75*
G03*
X151565200Y-98466400I-250000J0D01*
G01*
X122950500Y-113468200D02*
G75*
G03*
X122950500Y-113468200I-250000J0D01*
G01*
X134420200Y-112039500D02*
G75*
G03*
X134420200Y-112039500I-250000J0D01*
G01*
D11*
X170832700Y-94735700D02*
G75*
G03*
X170832700Y-94735700I-150000J0D01*
G01*
X158728000Y-111325100D02*
G75*
G03*
X158728000Y-111325100I-150000J0D01*
G01*
D10*
X137952400Y-92791000D02*
G75*
G03*
X137952400Y-92791000I-250000J0D01*
G01*
D11*
X173134600Y-118111700D02*
G75*
G03*
X173134600Y-118111700I-150000J0D01*
G01*
X181548300Y-119302300D02*
G75*
G03*
X181548300Y-119302300I-150000J0D01*
G01*
D10*
X174861800Y-123548800D02*
G75*
G03*
X174861800Y-123548800I-250000J0D01*
G01*
X142238700Y-122675700D02*
G75*
G03*
X142238700Y-122675700I-250000J0D01*
G01*
D14*
X118789600Y-105252900D02*
G75*
G03*
X118789600Y-105252900I-1050000J0D01*
G01*
D12*
G36*
X143534000Y-78920400D02*
G01*
X141634000Y-78920400D01*
X141634000Y-73800400D01*
X143534000Y-73800400D01*
X143534000Y-78920400D01*
G37*
D10*
X164344600Y-92632300D02*
G75*
G03*
X164344600Y-92632300I-250000J0D01*
G01*
X181291200Y-123985400D02*
G75*
G03*
X181291200Y-123985400I-250000J0D01*
G01*
D11*
X134320200Y-104498800D02*
G75*
G03*
X134320200Y-104498800I-150000J0D01*
G01*
X136979300Y-87353800D02*
G75*
G03*
X136979300Y-87353800I-150000J0D01*
G01*
D10*
X159740900Y-112079200D02*
G75*
G03*
X159740900Y-112079200I-250000J0D01*
G01*
D11*
X134042400Y-82115100D02*
G75*
G03*
X134042400Y-82115100I-150000J0D01*
G01*
X138130200Y-112079200D02*
G75*
G03*
X138130200Y-112079200I-150000J0D01*
G01*
D10*
X136999900Y-112079200D02*
G75*
G03*
X136999900Y-112079200I-250000J0D01*
G01*
X143865900Y-108269200D02*
G75*
G03*
X143865900Y-108269200I-250000J0D01*
G01*
D11*
X138130200Y-104498800D02*
G75*
G03*
X138130200Y-104498800I-150000J0D01*
G01*
X152298700Y-95489800D02*
G75*
G03*
X152298700Y-95489800I-150000J0D01*
G01*
D10*
X148469600Y-119897600D02*
G75*
G03*
X148469600Y-119897600I-250000J0D01*
G01*
X134420200Y-104498800D02*
G75*
G03*
X134420200Y-104498800I-250000J0D01*
G01*
X151485900Y-108269200D02*
G75*
G03*
X151485900Y-108269200I-250000J0D01*
G01*
D11*
X157339000Y-104379800D02*
G75*
G03*
X157339000Y-104379800I-150000J0D01*
G01*
X167578300Y-97315400D02*
G75*
G03*
X167578300Y-97315400I-150000J0D01*
G01*
D10*
X159701200Y-116167000D02*
G75*
G03*
X159701200Y-116167000I-250000J0D01*
G01*
X149819000Y-79852900D02*
G75*
G03*
X149819000Y-79852900I-250000J0D01*
G01*
D11*
X164046200Y-117159200D02*
G75*
G03*
X164046200Y-117159200I-150000J0D01*
G01*
D10*
X153311500Y-123231400D02*
G75*
G03*
X153311500Y-123231400I-250000J0D01*
G01*
X159344000Y-124223500D02*
G75*
G03*
X159344000Y-124223500I-250000J0D01*
G01*
D11*
X179524300Y-123032900D02*
G75*
G03*
X179524300Y-123032900I-150000J0D01*
G01*
X160791800Y-79654500D02*
G75*
G03*
X160791800Y-79654500I-150000J0D01*
G01*
X151465200Y-98466400D02*
G75*
G03*
X151465200Y-98466400I-150000J0D01*
G01*
D10*
X133507400Y-121524800D02*
G75*
G03*
X133507400Y-121524800I-250000J0D01*
G01*
D11*
X127692400Y-99498200D02*
G75*
G03*
X127692400Y-99498200I-150000J0D01*
G01*
X147853700Y-90489200D02*
G75*
G03*
X147853700Y-90489200I-150000J0D01*
G01*
D10*
X156010200Y-91917900D02*
G75*
G03*
X156010200Y-91917900I-250000J0D01*
G01*
X164939900Y-118072000D02*
G75*
G03*
X164939900Y-118072000I-250000J0D01*
G01*
D11*
X135550500Y-118389500D02*
G75*
G03*
X135550500Y-118389500I-150000J0D01*
G01*
D10*
X157200900Y-112079200D02*
G75*
G03*
X157200900Y-112079200I-250000J0D01*
G01*
D11*
X145075500Y-121604200D02*
G75*
G03*
X145075500Y-121604200I-150000J0D01*
G01*
X126898700Y-122794800D02*
G75*
G03*
X126898700Y-122794800I-150000J0D01*
G01*
D10*
X154105200Y-124223500D02*
G75*
G03*
X154105200Y-124223500I-250000J0D01*
G01*
D11*
X147853700Y-113984200D02*
G75*
G03*
X147853700Y-113984200I-150000J0D01*
G01*
D10*
X132237400Y-93505400D02*
G75*
G03*
X132237400Y-93505400I-250000J0D01*
G01*
D11*
X176389000Y-112079200D02*
G75*
G03*
X176389000Y-112079200I-150000J0D01*
G01*
D10*
X155375200Y-83027900D02*
G75*
G03*
X155375200Y-83027900I-250000J0D01*
G01*
X147080500Y-79852900D02*
G75*
G03*
X147080500Y-79852900I-250000J0D01*
G01*
X144143700Y-105729200D02*
G75*
G03*
X144143700Y-105729200I-250000J0D01*
G01*
D11*
X146980500Y-79852900D02*
G75*
G03*
X146980500Y-79852900I-150000J0D01*
G01*
X155275200Y-83027900D02*
G75*
G03*
X155275200Y-83027900I-150000J0D01*
G01*
X132137400Y-93505400D02*
G75*
G03*
X132137400Y-93505400I-150000J0D01*
G01*
X146980500Y-89695400D02*
G75*
G03*
X146980500Y-89695400I-150000J0D01*
G01*
D10*
X145294600Y-108269200D02*
G75*
G03*
X145294600Y-108269200I-250000J0D01*
G01*
D11*
X154283000Y-114738200D02*
G75*
G03*
X154283000Y-114738200I-150000J0D01*
G01*
D10*
X172163000Y-123072600D02*
G75*
G03*
X172163000Y-123072600I-250000J0D01*
G01*
D11*
X139320900Y-123469500D02*
G75*
G03*
X139320900Y-123469500I-150000J0D01*
G01*
X135629900Y-112118800D02*
G75*
G03*
X135629900Y-112118800I-150000J0D01*
G01*
X168530900Y-119977000D02*
G75*
G03*
X168530900Y-119977000I-150000J0D01*
G01*
D10*
X146366200Y-88584200D02*
G75*
G03*
X146366200Y-88584200I-250000J0D01*
G01*
D11*
X129756200Y-105332300D02*
G75*
G03*
X129756200Y-105332300I-150000J0D01*
G01*
D10*
X158828000Y-111325100D02*
G75*
G03*
X158828000Y-111325100I-250000J0D01*
G01*
X163749300Y-82908800D02*
G75*
G03*
X163749300Y-82908800I-250000J0D01*
G01*
X177282700Y-123787000D02*
G75*
G03*
X177282700Y-123787000I-250000J0D01*
G01*
D11*
X180794300Y-120532600D02*
G75*
G03*
X180794300Y-120532600I-150000J0D01*
G01*
X134320200Y-112039500D02*
G75*
G03*
X134320200Y-112039500I-150000J0D01*
G01*
D10*
X138230200Y-104498800D02*
G75*
G03*
X138230200Y-104498800I-250000J0D01*
G01*
X155732400Y-100807900D02*
G75*
G03*
X155732400Y-100807900I-250000J0D01*
G01*
D11*
X177262100Y-102673200D02*
G75*
G03*
X177262100Y-102673200I-150000J0D01*
G01*
D14*
X176177700Y-94973800D02*
G75*
G03*
X176177700Y-94973800I-1050000J0D01*
G01*
D11*
X151306500Y-119857900D02*
G75*
G03*
X151306500Y-119857900I-150000J0D01*
G01*
X156545200Y-110015400D02*
G75*
G03*
X156545200Y-110015400I-150000J0D01*
G01*
X159759900Y-106522900D02*
G75*
G03*
X159759900Y-106522900I-150000J0D01*
G01*
X146226500Y-97196400D02*
G75*
G03*
X146226500Y-97196400I-150000J0D01*
G01*
X159601200Y-116167000D02*
G75*
G03*
X159601200Y-116167000I-150000J0D01*
G01*
D10*
X181172100Y-90290700D02*
G75*
G03*
X181172100Y-90290700I-250000J0D01*
G01*
X176489000Y-112079200D02*
G75*
G03*
X176489000Y-112079200I-250000J0D01*
G01*
X143707100Y-122675700D02*
G75*
G03*
X143707100Y-122675700I-250000J0D01*
G01*
X144183300Y-120612000D02*
G75*
G03*
X144183300Y-120612000I-250000J0D01*
G01*
D11*
X162101500Y-97315400D02*
G75*
G03*
X162101500Y-97315400I-150000J0D01*
G01*
X165832100Y-122834500D02*
G75*
G03*
X165832100Y-122834500I-150000J0D01*
G01*
X144242100Y-79932300D02*
G75*
G03*
X144242100Y-79932300I-150000J0D01*
G01*
X161069600Y-116008200D02*
G75*
G03*
X161069600Y-116008200I-150000J0D01*
G01*
D10*
X173234600Y-120532600D02*
G75*
G03*
X173234600Y-120532600I-250000J0D01*
G01*
D11*
X151346200Y-94656400D02*
G75*
G03*
X151346200Y-94656400I-150000J0D01*
G01*
X144242100Y-101919200D02*
G75*
G03*
X144242100Y-101919200I-150000J0D01*
G01*
X155910200Y-91917900D02*
G75*
G03*
X155910200Y-91917900I-150000J0D01*
G01*
D10*
X170932700Y-94735700D02*
G75*
G03*
X170932700Y-94735700I-250000J0D01*
G01*
D12*
G36*
X146193000Y-78920400D02*
G01*
X144293000Y-78920400D01*
X144293000Y-73800400D01*
X146193000Y-73800400D01*
X146193000Y-78920400D01*
G37*
D10*
X147953700Y-90489200D02*
G75*
G03*
X147953700Y-90489200I-250000J0D01*
G01*
D11*
X160791800Y-97315400D02*
G75*
G03*
X160791800Y-97315400I-150000J0D01*
G01*
D10*
X151049300Y-112357000D02*
G75*
G03*
X151049300Y-112357000I-250000J0D01*
G01*
D11*
X157100900Y-112079200D02*
G75*
G03*
X157100900Y-112079200I-150000J0D01*
G01*
X144162700Y-113984200D02*
G75*
G03*
X144162700Y-113984200I-150000J0D01*
G01*
D10*
X152597100Y-79852900D02*
G75*
G03*
X152597100Y-79852900I-250000J0D01*
G01*
X134142400Y-82115100D02*
G75*
G03*
X134142400Y-82115100I-250000J0D01*
G01*
D13*
X180271300Y-108446600D02*
X181076300Y-109278600D01*
D11*
X154005200Y-124223500D02*
G75*
G03*
X154005200Y-124223500I-150000J0D01*
G01*
X151385900Y-108269200D02*
G75*
G03*
X151385900Y-108269200I-150000J0D01*
G01*
X157180200Y-119857900D02*
G75*
G03*
X157180200Y-119857900I-150000J0D01*
G01*
D12*
G36*
X149010900Y-78920400D02*
G01*
X147110900Y-78920400D01*
X147110900Y-73800400D01*
X149010900Y-73800400D01*
X149010900Y-78920400D01*
G37*
D11*
X149123700Y-115135100D02*
G75*
G03*
X149123700Y-115135100I-150000J0D01*
G01*
D10*
X153470200Y-115690700D02*
G75*
G03*
X153470200Y-115690700I-250000J0D01*
G01*
X146326500Y-97196400D02*
G75*
G03*
X146326500Y-97196400I-250000J0D01*
G01*
D11*
X170237400Y-109539200D02*
G75*
G03*
X170237400Y-109539200I-150000J0D01*
G01*
X129597400Y-95132600D02*
G75*
G03*
X129597400Y-95132600I-150000J0D01*
G01*
X179564000Y-104697300D02*
G75*
G03*
X179564000Y-104697300I-150000J0D01*
G01*
X160394900Y-88425400D02*
G75*
G03*
X160394900Y-88425400I-150000J0D01*
G01*
X181191200Y-123985400D02*
G75*
G03*
X181191200Y-123985400I-150000J0D01*
G01*
D10*
X130649900Y-84417000D02*
G75*
G03*
X130649900Y-84417000I-250000J0D01*
G01*
D11*
X177182700Y-123787000D02*
G75*
G03*
X177182700Y-123787000I-150000J0D01*
G01*
D10*
X173631500Y-105014800D02*
G75*
G03*
X173631500Y-105014800I-250000J0D01*
G01*
D11*
X175634900Y-113984200D02*
G75*
G03*
X175634900Y-113984200I-150000J0D01*
G01*
D10*
X156645200Y-97156700D02*
G75*
G03*
X156645200Y-97156700I-250000J0D01*
G01*
D11*
X143091200Y-114658800D02*
G75*
G03*
X143091200Y-114658800I-150000J0D01*
G01*
D10*
X138468300Y-118905400D02*
G75*
G03*
X138468300Y-118905400I-250000J0D01*
G01*
X145175500Y-121604200D02*
G75*
G03*
X145175500Y-121604200I-250000J0D01*
G01*
D11*
X158093000Y-79773500D02*
G75*
G03*
X158093000Y-79773500I-150000J0D01*
G01*
X157815200Y-86798200D02*
G75*
G03*
X157815200Y-86798200I-150000J0D01*
G01*
D10*
X121998000Y-122755100D02*
G75*
G03*
X121998000Y-122755100I-250000J0D01*
G01*
X170337400Y-109539200D02*
G75*
G03*
X170337400Y-109539200I-250000J0D01*
G01*
D11*
X180040200Y-88107900D02*
G75*
G03*
X180040200Y-88107900I-150000J0D01*
G01*
X162934900Y-92672000D02*
G75*
G03*
X162934900Y-92672000I-150000J0D01*
G01*
D10*
X131562700Y-87671400D02*
G75*
G03*
X131562700Y-87671400I-250000J0D01*
G01*
D11*
X133407400Y-121524800D02*
G75*
G03*
X133407400Y-121524800I-150000J0D01*
G01*
X163054000Y-108666000D02*
G75*
G03*
X163054000Y-108666000I-150000J0D01*
G01*
D13*
X180848300Y-108075600D02*
X180870300Y-108451600D01*
D11*
X143765900Y-108269200D02*
G75*
G03*
X143765900Y-108269200I-150000J0D01*
G01*
D10*
X180537100Y-109936000D02*
G75*
G03*
X180537100Y-109936000I-250000J0D01*
G01*
X143230900Y-119897600D02*
G75*
G03*
X143230900Y-119897600I-250000J0D01*
G01*
D11*
X143130900Y-88306400D02*
G75*
G03*
X143130900Y-88306400I-150000J0D01*
G01*
D12*
G36*
X160044000Y-78920400D02*
G01*
X158144000Y-78920400D01*
X158144000Y-73800400D01*
X160044000Y-73800400D01*
X160044000Y-78920400D01*
G37*
D11*
X156624600Y-105887900D02*
G75*
G03*
X156624600Y-105887900I-150000J0D01*
G01*
X175357100Y-101641400D02*
G75*
G03*
X175357100Y-101641400I-150000J0D01*
G01*
D12*
G36*
X157345200Y-78920400D02*
G01*
X155445200Y-78920400D01*
X155445200Y-73800400D01*
X157345200Y-73800400D01*
X157345200Y-78920400D01*
G37*
G36*
X140716200Y-78920400D02*
G01*
X138816200Y-78920400D01*
X138816200Y-73800400D01*
X140716200Y-73800400D01*
X140716200Y-78920400D01*
G37*
D11*
X161069600Y-108666000D02*
G75*
G03*
X161069600Y-108666000I-150000J0D01*
G01*
X165713000Y-87036400D02*
G75*
G03*
X165713000Y-87036400I-150000J0D01*
G01*
X156545200Y-97156700D02*
G75*
G03*
X156545200Y-97156700I-150000J0D01*
G01*
D10*
X179624300Y-123032900D02*
G75*
G03*
X179624300Y-123032900I-250000J0D01*
G01*
D11*
X173531500Y-105014800D02*
G75*
G03*
X173531500Y-105014800I-150000J0D01*
G01*
D10*
X158550200Y-105252900D02*
G75*
G03*
X158550200Y-105252900I-250000J0D01*
G01*
X177362100Y-102673200D02*
G75*
G03*
X177362100Y-102673200I-250000J0D01*
G01*
X125252400Y-105729200D02*
G75*
G03*
X125252400Y-105729200I-250000J0D01*
G01*
D11*
X150671500Y-114777900D02*
G75*
G03*
X150671500Y-114777900I-150000J0D01*
G01*
X157974000Y-108745400D02*
G75*
G03*
X157974000Y-108745400I-150000J0D01*
G01*
D10*
X173274300Y-119342000D02*
G75*
G03*
X173274300Y-119342000I-250000J0D01*
G01*
X179664000Y-104697300D02*
G75*
G03*
X179664000Y-104697300I-250000J0D01*
G01*
D11*
X153370200Y-115690700D02*
G75*
G03*
X153370200Y-115690700I-150000J0D01*
G01*
X136899900Y-105530700D02*
G75*
G03*
X136899900Y-105530700I-150000J0D01*
G01*
X159640900Y-112079200D02*
G75*
G03*
X159640900Y-112079200I-150000J0D01*
G01*
X137852400Y-92791000D02*
G75*
G03*
X137852400Y-92791000I-150000J0D01*
G01*
D10*
X171845500Y-98585400D02*
G75*
G03*
X171845500Y-98585400I-250000J0D01*
G01*
X170297700Y-121683500D02*
G75*
G03*
X170297700Y-121683500I-250000J0D01*
G01*
D11*
X146345500Y-110848800D02*
G75*
G03*
X146345500Y-110848800I-150000J0D01*
G01*
D10*
X162399900Y-117317900D02*
G75*
G03*
X162399900Y-117317900I-250000J0D01*
G01*
D11*
X146861500Y-112079200D02*
G75*
G03*
X146861500Y-112079200I-150000J0D01*
G01*
D10*
X180140200Y-88107900D02*
G75*
G03*
X180140200Y-88107900I-250000J0D01*
G01*
D11*
X160950500Y-124342600D02*
G75*
G03*
X160950500Y-124342600I-150000J0D01*
G01*
X178730500Y-103546400D02*
G75*
G03*
X178730500Y-103546400I-150000J0D01*
G01*
X163966800Y-110094800D02*
G75*
G03*
X163966800Y-110094800I-150000J0D01*
G01*
X150949300Y-112357000D02*
G75*
G03*
X150949300Y-112357000I-150000J0D01*
G01*
D10*
X157439000Y-104379800D02*
G75*
G03*
X157439000Y-104379800I-250000J0D01*
G01*
D11*
X141225900Y-85210700D02*
G75*
G03*
X141225900Y-85210700I-150000J0D01*
G01*
X132177100Y-89576400D02*
G75*
G03*
X132177100Y-89576400I-150000J0D01*
G01*
D10*
X129856200Y-105332300D02*
G75*
G03*
X129856200Y-105332300I-250000J0D01*
G01*
X165932100Y-122834500D02*
G75*
G03*
X165932100Y-122834500I-250000J0D01*
G01*
X147080500Y-89695400D02*
G75*
G03*
X147080500Y-89695400I-250000J0D01*
G01*
D11*
X145154900Y-102951000D02*
G75*
G03*
X145154900Y-102951000I-150000J0D01*
G01*
X142138700Y-122675700D02*
G75*
G03*
X142138700Y-122675700I-150000J0D01*
G01*
D10*
X156129300Y-124263200D02*
G75*
G03*
X156129300Y-124263200I-250000J0D01*
G01*
X154740200Y-92592600D02*
G75*
G03*
X154740200Y-92592600I-250000J0D01*
G01*
D11*
X148369600Y-119897600D02*
G75*
G03*
X148369600Y-119897600I-150000J0D01*
G01*
D10*
X160891800Y-97315400D02*
G75*
G03*
X160891800Y-97315400I-250000J0D01*
G01*
D11*
X137019000Y-123588500D02*
G75*
G03*
X137019000Y-123588500I-150000J0D01*
G01*
X126382700Y-97196400D02*
G75*
G03*
X126382700Y-97196400I-150000J0D01*
G01*
X158450200Y-105252900D02*
G75*
G03*
X158450200Y-105252900I-150000J0D01*
G01*
D10*
X141603700Y-80011700D02*
G75*
G03*
X141603700Y-80011700I-250000J0D01*
G01*
X136960200Y-118587900D02*
G75*
G03*
X136960200Y-118587900I-250000J0D01*
G01*
D11*
X145194600Y-87790400D02*
G75*
G03*
X145194600Y-87790400I-150000J0D01*
G01*
D15*
%TO.N,*%
X144092100Y-79932600D03*
X162152100Y-117322600D03*
X146192100Y-110852600D03*
X162902100Y-108662600D03*
X134172100Y-112042600D03*
X148972100Y-115132600D03*
X160642100Y-79652600D03*
X164692100Y-118072600D03*
X131992100Y-93502600D03*
X179892100Y-88112600D03*
X172982100Y-118112600D03*
X131312100Y-87672600D03*
X156392100Y-97152600D03*
X136712100Y-118592600D03*
X167432100Y-97312600D03*
X173022100Y-119342600D03*
X179412100Y-104692600D03*
X150522100Y-114782600D03*
X143892100Y-105732600D03*
X170682100Y-94732600D03*
X142982100Y-119892600D03*
X165682100Y-122832600D03*
X146832100Y-79852600D03*
X156392100Y-110012600D03*
X129452100Y-95132600D03*
X136072100Y-98742600D03*
X135402100Y-118392600D03*
X151192100Y-116442600D03*
X158302100Y-122672600D03*
X138732100Y-91482600D03*
X160802100Y-124342600D03*
X171912100Y-123072600D03*
X159092100Y-124222600D03*
X151312100Y-98462600D03*
X142982100Y-88302600D03*
X155842100Y-122952600D03*
X144092100Y-101922600D03*
X160642100Y-97312600D03*
X150802100Y-112352600D03*
X161792100Y-111122600D03*
X148222100Y-111962600D03*
X141992100Y-122672600D03*
X148222100Y-119892600D03*
X146072100Y-97192600D03*
X141352100Y-80012600D03*
X174612100Y-123552600D03*
X149532100Y-91842600D03*
X122702100Y-113472600D03*
X157942100Y-79772600D03*
X181402100Y-119302600D03*
X155762100Y-91922600D03*
X152152100Y-95492600D03*
X156392100Y-86682600D03*
X158302100Y-105252600D03*
X159452100Y-116162600D03*
X149572100Y-79852600D03*
X160242100Y-88422600D03*
X137982100Y-112082600D03*
X156952100Y-112082600D03*
X125002100Y-92152600D03*
X132032100Y-89572600D03*
X136712100Y-107432600D03*
X163502100Y-82912600D03*
X135482100Y-112122600D03*
X178622100Y-122042600D03*
X178582100Y-103542600D03*
X143612100Y-108272600D03*
X136832100Y-87352600D03*
X135282100Y-86562600D03*
X146712100Y-112082600D03*
X145002100Y-102952600D03*
X179372100Y-123032600D03*
X180642100Y-120532600D03*
X161952100Y-97312600D03*
X170092100Y-109542600D03*
X154132100Y-114742600D03*
X177822100Y-110812600D03*
X136872100Y-123592600D03*
X127502100Y-91122600D03*
X151152100Y-119862600D03*
X160922100Y-108662600D03*
X144012100Y-113982600D03*
X134172100Y-106242600D03*
X146832100Y-89692600D03*
X155482100Y-100812600D03*
X152352100Y-79852600D03*
X134172100Y-104502600D03*
X162782100Y-92672600D03*
X151232100Y-108272600D03*
X154492100Y-92592600D03*
X133892100Y-82112600D03*
X155882100Y-124262600D03*
X157072100Y-91122600D03*
X146112100Y-88582600D03*
X153222100Y-93382600D03*
X143452100Y-122672600D03*
X170052100Y-121682600D03*
X144922100Y-121602600D03*
X137982100Y-104502600D03*
X160922100Y-116012600D03*
X180922100Y-90292600D03*
X139172100Y-123472600D03*
D16*
X175132100Y-94972600D03*
D15*
X130402100Y-84412600D03*
X159612100Y-106522600D03*
X165562100Y-87032600D03*
X158582100Y-111322600D03*
X140642100Y-83072600D03*
X168382100Y-119972600D03*
X157662100Y-86802600D03*
X176242100Y-112082600D03*
X142942100Y-114662600D03*
X147702100Y-113982600D03*
X126272100Y-119262600D03*
X165682100Y-120492600D03*
X172982100Y-120532600D03*
X121752100Y-122752600D03*
X157822100Y-108742600D03*
X181042100Y-123982600D03*
X177112100Y-102672600D03*
X142192100Y-95842600D03*
X136752100Y-112082600D03*
X143932100Y-120612600D03*
X137702100Y-92792600D03*
X133262100Y-121522600D03*
X177032100Y-123782600D03*
X145042100Y-108272600D03*
X125002100Y-105732600D03*
X164092100Y-92632600D03*
X126232100Y-97192600D03*
X157192100Y-104382600D03*
X127542100Y-99502600D03*
X129602100Y-105332600D03*
X151192100Y-94652600D03*
X159492100Y-112082600D03*
D16*
X117742100Y-105252600D03*
D15*
X153222100Y-115692600D03*
X163892100Y-117162600D03*
X136752100Y-105532600D03*
X134172100Y-117512600D03*
X144172100Y-86872600D03*
X140242100Y-97432600D03*
X163812100Y-110092600D03*
X171122100Y-124022600D03*
X126752100Y-122792600D03*
X141072100Y-85212600D03*
X143772100Y-107002600D03*
X157032100Y-119862600D03*
X147702100Y-90492600D03*
X171592100Y-98582600D03*
X155122100Y-83032600D03*
X138222100Y-118902600D03*
X145042100Y-87792600D03*
X163422100Y-105212600D03*
X149252100Y-90492600D03*
X137902100Y-121602600D03*
X175482100Y-113982600D03*
X156472100Y-105892600D03*
X153852100Y-124222600D03*
X175212100Y-101642600D03*
X155122100Y-79772600D03*
X180292100Y-109932600D03*
X135872100Y-124222600D03*
X153062100Y-123232600D03*
X131872100Y-122752600D03*
X130402100Y-109972600D03*
X173382100Y-105012600D03*
%TD*%
D17*
%TO.N,*%
X141909300Y-125215700D02*
X141909300Y-134740700D01*
D18*
X159054300Y-128628800D02*
X159014600Y-128668500D01*
X174254600Y-99299800D02*
X174254600Y-107634200D01*
X143417400Y-121286700D02*
X142941200Y-120810400D01*
X156395200Y-110015400D02*
X156355500Y-110055100D01*
D19*
X173341800Y-100093500D02*
X170524000Y-97275700D01*
D18*
X146195500Y-109896400D02*
X146195500Y-110928200D01*
X154450500Y-92711700D02*
X154450500Y-89219200D01*
X178144000Y-125136400D02*
X178144000Y-126525400D01*
X146036800Y-103506700D02*
X146036800Y-88544500D01*
X171674900Y-96720100D02*
X174254600Y-99299800D01*
X141274300Y-81003800D02*
X151077100Y-90806700D01*
D19*
X126788300Y-129978200D02*
X126828000Y-130017900D01*
D18*
X149807100Y-115651000D02*
X153299600Y-115651000D01*
D17*
X183104900Y-125255400D02*
X183104900Y-134780400D01*
D18*
X172111500Y-117714800D02*
X171516200Y-118310100D01*
X138178700Y-118111700D02*
X138178700Y-118905400D01*
X134170200Y-106245100D02*
X134170200Y-104340100D01*
X155680900Y-120770700D02*
X155839600Y-120929500D01*
X136075200Y-102435100D02*
X138059600Y-104419500D01*
D19*
X138774000Y-124660100D02*
X138893000Y-124779200D01*
D18*
X173183000Y-120532600D02*
X173183000Y-124541000D01*
D19*
X170524000Y-94775400D02*
X170603300Y-94696000D01*
D18*
X169254000Y-123390100D02*
X171039900Y-125176000D01*
X155760200Y-88782600D02*
X155760200Y-91878200D01*
D19*
X133852700Y-82115100D02*
X133852700Y-81678500D01*
D18*
X153061500Y-118151400D02*
X155323700Y-115889200D01*
X158498700Y-114976400D02*
X155045900Y-118429200D01*
X160205200Y-91679800D02*
X160205200Y-88425400D01*
X172667100Y-119222900D02*
X172032100Y-119857900D01*
X152148700Y-90370100D02*
X143893700Y-82115100D01*
X152267700Y-124461700D02*
X152982100Y-124461700D01*
X173064000Y-124660100D02*
X173064000Y-127993800D01*
X174056200Y-127001700D02*
X174135500Y-127081000D01*
D19*
X133852700Y-81678500D02*
X134289300Y-81242000D01*
D18*
X160959300Y-116484500D02*
X158300200Y-119143500D01*
X153815500Y-85131400D02*
X153815500Y-82115100D01*
X158300200Y-119143500D02*
X158300200Y-122675700D01*
X140480500Y-123310700D02*
X140480500Y-97553500D01*
D17*
X140837700Y-125215700D02*
X140837700Y-134740700D01*
D18*
X160919600Y-108070700D02*
X160919600Y-108824800D01*
X142901500Y-114619200D02*
X142941200Y-114658800D01*
X129487100Y-82948500D02*
X140520200Y-82948500D01*
X144211200Y-121921700D02*
X144211200Y-124422000D01*
X150680200Y-114579500D02*
X154053700Y-114579500D01*
D17*
X176040500Y-125255400D02*
X176040500Y-134780400D01*
X109802100Y-125215700D02*
X109802100Y-134740700D01*
D18*
X174572100Y-109420100D02*
X175127700Y-109420100D01*
D19*
X134289300Y-76281000D02*
X134329000Y-76241400D01*
D17*
X111707100Y-125215700D02*
X111707100Y-134740700D01*
D18*
X161832400Y-124422000D02*
X160999000Y-125255400D01*
X176080200Y-127160400D02*
X176040500Y-127200100D01*
X154053700Y-114579500D02*
X154212400Y-114738200D01*
X146751200Y-79773500D02*
X146751200Y-83305700D01*
X143615900Y-108269200D02*
X143615900Y-108189800D01*
X155760200Y-91878200D02*
X155839600Y-91957600D01*
X136869000Y-120572300D02*
X136869000Y-123628200D01*
X142147400Y-120770700D02*
X142147400Y-95926400D01*
X175127700Y-109420100D02*
X175127700Y-101562000D01*
X151156500Y-119937300D02*
X151156500Y-116405100D01*
D17*
X129844300Y-125215700D02*
X129844300Y-134740700D01*
D18*
X140996500Y-85131400D02*
X140996500Y-96085100D01*
X142703000Y-123112300D02*
X142703000Y-121326400D01*
D19*
X151275500Y-98466400D02*
X151275500Y-108308800D01*
D18*
X149172100Y-90409800D02*
X149132400Y-90409800D01*
X157784300Y-108705700D02*
X157784300Y-114936700D01*
X160999000Y-125255400D02*
X160999000Y-128430400D01*
D17*
X113731200Y-125215700D02*
X113731200Y-134740700D01*
X128852100Y-125215700D02*
X128852100Y-134740700D01*
D18*
X135440200Y-112079200D02*
X135440200Y-118429200D01*
D19*
X121787700Y-127398500D02*
X121787700Y-129978200D01*
D18*
X167349000Y-97355100D02*
X167428300Y-97434500D01*
X156633300Y-123429800D02*
X156633300Y-120929500D01*
X156911200Y-115055700D02*
X156911200Y-112118800D01*
D20*
X121787700Y-119778500D02*
X122700500Y-117516400D01*
D18*
X162784900Y-92751400D02*
X162864300Y-92830700D01*
X126232700Y-97117000D02*
X126272400Y-97077300D01*
X149013300Y-115174800D02*
X149330900Y-115174800D01*
X179374300Y-123032900D02*
X179294900Y-123112300D01*
D17*
X175048300Y-125255400D02*
X175048300Y-134780400D01*
D18*
X136869000Y-87353800D02*
X136948300Y-87274500D01*
X147664000Y-113825400D02*
X148140200Y-113349200D01*
X148179900Y-119897600D02*
X148179900Y-114777900D01*
X142147400Y-95926400D02*
X142107700Y-95886700D01*
X147664000Y-104141700D02*
X147664000Y-90647900D01*
X136869000Y-123628200D02*
X137027700Y-123787000D01*
X157069900Y-91163800D02*
X157069900Y-88385700D01*
X137940500Y-117873500D02*
X138178700Y-118111700D01*
X144092100Y-86798200D02*
X144131800Y-86758500D01*
X173818000Y-107634200D02*
X173818000Y-124342600D01*
X172032100Y-119857900D02*
X172032100Y-121048500D01*
X143893700Y-82115100D02*
X143893700Y-79733800D01*
D19*
X126788300Y-124818800D02*
X126788300Y-127001700D01*
D18*
X176080200Y-123747300D02*
X176080200Y-124025100D01*
X143933300Y-124699800D02*
X143933300Y-127477900D01*
D17*
X138893000Y-125215700D02*
X138893000Y-134740700D01*
D18*
X149330900Y-115174800D02*
X149807100Y-115651000D01*
D19*
X170524000Y-97275700D02*
X170524000Y-94775400D01*
D17*
X131868300Y-125215700D02*
X131868300Y-134740700D01*
D18*
X160205200Y-88425400D02*
X160324300Y-88306400D01*
X164412100Y-123390100D02*
X165047100Y-124025100D01*
X124962700Y-92156000D02*
X125121500Y-91997300D01*
X136749900Y-112158500D02*
X136869000Y-112039500D01*
D19*
X156395200Y-81519800D02*
X156395200Y-76281000D01*
D18*
X155323700Y-112317300D02*
X157228700Y-110412300D01*
X159411500Y-112039500D02*
X159411500Y-114897000D01*
X136749900Y-118667300D02*
X136749900Y-112158500D01*
X180207700Y-122040700D02*
X180207700Y-124144200D01*
D17*
X133852700Y-125215700D02*
X133852700Y-134740700D01*
D18*
X155839600Y-124104500D02*
X155958700Y-124104500D01*
X165444000Y-118707000D02*
X164412100Y-119738800D01*
X180207700Y-124144200D02*
X179056800Y-125295100D01*
X176278700Y-111999800D02*
X176278700Y-123548800D01*
D17*
X152942400Y-125255400D02*
X152942400Y-134780400D01*
D18*
X171039900Y-105252900D02*
X171039900Y-124104500D01*
X141671200Y-96759800D02*
X141671200Y-122477300D01*
X166714000Y-86917300D02*
X167349000Y-87552300D01*
X142941200Y-120096000D02*
X143020500Y-120016700D01*
X160999000Y-128430400D02*
X161118000Y-128549500D01*
X143615900Y-108189800D02*
X147664000Y-104141700D01*
X159570200Y-106562600D02*
X159570200Y-106721400D01*
D17*
X127859900Y-125215700D02*
X127859900Y-134740700D01*
X135876800Y-125215700D02*
X135876800Y-134740700D01*
D18*
X159054300Y-125295100D02*
X159054300Y-128628800D01*
X176278700Y-123548800D02*
X176080200Y-123747300D01*
X148179900Y-114777900D02*
X150759600Y-112198200D01*
X157228700Y-109380400D02*
X156871500Y-109023200D01*
X140837700Y-123667900D02*
X140480500Y-123310700D01*
D19*
X155125200Y-83027900D02*
X155125200Y-82789800D01*
D18*
X158181200Y-88385700D02*
X158181200Y-92394200D01*
X168341200Y-104975100D02*
X160800500Y-97434500D01*
X132741500Y-110174200D02*
X132741500Y-117317900D01*
X172468700Y-103943200D02*
X160205200Y-91679800D01*
X161753000Y-106721400D02*
X161753000Y-116484500D01*
X149449900Y-79932300D02*
X149648300Y-79733800D01*
D19*
X162308700Y-77035100D02*
X162348300Y-77074800D01*
X131431800Y-77035100D02*
X162308700Y-77035100D01*
D18*
X151077100Y-94577000D02*
X151196200Y-94696000D01*
X155958700Y-124104500D02*
X156633300Y-123429800D01*
X160006800Y-127279500D02*
X159967100Y-127319200D01*
X153220200Y-89774800D02*
X153220200Y-93465700D01*
X159014600Y-124104500D02*
X159768700Y-123350400D01*
X146552700Y-112158500D02*
X146552700Y-112079200D01*
D17*
X167031500Y-125255400D02*
X167031500Y-134780400D01*
D18*
X132066800Y-93545100D02*
X131947700Y-93664200D01*
X153974300Y-125215700D02*
X153974300Y-129422600D01*
X142663300Y-97037600D02*
X142663300Y-113468200D01*
X171516200Y-118310100D02*
X171516200Y-122715400D01*
X159768700Y-119659500D02*
X162149900Y-117278200D01*
X140480500Y-97553500D02*
X140163000Y-97236000D01*
X161911800Y-97236000D02*
X161911800Y-97355100D01*
X135360900Y-107554800D02*
X132741500Y-110174200D01*
D20*
X122700500Y-117516400D02*
X122700500Y-85806000D01*
D18*
X172032100Y-124461700D02*
X172032100Y-127200100D01*
X135440200Y-118429200D02*
X135519600Y-118508500D01*
X146830500Y-89616000D02*
X146830500Y-103982900D01*
X158181200Y-92394200D02*
X171039900Y-105252900D01*
X155522100Y-101006400D02*
X154887100Y-101641400D01*
X180207700Y-110055100D02*
X180207700Y-110610700D01*
X140837700Y-125771400D02*
X140837700Y-123667900D01*
X160840200Y-120731000D02*
X163856500Y-117714800D01*
X137742100Y-96640700D02*
X139885200Y-98783800D01*
X180842700Y-108070700D02*
X180842700Y-90449500D01*
X162784900Y-85647300D02*
X162784900Y-92751400D01*
X135678300Y-119381700D02*
X136869000Y-120572300D01*
D17*
X157982700Y-125255400D02*
X157982700Y-134780400D01*
D18*
X165047100Y-124025100D02*
X165047100Y-127716000D01*
X164054900Y-92751400D02*
X164054900Y-85171000D01*
X160244900Y-109499500D02*
X160244900Y-116484500D01*
D17*
X115755200Y-125215700D02*
X115755200Y-134740700D01*
D18*
X165047100Y-127716000D02*
X165007400Y-127755700D01*
X146830500Y-103982900D02*
X143774600Y-107038800D01*
X174572100Y-123469500D02*
X174572100Y-109420100D01*
X132741500Y-117317900D02*
X134805200Y-119381700D01*
X158022400Y-125374500D02*
X158022400Y-126565100D01*
X143893700Y-79733800D02*
X144131800Y-79495700D01*
X141909300Y-123866400D02*
X141909300Y-126684200D01*
X132066800Y-89457300D02*
X132066800Y-93545100D01*
X179810900Y-121643800D02*
X180207700Y-122040700D01*
X154529900Y-118191000D02*
X154529900Y-123787000D01*
D19*
X137900900Y-127993800D02*
X137900900Y-130057600D01*
D18*
X144211200Y-124422000D02*
X143933300Y-124699800D01*
X157784300Y-86798200D02*
X157903300Y-86798200D01*
X143973000Y-113904800D02*
X143973000Y-121683500D01*
X157228700Y-110412300D02*
X157228700Y-109380400D01*
X144092100Y-101998500D02*
X144092100Y-86798200D01*
X136710200Y-107316700D02*
X136630900Y-107396000D01*
X155045900Y-125811000D02*
X154966500Y-125890400D01*
X164054900Y-85171000D02*
X160641800Y-81757900D01*
X154450500Y-89219200D02*
X149449900Y-84218500D01*
X177826500Y-124818800D02*
X178144000Y-125136400D01*
D17*
X137861200Y-125215700D02*
X137861200Y-134740700D01*
D18*
X135360900Y-86441000D02*
X135360900Y-107554800D01*
X148140200Y-112079200D02*
X148259300Y-111960100D01*
D17*
X180088700Y-125255400D02*
X180088700Y-134780400D01*
X154926800Y-125255400D02*
X154926800Y-134780400D01*
X155919000Y-125255400D02*
X155919000Y-134780400D01*
D18*
X130320500Y-110015400D02*
X130320500Y-88465100D01*
X142663300Y-113468200D02*
X142901500Y-113706400D01*
X148299000Y-91243200D02*
X148299000Y-107792900D01*
X160244900Y-116484500D02*
X157744600Y-118984800D01*
X162943700Y-117833800D02*
X160324300Y-120453200D01*
X157347700Y-104498800D02*
X157109600Y-104260700D01*
X142861800Y-123271000D02*
X142703000Y-123112300D01*
X157744600Y-118984800D02*
X157744600Y-120294500D01*
D20*
X121787700Y-122675700D02*
X121787700Y-119778500D01*
D18*
X158300200Y-124541000D02*
X159054300Y-125295100D01*
X161753000Y-116484500D02*
X159173300Y-119064200D01*
D17*
X163023000Y-125255400D02*
X163023000Y-134780400D01*
D18*
X158300200Y-123787000D02*
X158300200Y-124541000D01*
X139131200Y-123469500D02*
X139131200Y-98863200D01*
X172468700Y-107673800D02*
X172468700Y-103943200D01*
X157347700Y-107237300D02*
X157347700Y-104498800D01*
X140996500Y-96085100D02*
X141671200Y-96759800D01*
D19*
X126788300Y-127001700D02*
X126788300Y-129978200D01*
D18*
X153934600Y-124223500D02*
X153934600Y-118032300D01*
X158895500Y-92076700D02*
X171833700Y-105014800D01*
X147664000Y-90647900D02*
X147862400Y-90449500D01*
X160324300Y-120453200D02*
X160324300Y-123628200D01*
X143973000Y-121683500D02*
X144211200Y-121921700D01*
X137742100Y-92751400D02*
X137742100Y-96640700D01*
X147664000Y-114103200D02*
X147664000Y-113825400D01*
D17*
X110714900Y-125215700D02*
X110714900Y-134740700D01*
X174056200Y-125255400D02*
X174056200Y-134780400D01*
D18*
X156911200Y-112118800D02*
X156950900Y-112079200D01*
X154649000Y-123906000D02*
X154649000Y-124541000D01*
X165682100Y-122874200D02*
X165682100Y-120492900D01*
D17*
X172071800Y-125255400D02*
X172071800Y-134780400D01*
D18*
X160641800Y-81757900D02*
X160641800Y-79813200D01*
X141075900Y-96878800D02*
X141075900Y-123032900D01*
D17*
X182112700Y-125255400D02*
X182112700Y-134780400D01*
D18*
X177112100Y-125057000D02*
X177112100Y-127239800D01*
X155323700Y-115889200D02*
X155323700Y-112317300D01*
X156871500Y-109023200D02*
X156871500Y-107713500D01*
X155045900Y-118429200D02*
X155045900Y-125811000D01*
D17*
X134844900Y-125215700D02*
X134844900Y-134740700D01*
D18*
X151077100Y-90806700D02*
X151077100Y-94577000D01*
D19*
X126748700Y-122794800D02*
X126748700Y-124779200D01*
D18*
X153061500Y-123231400D02*
X153061500Y-118151400D01*
D17*
X156950900Y-125255400D02*
X156950900Y-134780400D01*
X153934600Y-125255400D02*
X153934600Y-134780400D01*
X160006800Y-125255400D02*
X160006800Y-134780400D01*
D19*
X121787700Y-122715400D02*
X121787700Y-127477900D01*
D18*
X154649000Y-124541000D02*
X153974300Y-125215700D01*
X136075200Y-84377300D02*
X136075200Y-102435100D01*
X181358700Y-112396700D02*
X181795200Y-111960100D01*
X157784300Y-114936700D02*
X154529900Y-118191000D01*
X175484900Y-124263200D02*
X176080200Y-124858500D01*
X156157100Y-120453200D02*
X156157100Y-119461000D01*
X149449900Y-91878200D02*
X149489600Y-91838500D01*
X180525200Y-111602900D02*
X180525200Y-120612000D01*
X163856500Y-117198800D02*
X163896200Y-117159200D01*
D17*
X117779300Y-125215700D02*
X117779300Y-134740700D01*
D18*
X127463000Y-103149500D02*
X129725200Y-105411700D01*
X160840200Y-124342600D02*
X160840200Y-120731000D01*
X149449900Y-84218500D02*
X149449900Y-79932300D01*
X157943000Y-80805400D02*
X162784900Y-85647300D01*
X143417400Y-122636000D02*
X143417400Y-121286700D01*
X137940500Y-111999800D02*
X137940500Y-117873500D01*
D19*
X144925500Y-121564500D02*
X144925500Y-129978200D01*
D18*
X148299000Y-107792900D02*
X146195500Y-109896400D01*
D19*
X131908000Y-127239800D02*
X131908000Y-129978200D01*
D17*
X169015900Y-125255400D02*
X169015900Y-134780400D01*
D18*
X155839600Y-120929500D02*
X155839600Y-122953500D01*
D17*
X168023700Y-125255400D02*
X168023700Y-134780400D01*
D18*
X156157100Y-119461000D02*
X159451200Y-116167000D01*
X159570200Y-106721400D02*
X160919600Y-108070700D01*
D19*
X137900900Y-121564500D02*
X137900900Y-128073200D01*
D17*
X160999000Y-125255400D02*
X160999000Y-134780400D01*
D18*
X158339900Y-107594500D02*
X160244900Y-109499500D01*
X160959300Y-115928800D02*
X160959300Y-116484500D01*
D17*
X122819600Y-125215700D02*
X122819600Y-134740700D01*
D18*
X168341200Y-120016700D02*
X168341200Y-104975100D01*
D17*
X119803300Y-125215700D02*
X119803300Y-134740700D01*
D18*
X143893700Y-105808500D02*
X143893700Y-105649800D01*
X130320500Y-88465100D02*
X131273000Y-87512600D01*
X145044600Y-87711000D02*
X145044600Y-102951000D01*
X138178700Y-118905400D02*
X138258000Y-118984800D01*
X163856500Y-117714800D02*
X163856500Y-117198800D01*
X174254600Y-107634200D02*
X173818000Y-107634200D01*
X138774000Y-91402000D02*
X138774000Y-94577000D01*
X142861800Y-126247600D02*
X142861800Y-123271000D01*
X159768700Y-123350400D02*
X159768700Y-119659500D01*
D17*
X158974900Y-125255400D02*
X158974900Y-134780400D01*
D18*
X159014600Y-124223500D02*
X159014600Y-124104500D01*
D17*
X173064000Y-125255400D02*
X173064000Y-134780400D01*
D18*
X157069900Y-88385700D02*
X153815500Y-85131400D01*
D17*
X179056800Y-125255400D02*
X179056800Y-134780400D01*
D18*
X176080200Y-124858500D02*
X176080200Y-127160400D01*
X155085500Y-80845100D02*
X155085500Y-79892600D01*
D19*
X145004900Y-108308800D02*
X145044600Y-108269200D01*
D18*
X172984600Y-118111700D02*
X172984600Y-107673800D01*
X156593700Y-86798200D02*
X158181200Y-88385700D01*
X157943000Y-79694200D02*
X157943000Y-80805400D01*
X152148700Y-95648500D02*
X152148700Y-90370100D01*
X164412100Y-119738800D02*
X164412100Y-123390100D01*
D17*
X116787100Y-125215700D02*
X116787100Y-134740700D01*
D18*
X156633300Y-120929500D02*
X156157100Y-120453200D01*
X140520200Y-82948500D02*
X140718700Y-83147000D01*
X149449900Y-109182000D02*
X149449900Y-91878200D01*
X163816800Y-114420700D02*
X165444000Y-116047900D01*
X177112100Y-127239800D02*
X177151800Y-127279500D01*
X174056200Y-124580700D02*
X174056200Y-127001700D01*
X129487100Y-95092900D02*
X129487100Y-82948500D01*
X152307400Y-79773500D02*
X152307400Y-85329800D01*
X155958700Y-125374500D02*
X155958700Y-127358800D01*
X180247400Y-102752600D02*
X180247400Y-108427900D01*
D19*
X133297100Y-121524800D02*
X133297100Y-121643800D01*
D18*
X180842700Y-90449500D02*
X181001500Y-90290700D01*
D19*
X145004900Y-121643800D02*
X145004900Y-108308800D01*
D17*
X171039900Y-125255400D02*
X171039900Y-134780400D01*
D18*
X152307400Y-85329800D02*
X155760200Y-88782600D01*
X179850500Y-88147600D02*
X179850500Y-102355700D01*
X163300900Y-105173500D02*
X161753000Y-106721400D01*
X127463000Y-91005100D02*
X127463000Y-103149500D01*
X172706800Y-123787000D02*
X172032100Y-124461700D01*
X124962700Y-105768800D02*
X124962700Y-92156000D01*
X139885200Y-98783800D02*
X139885200Y-126207900D01*
D17*
X178064600Y-125255400D02*
X178064600Y-134780400D01*
X177072400Y-125255400D02*
X177072400Y-134780400D01*
D18*
X164689900Y-117992600D02*
X164650200Y-117992600D01*
X142703000Y-121326400D02*
X142147400Y-120770700D01*
X143893700Y-105649800D02*
X146036800Y-103506700D01*
X171674900Y-82829500D02*
X171674900Y-96720100D01*
X167349000Y-87552300D02*
X167349000Y-97355100D01*
X156871500Y-107713500D02*
X157347700Y-107237300D01*
X175127700Y-101562000D02*
X175167400Y-101522300D01*
D17*
X143933300Y-125215700D02*
X143933300Y-134740700D01*
X125835900Y-125215700D02*
X125835900Y-134740700D01*
D18*
X142941200Y-96759800D02*
X142663300Y-97037600D01*
X173183000Y-124541000D02*
X173064000Y-124660100D01*
X161832400Y-120810400D02*
X161832400Y-124422000D01*
D19*
X133297100Y-121643800D02*
X135916500Y-124263200D01*
D17*
X142901500Y-125215700D02*
X142901500Y-134740700D01*
D18*
X158498700Y-111404500D02*
X158498700Y-114976400D01*
X157546200Y-120492900D02*
X157546200Y-124898200D01*
D19*
X173341800Y-105054500D02*
X173341800Y-100093500D01*
D18*
X177072400Y-102633500D02*
X177072400Y-123787000D01*
X159173300Y-122913800D02*
X158300200Y-123787000D01*
X159173300Y-119064200D02*
X159173300Y-122913800D01*
X180207700Y-110610700D02*
X179810900Y-111007600D01*
X162943700Y-108586700D02*
X162943700Y-117833800D01*
X164650200Y-117992600D02*
X161832400Y-120810400D01*
X171516200Y-122715400D02*
X171952700Y-123152000D01*
D19*
X137900900Y-124660100D02*
X138774000Y-124660100D01*
D20*
X122700500Y-85806000D02*
X131431800Y-77074800D01*
D18*
X172111500Y-108547000D02*
X172111500Y-117714800D01*
X134130500Y-117437000D02*
X134130500Y-112118800D01*
D17*
X132860500Y-125215700D02*
X132860500Y-134740700D01*
D18*
X157069900Y-124263200D02*
X155958700Y-125374500D01*
X158300200Y-122675700D02*
X158379600Y-122755100D01*
X141671200Y-122477300D02*
X141949000Y-122755100D01*
D17*
X123811800Y-125215700D02*
X123811800Y-134740700D01*
D18*
X157744600Y-120294500D02*
X157546200Y-120492900D01*
X146195500Y-110928200D02*
X146235200Y-110967900D01*
D17*
X139885200Y-125215700D02*
X139885200Y-134740700D01*
D18*
X155680900Y-118627600D02*
X155680900Y-120770700D01*
X158339900Y-105252900D02*
X158339900Y-107594500D01*
X169254000Y-104697300D02*
X169254000Y-123390100D01*
X142941200Y-88227000D02*
X142941200Y-96759800D01*
X178540900Y-103467000D02*
X178580500Y-103427300D01*
D17*
X120795500Y-125215700D02*
X120795500Y-134740700D01*
D18*
X163499300Y-82829500D02*
X171674900Y-82829500D01*
X159411500Y-114897000D02*
X155680900Y-118627600D01*
X146552700Y-112079200D02*
X149449900Y-109182000D01*
X163816800Y-110094800D02*
X163816800Y-114420700D01*
X134805200Y-119381700D02*
X135678300Y-119381700D01*
D19*
X170008000Y-121643800D02*
X170008000Y-109459800D01*
X126748700Y-124779200D02*
X126788300Y-124818800D01*
D18*
X176080200Y-124025100D02*
X177112100Y-125057000D01*
X179850500Y-102355700D02*
X180247400Y-102752600D01*
X157903300Y-86798200D02*
X158895500Y-87790400D01*
D17*
X161991200Y-125255400D02*
X161991200Y-134780400D01*
D18*
X152982100Y-124461700D02*
X152982100Y-126168200D01*
D17*
X124804000Y-125215700D02*
X124804000Y-134740700D01*
D18*
X141274300Y-79892600D02*
X141274300Y-81003800D01*
X179056800Y-126763500D02*
X179096500Y-126803200D01*
D17*
X181080900Y-125255400D02*
X181080900Y-134780400D01*
D18*
X138774000Y-94577000D02*
X141075900Y-96878800D01*
D17*
X170047700Y-125255400D02*
X170047700Y-134780400D01*
X164015200Y-125255400D02*
X164015200Y-134780400D01*
D18*
X181358700Y-119381700D02*
X181358700Y-112396700D01*
X136869000Y-96601000D02*
X136869000Y-87353800D01*
D17*
X121748000Y-125255400D02*
X121748000Y-134780400D01*
D19*
X131908000Y-122755100D02*
X131908000Y-127319200D01*
D18*
X160006800Y-123945700D02*
X160006800Y-127279500D01*
X161911800Y-97355100D02*
X169254000Y-104697300D01*
X172865500Y-119222900D02*
X172667100Y-119222900D01*
X173818000Y-124342600D02*
X174056200Y-124580700D01*
X149132400Y-90409800D02*
X148299000Y-91243200D01*
X179810900Y-111007600D02*
X179810900Y-121643800D01*
D17*
X126828000Y-125215700D02*
X126828000Y-134740700D01*
D18*
X155522100Y-100847600D02*
X155522100Y-101006400D01*
D17*
X136908700Y-125215700D02*
X136908700Y-134740700D01*
D18*
X158895500Y-87790400D02*
X158895500Y-92076700D01*
X139131200Y-98863200D02*
X136869000Y-96601000D01*
X142941200Y-120810400D02*
X142941200Y-120096000D01*
X172706800Y-121723200D02*
X172706800Y-123787000D01*
X163380200Y-105173500D02*
X163300900Y-105173500D01*
X155839600Y-122953500D02*
X155799900Y-122993200D01*
D17*
X144925500Y-125215700D02*
X144925500Y-134740700D01*
D19*
X155125200Y-82789800D02*
X156395200Y-81519800D01*
D17*
X165999600Y-125255400D02*
X165999600Y-134780400D01*
D18*
X152267700Y-117714800D02*
X152267700Y-124461700D01*
D19*
X181080900Y-124025100D02*
X181080900Y-129938500D01*
D18*
X136710200Y-105570400D02*
X136710200Y-107316700D01*
X160324300Y-123628200D02*
X160006800Y-123945700D01*
X126232700Y-119183200D02*
X126232700Y-97117000D01*
X177072400Y-123787000D02*
X176993000Y-123866400D01*
X171833700Y-105014800D02*
X171833700Y-108547000D01*
X172032100Y-121048500D02*
X172706800Y-121723200D01*
X181080900Y-111047300D02*
X180525200Y-111602900D01*
X171833700Y-108547000D02*
X172111500Y-108547000D01*
D17*
X130836500Y-125215700D02*
X130836500Y-134740700D01*
D18*
X157069900Y-119857900D02*
X157069900Y-124263200D01*
X157546200Y-124898200D02*
X158022400Y-125374500D01*
X153815500Y-82115100D02*
X155085500Y-80845100D01*
X156395200Y-97037600D02*
X156395200Y-110015400D01*
X171039900Y-125176000D02*
X171039900Y-127597000D01*
X148140200Y-113349200D02*
X148140200Y-112079200D01*
D17*
X118771500Y-125215700D02*
X118771500Y-134740700D01*
X164967700Y-125295100D02*
X164967700Y-134820100D01*
D18*
X146751200Y-83305700D02*
X153220200Y-89774800D01*
X172984600Y-107673800D02*
X172468700Y-107673800D01*
X160641800Y-79813200D02*
X160562400Y-79733800D01*
X130439600Y-84377300D02*
X136075200Y-84377300D01*
X154887100Y-115095400D02*
X152267700Y-117714800D01*
X141075900Y-123032900D02*
X141909300Y-123866400D01*
X165444000Y-116047900D02*
X165444000Y-118707000D01*
X153934600Y-118032300D02*
X156911200Y-115055700D01*
X179374300Y-104657600D02*
X179374300Y-123032900D01*
X154529900Y-123787000D02*
X154649000Y-123906000D01*
X155958700Y-127358800D02*
X155879300Y-127438200D01*
X142901500Y-113706400D02*
X142901500Y-114619200D01*
X154887100Y-101641400D02*
X154887100Y-115095400D01*
D19*
X138893000Y-124779200D02*
X138893000Y-130057600D01*
D17*
X114763000Y-125215700D02*
X114763000Y-134740700D01*
D19*
X134289300Y-81242000D02*
X134289300Y-76281000D01*
D18*
X178144000Y-126525400D02*
X178064600Y-126604800D01*
X165602700Y-86917300D02*
X166714000Y-86917300D01*
X181080900Y-109261400D02*
X181080900Y-111047300D01*
X177826500Y-110729800D02*
X177826500Y-124818800D01*
D17*
X112699300Y-125215700D02*
X112699300Y-134740700D01*
D18*
X156593700Y-86758500D02*
X156593700Y-86798200D01*
X175484900Y-113984200D02*
X175484900Y-124263200D01*
X173064000Y-127993800D02*
X173103700Y-128033500D01*
X179056800Y-125295100D02*
X179056800Y-126763500D01*
X178540900Y-122040700D02*
X178540900Y-103467000D01*
%TD*%
M02*
