%TF.GenerationSoftware,KiCad,Pcbnew,(6.0.2)*%
%TF.CreationDate,2022-05-14T16:30:45-05:00*%
%TF.ProjectId,REF1156 Mod 1110,52454631-3135-4362-904d-6f6420313131,rev?*%
%TF.SameCoordinates,Original*%
%TF.FileFunction,Soldermask,Top*%
%TF.FilePolarity,Negative*%
%FSLAX46Y46*%
G04 Gerber Fmt 4.6, Leading zero omitted, Abs format (unit mm)*
G04 Created by KiCad (PCBNEW (6.0.2)) date 2022-05-14 16:30:45*
%MOMM*%
%LPD*%
G01*
G04 APERTURE LIST*
%ADD10C,0.000000*%
%ADD11C,0.640000*%
%ADD12C,0.150000*%
G04 APERTURE END LIST*
D10*
G36*
X131727100Y-97076400D02*
G01*
X131057100Y-97076400D01*
X131057100Y-94776400D01*
X131727100Y-94776400D01*
X131727100Y-97076400D01*
G37*
G36*
X142106800Y-88006400D02*
G01*
X139806800Y-88006400D01*
X139806800Y-87336400D01*
X142106800Y-87336400D01*
X142106800Y-88006400D01*
G37*
G36*
X161814900Y-86061400D02*
G01*
X161214900Y-86061400D01*
X161214900Y-84201400D01*
X161814900Y-84201400D01*
X161814900Y-86061400D01*
G37*
G36*
X160544900Y-86061400D02*
G01*
X159944900Y-86061400D01*
X159944900Y-84201400D01*
X160544900Y-84201400D01*
X160544900Y-86061400D01*
G37*
G36*
X135537100Y-97076400D02*
G01*
X134867100Y-97076400D01*
X134867100Y-94776400D01*
X135537100Y-94776400D01*
X135537100Y-97076400D01*
G37*
D11*
X173103600Y-125414200D02*
X173103600Y-134939200D01*
D10*
G36*
X163779600Y-115193800D02*
G01*
X163139600Y-115193800D01*
X163139600Y-112853800D01*
X163779600Y-112853800D01*
X163779600Y-115193800D01*
G37*
G36*
X139649600Y-115233500D02*
G01*
X139009600Y-115233500D01*
X139009600Y-112893500D01*
X139649600Y-112893500D01*
X139649600Y-115233500D01*
G37*
G36*
X158004900Y-86061400D02*
G01*
X157404900Y-86061400D01*
X157404900Y-84201400D01*
X158004900Y-84201400D01*
X158004900Y-86061400D01*
G37*
G36*
X165009900Y-103724200D02*
G01*
X164369900Y-103724200D01*
X164369900Y-101384200D01*
X165009900Y-101384200D01*
X165009900Y-103724200D01*
G37*
G36*
X130637100Y-94356400D02*
G01*
X128337100Y-94356400D01*
X128337100Y-93686400D01*
X130637100Y-93686400D01*
X130637100Y-94356400D01*
G37*
G36*
X150439600Y-79118800D02*
G01*
X148539600Y-79118800D01*
X148539600Y-73998800D01*
X150439600Y-73998800D01*
X150439600Y-79118800D01*
G37*
G36*
X165009900Y-115193800D02*
G01*
X164369900Y-115193800D01*
X164369900Y-112853800D01*
X165009900Y-112853800D01*
X165009900Y-115193800D01*
G37*
G36*
X161814900Y-86061400D02*
G01*
X161214900Y-86061400D01*
X161214900Y-84201400D01*
X161814900Y-84201400D01*
X161814900Y-86061400D01*
G37*
G36*
X157429600Y-103724200D02*
G01*
X156789600Y-103724200D01*
X156789600Y-101384200D01*
X157429600Y-101384200D01*
X157429600Y-103724200D01*
G37*
G36*
X142106800Y-86736400D02*
G01*
X139806800Y-86736400D01*
X139806800Y-86066400D01*
X142106800Y-86066400D01*
X142106800Y-86736400D01*
G37*
G36*
X130637100Y-93086400D02*
G01*
X128337100Y-93086400D01*
X128337100Y-92416400D01*
X130637100Y-92416400D01*
X130637100Y-93086400D01*
G37*
G36*
X155104600Y-107358800D02*
G01*
X152764600Y-107358800D01*
X152764600Y-106718800D01*
X155104600Y-106718800D01*
X155104600Y-107358800D01*
G37*
D11*
X171079500Y-125414200D02*
X171079500Y-134939200D01*
X181160100Y-125414200D02*
X181160100Y-134939200D01*
X138932600Y-125414200D02*
X138932600Y-134939200D01*
D10*
G36*
X164354900Y-86061400D02*
G01*
X163754900Y-86061400D01*
X163754900Y-84201400D01*
X164354900Y-84201400D01*
X164354900Y-86061400D01*
G37*
G36*
X158004900Y-86061400D02*
G01*
X157404900Y-86061400D01*
X157404900Y-84201400D01*
X158004900Y-84201400D01*
X158004900Y-86061400D01*
G37*
G36*
X130719900Y-103763800D02*
G01*
X130079900Y-103763800D01*
X130079900Y-101423800D01*
X130719900Y-101423800D01*
X130719900Y-103763800D01*
G37*
G36*
X142105200Y-79118800D02*
G01*
X140205200Y-79118800D01*
X140205200Y-73998800D01*
X142105200Y-73998800D01*
X142105200Y-79118800D01*
G37*
G36*
X161239600Y-103724200D02*
G01*
X160599600Y-103724200D01*
X160599600Y-101384200D01*
X161239600Y-101384200D01*
X161239600Y-103724200D01*
G37*
G36*
X142404600Y-112438800D02*
G01*
X140064600Y-112438800D01*
X140064600Y-111798800D01*
X142404600Y-111798800D01*
X142404600Y-112438800D01*
G37*
G36*
X142404600Y-108668500D02*
G01*
X140064600Y-108668500D01*
X140064600Y-108028500D01*
X142404600Y-108028500D01*
X142404600Y-108668500D01*
G37*
G36*
X142404600Y-109938500D02*
G01*
X140064600Y-109938500D01*
X140064600Y-109298500D01*
X142404600Y-109298500D01*
X142404600Y-109938500D01*
G37*
G36*
X129449900Y-115233500D02*
G01*
X128809900Y-115233500D01*
X128809900Y-112893500D01*
X129449900Y-112893500D01*
X129449900Y-115233500D01*
G37*
G36*
X161239600Y-103724200D02*
G01*
X160599600Y-103724200D01*
X160599600Y-101384200D01*
X161239600Y-101384200D01*
X161239600Y-103724200D01*
G37*
G36*
X130637100Y-94356400D02*
G01*
X128337100Y-94356400D01*
X128337100Y-93686400D01*
X130637100Y-93686400D01*
X130637100Y-94356400D01*
G37*
D11*
X119922300Y-125414200D02*
X119922300Y-134939200D01*
D10*
G36*
X144883300Y-79118800D02*
G01*
X142983300Y-79118800D01*
X142983300Y-73998800D01*
X144883300Y-73998800D01*
X144883300Y-79118800D01*
G37*
D11*
X113850100Y-125414200D02*
X113850100Y-134939200D01*
D10*
G36*
X135799900Y-115233500D02*
G01*
X135159900Y-115233500D01*
X135159900Y-112893500D01*
X135799900Y-112893500D01*
X135799900Y-115233500D01*
G37*
G36*
X142404600Y-109938500D02*
G01*
X140064600Y-109938500D01*
X140064600Y-109298500D01*
X142404600Y-109298500D01*
X142404600Y-109938500D01*
G37*
G36*
X130637100Y-93086400D02*
G01*
X128337100Y-93086400D01*
X128337100Y-92416400D01*
X130637100Y-92416400D01*
X130637100Y-93086400D01*
G37*
G36*
X157429600Y-115193800D02*
G01*
X156789600Y-115193800D01*
X156789600Y-112853800D01*
X157429600Y-112853800D01*
X157429600Y-115193800D01*
G37*
D11*
X115874200Y-125414200D02*
X115874200Y-134939200D01*
D10*
G36*
X165585200Y-86061400D02*
G01*
X164985200Y-86061400D01*
X164985200Y-84201400D01*
X165585200Y-84201400D01*
X165585200Y-86061400D01*
G37*
G36*
X160505200Y-95705400D02*
G01*
X159905200Y-95705400D01*
X159905200Y-93845400D01*
X160505200Y-93845400D01*
X160505200Y-95705400D01*
G37*
G36*
X155104600Y-108628800D02*
G01*
X152764600Y-108628800D01*
X152764600Y-107988800D01*
X155104600Y-107988800D01*
X155104600Y-108628800D01*
G37*
G36*
X139386800Y-85646400D02*
G01*
X138716800Y-85646400D01*
X138716800Y-83346400D01*
X139386800Y-83346400D01*
X139386800Y-85646400D01*
G37*
D11*
X127899500Y-125414200D02*
X127899500Y-134939200D01*
X133892300Y-125414200D02*
X133892300Y-134939200D01*
D10*
G36*
X164315200Y-95705400D02*
G01*
X163715200Y-95705400D01*
X163715200Y-93845400D01*
X164315200Y-93845400D01*
X164315200Y-95705400D01*
G37*
G36*
X166934600Y-86061400D02*
G01*
X166334600Y-86061400D01*
X166334600Y-84201400D01*
X166934600Y-84201400D01*
X166934600Y-86061400D01*
G37*
D11*
X158062000Y-125414200D02*
X158062000Y-134939200D01*
X117898300Y-125414200D02*
X117898300Y-134939200D01*
X114882000Y-125414200D02*
X114882000Y-134939200D01*
D10*
G36*
X169114300Y-109898800D02*
G01*
X166774300Y-109898800D01*
X166774300Y-109258800D01*
X169114300Y-109258800D01*
X169114300Y-109898800D01*
G37*
G36*
X156159600Y-115193800D02*
G01*
X155519600Y-115193800D01*
X155519600Y-112853800D01*
X156159600Y-112853800D01*
X156159600Y-115193800D01*
G37*
G36*
X157429600Y-103724200D02*
G01*
X156789600Y-103724200D01*
X156789600Y-101384200D01*
X157429600Y-101384200D01*
X157429600Y-103724200D01*
G37*
G36*
X155104600Y-112399200D02*
G01*
X152764600Y-112399200D01*
X152764600Y-111759200D01*
X155104600Y-111759200D01*
X155104600Y-112399200D01*
G37*
G36*
X136549000Y-79118800D02*
G01*
X134649000Y-79118800D01*
X134649000Y-73998800D01*
X136549000Y-73998800D01*
X136549000Y-79118800D01*
G37*
D11*
X165047000Y-125453800D02*
X165047000Y-134978800D01*
D10*
G36*
X131989900Y-115233500D02*
G01*
X131349900Y-115233500D01*
X131349900Y-112893500D01*
X131989900Y-112893500D01*
X131989900Y-115233500D01*
G37*
G36*
X138300200Y-103763800D02*
G01*
X137660200Y-103763800D01*
X137660200Y-101423800D01*
X138300200Y-101423800D01*
X138300200Y-103763800D01*
G37*
G36*
X161239600Y-115193800D02*
G01*
X160599600Y-115193800D01*
X160599600Y-112853800D01*
X161239600Y-112853800D01*
X161239600Y-115193800D01*
G37*
D11*
X116906100Y-125414200D02*
X116906100Y-134939200D01*
D10*
G36*
X160544900Y-86061400D02*
G01*
X159944900Y-86061400D01*
X159944900Y-84201400D01*
X160544900Y-84201400D01*
X160544900Y-86061400D01*
G37*
G36*
X142404600Y-111168800D02*
G01*
X140064600Y-111168800D01*
X140064600Y-110528800D01*
X142404600Y-110528800D01*
X142404600Y-111168800D01*
G37*
G36*
X139649600Y-115233500D02*
G01*
X139009600Y-115233500D01*
X139009600Y-112893500D01*
X139649600Y-112893500D01*
X139649600Y-115233500D01*
G37*
D11*
X129883900Y-125414200D02*
X129883900Y-134939200D01*
D10*
G36*
X158699600Y-115193800D02*
G01*
X158059600Y-115193800D01*
X158059600Y-112853800D01*
X158699600Y-112853800D01*
X158699600Y-115193800D01*
G37*
D11*
X110833900Y-125414200D02*
X110833900Y-134939200D01*
D10*
G36*
X130719900Y-115233500D02*
G01*
X130079900Y-115233500D01*
X130079900Y-112893500D01*
X130719900Y-112893500D01*
X130719900Y-115233500D01*
G37*
D11*
X161038600Y-125414200D02*
X161038600Y-134939200D01*
D10*
G36*
X164354900Y-86061400D02*
G01*
X163754900Y-86061400D01*
X163754900Y-84201400D01*
X164354900Y-84201400D01*
X164354900Y-86061400D01*
G37*
G36*
X166934600Y-86061400D02*
G01*
X166334600Y-86061400D01*
X166334600Y-84201400D01*
X166934600Y-84201400D01*
X166934600Y-86061400D01*
G37*
G36*
X142106800Y-90586000D02*
G01*
X139806800Y-90586000D01*
X139806800Y-89916000D01*
X142106800Y-89916000D01*
X142106800Y-90586000D01*
G37*
G36*
X138116800Y-85646400D02*
G01*
X137446800Y-85646400D01*
X137446800Y-83346400D01*
X138116800Y-83346400D01*
X138116800Y-85646400D01*
G37*
G36*
X155104600Y-107358800D02*
G01*
X152764600Y-107358800D01*
X152764600Y-106718800D01*
X155104600Y-106718800D01*
X155104600Y-107358800D01*
G37*
D11*
X160046400Y-125414200D02*
X160046400Y-134939200D01*
X144012600Y-125414200D02*
X144012600Y-134939200D01*
D10*
G36*
X155464900Y-86061400D02*
G01*
X154864900Y-86061400D01*
X154864900Y-84201400D01*
X155464900Y-84201400D01*
X155464900Y-86061400D01*
G37*
G36*
X169114300Y-112399200D02*
G01*
X166774300Y-112399200D01*
X166774300Y-111759200D01*
X169114300Y-111759200D01*
X169114300Y-112399200D01*
G37*
G36*
X157965200Y-95705400D02*
G01*
X157365200Y-95705400D01*
X157365200Y-93845400D01*
X157965200Y-93845400D01*
X157965200Y-95705400D01*
G37*
D11*
X169055400Y-125414200D02*
X169055400Y-134939200D01*
D10*
G36*
X164315200Y-95705400D02*
G01*
X163715200Y-95705400D01*
X163715200Y-93845400D01*
X164315200Y-93845400D01*
X164315200Y-95705400D01*
G37*
G36*
X139386800Y-97076400D02*
G01*
X138716800Y-97076400D01*
X138716800Y-94776400D01*
X139386800Y-94776400D01*
X139386800Y-97076400D01*
G37*
G36*
X130637100Y-91856000D02*
G01*
X128337100Y-91856000D01*
X128337100Y-91186000D01*
X130637100Y-91186000D01*
X130637100Y-91856000D01*
G37*
G36*
X123590200Y-112294200D02*
G01*
X121890200Y-112294200D01*
X121890200Y-110594200D01*
X123590200Y-110594200D01*
X123590200Y-112294200D01*
G37*
G36*
X169114300Y-104779200D02*
G01*
X166774300Y-104779200D01*
X166774300Y-104139200D01*
X169114300Y-104139200D01*
X169114300Y-104779200D01*
G37*
G36*
X166894900Y-95705400D02*
G01*
X166294900Y-95705400D01*
X166294900Y-93845400D01*
X166894900Y-93845400D01*
X166894900Y-95705400D01*
G37*
G36*
X169114300Y-108628800D02*
G01*
X166774300Y-108628800D01*
X166774300Y-107988800D01*
X169114300Y-107988800D01*
X169114300Y-108628800D01*
G37*
G36*
X163045200Y-95705400D02*
G01*
X162445200Y-95705400D01*
X162445200Y-93845400D01*
X163045200Y-93845400D01*
X163045200Y-95705400D01*
G37*
D11*
X164054800Y-125414200D02*
X164054800Y-134939200D01*
X121867000Y-125453800D02*
X121867000Y-134978800D01*
D10*
G36*
X169114300Y-108628800D02*
G01*
X166774300Y-108628800D01*
X166774300Y-107988800D01*
X169114300Y-107988800D01*
X169114300Y-108628800D01*
G37*
G36*
X139327100Y-79118800D02*
G01*
X137427100Y-79118800D01*
X137427100Y-73998800D01*
X139327100Y-73998800D01*
X139327100Y-79118800D01*
G37*
G36*
X134529900Y-103763800D02*
G01*
X133889900Y-103763800D01*
X133889900Y-101423800D01*
X134529900Y-101423800D01*
X134529900Y-103763800D01*
G37*
G36*
X135537100Y-85646400D02*
G01*
X134867100Y-85646400D01*
X134867100Y-83346400D01*
X135537100Y-83346400D01*
X135537100Y-85646400D01*
G37*
G36*
X133770900Y-79118800D02*
G01*
X131870900Y-79118800D01*
X131870900Y-73998800D01*
X133770900Y-73998800D01*
X133770900Y-79118800D01*
G37*
G36*
X130637100Y-86736400D02*
G01*
X128337100Y-86736400D01*
X128337100Y-86066400D01*
X130637100Y-86066400D01*
X130637100Y-86736400D01*
G37*
D11*
X153021700Y-125414200D02*
X153021700Y-134939200D01*
D10*
G36*
X134306800Y-97076400D02*
G01*
X133636800Y-97076400D01*
X133636800Y-94776400D01*
X134306800Y-94776400D01*
X134306800Y-97076400D01*
G37*
G36*
X139649600Y-103763800D02*
G01*
X139009600Y-103763800D01*
X139009600Y-101423800D01*
X139649600Y-101423800D01*
X139649600Y-103763800D01*
G37*
G36*
X123590200Y-109158800D02*
G01*
X121890200Y-109158800D01*
X121890200Y-107458800D01*
X123590200Y-107458800D01*
X123590200Y-109158800D01*
G37*
G36*
X150379300Y-109158800D02*
G01*
X148679300Y-109158800D01*
X148679300Y-107458800D01*
X150379300Y-107458800D01*
X150379300Y-109158800D01*
G37*
D11*
X137900700Y-125414200D02*
X137900700Y-134939200D01*
X156037900Y-125414200D02*
X156037900Y-134939200D01*
D10*
G36*
X155104600Y-106049200D02*
G01*
X152764600Y-106049200D01*
X152764600Y-105409200D01*
X155104600Y-105409200D01*
X155104600Y-106049200D01*
G37*
G36*
X164369900Y-79118800D02*
G01*
X162469900Y-79118800D01*
X162469900Y-73998800D01*
X164369900Y-73998800D01*
X164369900Y-79118800D01*
G37*
G36*
X128394900Y-109938500D02*
G01*
X126054900Y-109938500D01*
X126054900Y-109298500D01*
X128394900Y-109298500D01*
X128394900Y-109938500D01*
G37*
G36*
X128394900Y-111168800D02*
G01*
X126054900Y-111168800D01*
X126054900Y-110528800D01*
X128394900Y-110528800D01*
X128394900Y-111168800D01*
G37*
G36*
X137069900Y-115233500D02*
G01*
X136429900Y-115233500D01*
X136429900Y-112893500D01*
X137069900Y-112893500D01*
X137069900Y-115233500D01*
G37*
G36*
X163084900Y-86061400D02*
G01*
X162484900Y-86061400D01*
X162484900Y-84201400D01*
X163084900Y-84201400D01*
X163084900Y-86061400D01*
G37*
G36*
X169114300Y-109898800D02*
G01*
X166774300Y-109898800D01*
X166774300Y-109258800D01*
X169114300Y-109258800D01*
X169114300Y-109898800D01*
G37*
D11*
X132900100Y-125414200D02*
X132900100Y-134939200D01*
X122859200Y-125414200D02*
X122859200Y-134939200D01*
D10*
G36*
X138116800Y-97076400D02*
G01*
X137446800Y-97076400D01*
X137446800Y-94776400D01*
X138116800Y-94776400D01*
X138116800Y-97076400D01*
G37*
G36*
X132997100Y-97076400D02*
G01*
X132327100Y-97076400D01*
X132327100Y-94776400D01*
X132997100Y-94776400D01*
X132997100Y-97076400D01*
G37*
D11*
X175127600Y-125414200D02*
X175127600Y-134939200D01*
D10*
G36*
X131727100Y-85646400D02*
G01*
X131057100Y-85646400D01*
X131057100Y-83346400D01*
X131727100Y-83346400D01*
X131727100Y-85646400D01*
G37*
G36*
X128394900Y-107398500D02*
G01*
X126054900Y-107398500D01*
X126054900Y-106758500D01*
X128394900Y-106758500D01*
X128394900Y-107398500D01*
G37*
G36*
X169114300Y-111129200D02*
G01*
X166774300Y-111129200D01*
X166774300Y-110489200D01*
X169114300Y-110489200D01*
X169114300Y-111129200D01*
G37*
G36*
X142404600Y-107398500D02*
G01*
X140064600Y-107398500D01*
X140064600Y-106758500D01*
X142404600Y-106758500D01*
X142404600Y-107398500D01*
G37*
G36*
X131989900Y-115233500D02*
G01*
X131349900Y-115233500D01*
X131349900Y-112893500D01*
X131989900Y-112893500D01*
X131989900Y-115233500D01*
G37*
G36*
X147701200Y-79118800D02*
G01*
X145801200Y-79118800D01*
X145801200Y-73998800D01*
X147701200Y-73998800D01*
X147701200Y-79118800D01*
G37*
D11*
X179136100Y-125414200D02*
X179136100Y-134939200D01*
D10*
G36*
X158699600Y-103724200D02*
G01*
X158059600Y-103724200D01*
X158059600Y-101384200D01*
X158699600Y-101384200D01*
X158699600Y-103724200D01*
G37*
G36*
X130719900Y-103763800D02*
G01*
X130079900Y-103763800D01*
X130079900Y-101423800D01*
X130719900Y-101423800D01*
X130719900Y-103763800D01*
G37*
G36*
X156075200Y-79118800D02*
G01*
X154175200Y-79118800D01*
X154175200Y-73998800D01*
X156075200Y-73998800D01*
X156075200Y-79118800D01*
G37*
D11*
X126907300Y-125414200D02*
X126907300Y-134939200D01*
D10*
G36*
X130637100Y-91856000D02*
G01*
X128337100Y-91856000D01*
X128337100Y-91186000D01*
X130637100Y-91186000D01*
X130637100Y-91856000D01*
G37*
G36*
X142106800Y-89316000D02*
G01*
X139806800Y-89316000D01*
X139806800Y-88646000D01*
X142106800Y-88646000D01*
X142106800Y-89316000D01*
G37*
G36*
X142106800Y-90586000D02*
G01*
X139806800Y-90586000D01*
X139806800Y-89916000D01*
X142106800Y-89916000D01*
X142106800Y-90586000D01*
G37*
D11*
X172111400Y-125414200D02*
X172111400Y-134939200D01*
X163022900Y-125414200D02*
X163022900Y-134939200D01*
D10*
G36*
X139327100Y-79118800D02*
G01*
X137427100Y-79118800D01*
X137427100Y-73998800D01*
X139327100Y-73998800D01*
X139327100Y-79118800D01*
G37*
D11*
X111826100Y-125414200D02*
X111826100Y-134939200D01*
D10*
G36*
X138116800Y-97076400D02*
G01*
X137446800Y-97076400D01*
X137446800Y-94776400D01*
X138116800Y-94776400D01*
X138116800Y-97076400D01*
G37*
G36*
X132997100Y-85646400D02*
G01*
X132327100Y-85646400D01*
X132327100Y-83346400D01*
X132997100Y-83346400D01*
X132997100Y-85646400D01*
G37*
G36*
X162509600Y-103724200D02*
G01*
X161869600Y-103724200D01*
X161869600Y-101384200D01*
X162509600Y-101384200D01*
X162509600Y-103724200D01*
G37*
G36*
X142404600Y-108668500D02*
G01*
X140064600Y-108668500D01*
X140064600Y-108028500D01*
X142404600Y-108028500D01*
X142404600Y-108668500D01*
G37*
G36*
X150439600Y-79118800D02*
G01*
X148539600Y-79118800D01*
X148539600Y-73998800D01*
X150439600Y-73998800D01*
X150439600Y-79118800D01*
G37*
G36*
X137069900Y-115233500D02*
G01*
X136429900Y-115233500D01*
X136429900Y-112893500D01*
X137069900Y-112893500D01*
X137069900Y-115233500D01*
G37*
G36*
X134529900Y-115233500D02*
G01*
X133889900Y-115233500D01*
X133889900Y-112893500D01*
X134529900Y-112893500D01*
X134529900Y-115233500D01*
G37*
D11*
X124843600Y-125414200D02*
X124843600Y-134939200D01*
D10*
G36*
X174231500Y-107372900D02*
G01*
X172531500Y-107372900D01*
X172531500Y-105672900D01*
X174231500Y-105672900D01*
X174231500Y-107372900D01*
G37*
D11*
X118890400Y-125414200D02*
X118890400Y-134939200D01*
D10*
G36*
X128394900Y-109938500D02*
G01*
X126054900Y-109938500D01*
X126054900Y-109298500D01*
X128394900Y-109298500D01*
X128394900Y-109938500D01*
G37*
G36*
X142404600Y-106088800D02*
G01*
X140064600Y-106088800D01*
X140064600Y-105448800D01*
X142404600Y-105448800D01*
X142404600Y-106088800D01*
G37*
G36*
X162509600Y-115193800D02*
G01*
X161869600Y-115193800D01*
X161869600Y-112853800D01*
X162509600Y-112853800D01*
X162509600Y-115193800D01*
G37*
D11*
X109921100Y-125414200D02*
X109921100Y-134939200D01*
D10*
G36*
X130637100Y-90586000D02*
G01*
X128337100Y-90586000D01*
X128337100Y-89916000D01*
X130637100Y-89916000D01*
X130637100Y-90586000D01*
G37*
G36*
X155425200Y-95705400D02*
G01*
X154825200Y-95705400D01*
X154825200Y-93845400D01*
X155425200Y-93845400D01*
X155425200Y-95705400D01*
G37*
D11*
X112818300Y-125414200D02*
X112818300Y-134939200D01*
D10*
G36*
X169114300Y-112399200D02*
G01*
X166774300Y-112399200D01*
X166774300Y-111759200D01*
X169114300Y-111759200D01*
X169114300Y-112399200D01*
G37*
G36*
X131989900Y-103763800D02*
G01*
X131349900Y-103763800D01*
X131349900Y-101423800D01*
X131989900Y-101423800D01*
X131989900Y-103763800D01*
G37*
G36*
X155104600Y-104779200D02*
G01*
X152764600Y-104779200D01*
X152764600Y-104139200D01*
X155104600Y-104139200D01*
X155104600Y-104779200D01*
G37*
D11*
X145044500Y-125414200D02*
X145044500Y-134939200D01*
X128931400Y-125414200D02*
X128931400Y-134939200D01*
D10*
G36*
X130637100Y-90586000D02*
G01*
X128337100Y-90586000D01*
X128337100Y-89916000D01*
X130637100Y-89916000D01*
X130637100Y-90586000D01*
G37*
G36*
X130637100Y-88006400D02*
G01*
X128337100Y-88006400D01*
X128337100Y-87336400D01*
X130637100Y-87336400D01*
X130637100Y-88006400D01*
G37*
G36*
X147323300Y-109158800D02*
G01*
X145623300Y-109158800D01*
X145623300Y-107458800D01*
X147323300Y-107458800D01*
X147323300Y-109158800D01*
G37*
G36*
X156075200Y-79118800D02*
G01*
X154175200Y-79118800D01*
X154175200Y-73998800D01*
X156075200Y-73998800D01*
X156075200Y-79118800D01*
G37*
G36*
X159969600Y-103724200D02*
G01*
X159329600Y-103724200D01*
X159329600Y-101384200D01*
X159969600Y-101384200D01*
X159969600Y-103724200D01*
G37*
G36*
X156159600Y-103724200D02*
G01*
X155519600Y-103724200D01*
X155519600Y-101384200D01*
X156159600Y-101384200D01*
X156159600Y-103724200D01*
G37*
G36*
X158699600Y-103724200D02*
G01*
X158059600Y-103724200D01*
X158059600Y-101384200D01*
X158699600Y-101384200D01*
X158699600Y-103724200D01*
G37*
D11*
X166078900Y-125414200D02*
X166078900Y-134939200D01*
D10*
G36*
X142404600Y-112438800D02*
G01*
X140064600Y-112438800D01*
X140064600Y-111798800D01*
X142404600Y-111798800D01*
X142404600Y-112438800D01*
G37*
G36*
X128394900Y-106088800D02*
G01*
X126054900Y-106088800D01*
X126054900Y-105448800D01*
X128394900Y-105448800D01*
X128394900Y-106088800D01*
G37*
G36*
X137069900Y-103763800D02*
G01*
X136429900Y-103763800D01*
X136429900Y-101423800D01*
X137069900Y-101423800D01*
X137069900Y-103763800D01*
G37*
G36*
X156734900Y-86061400D02*
G01*
X156134900Y-86061400D01*
X156134900Y-84201400D01*
X156734900Y-84201400D01*
X156734900Y-86061400D01*
G37*
G36*
X128394900Y-107398500D02*
G01*
X126054900Y-107398500D01*
X126054900Y-106758500D01*
X128394900Y-106758500D01*
X128394900Y-107398500D01*
G37*
G36*
X166359300Y-103724200D02*
G01*
X165719300Y-103724200D01*
X165719300Y-101384200D01*
X166359300Y-101384200D01*
X166359300Y-103724200D01*
G37*
G36*
X129449900Y-103763800D02*
G01*
X128809900Y-103763800D01*
X128809900Y-101423800D01*
X129449900Y-101423800D01*
X129449900Y-103763800D01*
G37*
D11*
X125875400Y-125414200D02*
X125875400Y-134939200D01*
D10*
G36*
X155104600Y-112399200D02*
G01*
X152764600Y-112399200D01*
X152764600Y-111759200D01*
X155104600Y-111759200D01*
X155104600Y-112399200D01*
G37*
G36*
X166359300Y-103724200D02*
G01*
X165719300Y-103724200D01*
X165719300Y-101384200D01*
X166359300Y-101384200D01*
X166359300Y-103724200D01*
G37*
D11*
X155045700Y-125414200D02*
X155045700Y-134939200D01*
D10*
G36*
X133259900Y-103763800D02*
G01*
X132619900Y-103763800D01*
X132619900Y-101423800D01*
X133259900Y-101423800D01*
X133259900Y-103763800D01*
G37*
G36*
X169114300Y-106049200D02*
G01*
X166774300Y-106049200D01*
X166774300Y-105409200D01*
X169114300Y-105409200D01*
X169114300Y-106049200D01*
G37*
G36*
X139386800Y-97076400D02*
G01*
X138716800Y-97076400D01*
X138716800Y-94776400D01*
X139386800Y-94776400D01*
X139386800Y-97076400D01*
G37*
G36*
X156734900Y-86061400D02*
G01*
X156134900Y-86061400D01*
X156134900Y-84201400D01*
X156734900Y-84201400D01*
X156734900Y-86061400D01*
G37*
G36*
X174231500Y-110468500D02*
G01*
X172531500Y-110468500D01*
X172531500Y-108768500D01*
X174231500Y-108768500D01*
X174231500Y-110468500D01*
G37*
D11*
X183184200Y-125414200D02*
X183184200Y-134939200D01*
D10*
G36*
X128394900Y-112438800D02*
G01*
X126054900Y-112438800D01*
X126054900Y-111798800D01*
X128394900Y-111798800D01*
X128394900Y-112438800D01*
G37*
D11*
X140917000Y-125414200D02*
X140917000Y-134939200D01*
X154053600Y-125414200D02*
X154053600Y-134939200D01*
D10*
G36*
X138300200Y-115233500D02*
G01*
X137660200Y-115233500D01*
X137660200Y-112893500D01*
X138300200Y-112893500D01*
X138300200Y-115233500D01*
G37*
D11*
X141988600Y-125414200D02*
X141988600Y-134939200D01*
D10*
G36*
X135537100Y-97076400D02*
G01*
X134867100Y-97076400D01*
X134867100Y-94776400D01*
X135537100Y-94776400D01*
X135537100Y-97076400D01*
G37*
G36*
X136807100Y-85646400D02*
G01*
X136137100Y-85646400D01*
X136137100Y-83346400D01*
X136807100Y-83346400D01*
X136807100Y-85646400D01*
G37*
D11*
X123851400Y-125414200D02*
X123851400Y-134939200D01*
D10*
G36*
X131032400Y-79118800D02*
G01*
X129132400Y-79118800D01*
X129132400Y-73998800D01*
X131032400Y-73998800D01*
X131032400Y-79118800D01*
G37*
G36*
X156695200Y-95705400D02*
G01*
X156095200Y-95705400D01*
X156095200Y-93845400D01*
X156695200Y-93845400D01*
X156695200Y-95705400D01*
G37*
G36*
X165545500Y-95705400D02*
G01*
X164945500Y-95705400D01*
X164945500Y-93845400D01*
X165545500Y-93845400D01*
X165545500Y-95705400D01*
G37*
D11*
X159054200Y-125414200D02*
X159054200Y-134939200D01*
D10*
G36*
X159274900Y-86061400D02*
G01*
X158674900Y-86061400D01*
X158674900Y-84201400D01*
X159274900Y-84201400D01*
X159274900Y-86061400D01*
G37*
G36*
X128394900Y-104818800D02*
G01*
X126054900Y-104818800D01*
X126054900Y-104178800D01*
X128394900Y-104178800D01*
X128394900Y-104818800D01*
G37*
G36*
X161239600Y-115193800D02*
G01*
X160599600Y-115193800D01*
X160599600Y-112853800D01*
X161239600Y-112853800D01*
X161239600Y-115193800D01*
G37*
G36*
X163084900Y-86061400D02*
G01*
X162484900Y-86061400D01*
X162484900Y-84201400D01*
X163084900Y-84201400D01*
X163084900Y-86061400D01*
G37*
G36*
X155104600Y-111129200D02*
G01*
X152764600Y-111129200D01*
X152764600Y-110489200D01*
X155104600Y-110489200D01*
X155104600Y-111129200D01*
G37*
G36*
X144883300Y-79118800D02*
G01*
X142983300Y-79118800D01*
X142983300Y-73998800D01*
X144883300Y-73998800D01*
X144883300Y-79118800D01*
G37*
D11*
X176119800Y-125414200D02*
X176119800Y-134939200D01*
D10*
G36*
X160505200Y-95705400D02*
G01*
X159905200Y-95705400D01*
X159905200Y-93845400D01*
X160505200Y-93845400D01*
X160505200Y-95705400D01*
G37*
G36*
X138116800Y-85646400D02*
G01*
X137446800Y-85646400D01*
X137446800Y-83346400D01*
X138116800Y-83346400D01*
X138116800Y-85646400D01*
G37*
G36*
X169114300Y-107358800D02*
G01*
X166774300Y-107358800D01*
X166774300Y-106718800D01*
X169114300Y-106718800D01*
X169114300Y-107358800D01*
G37*
G36*
X161631500Y-79118800D02*
G01*
X159731500Y-79118800D01*
X159731500Y-73998800D01*
X161631500Y-73998800D01*
X161631500Y-79118800D01*
G37*
G36*
X139386800Y-85646400D02*
G01*
X138716800Y-85646400D01*
X138716800Y-83346400D01*
X139386800Y-83346400D01*
X139386800Y-85646400D01*
G37*
G36*
X159969600Y-115193800D02*
G01*
X159329600Y-115193800D01*
X159329600Y-112853800D01*
X159969600Y-112853800D01*
X159969600Y-115193800D01*
G37*
G36*
X157429600Y-115193800D02*
G01*
X156789600Y-115193800D01*
X156789600Y-112853800D01*
X157429600Y-112853800D01*
X157429600Y-115193800D01*
G37*
G36*
X128394900Y-112438800D02*
G01*
X126054900Y-112438800D01*
X126054900Y-111798800D01*
X128394900Y-111798800D01*
X128394900Y-112438800D01*
G37*
G36*
X130637100Y-88006400D02*
G01*
X128337100Y-88006400D01*
X128337100Y-87336400D01*
X130637100Y-87336400D01*
X130637100Y-88006400D01*
G37*
G36*
X163779600Y-115193800D02*
G01*
X163139600Y-115193800D01*
X163139600Y-112853800D01*
X163779600Y-112853800D01*
X163779600Y-115193800D01*
G37*
G36*
X157965200Y-95705400D02*
G01*
X157365200Y-95705400D01*
X157365200Y-93845400D01*
X157965200Y-93845400D01*
X157965200Y-95705400D01*
G37*
G36*
X134529900Y-115233500D02*
G01*
X133889900Y-115233500D01*
X133889900Y-112893500D01*
X134529900Y-112893500D01*
X134529900Y-115233500D01*
G37*
G36*
X138300200Y-115233500D02*
G01*
X137660200Y-115233500D01*
X137660200Y-112893500D01*
X138300200Y-112893500D01*
X138300200Y-115233500D01*
G37*
D11*
X142980700Y-125414200D02*
X142980700Y-134939200D01*
D10*
G36*
X155104600Y-104779200D02*
G01*
X152764600Y-104779200D01*
X152764600Y-104139200D01*
X155104600Y-104139200D01*
X155104600Y-104779200D01*
G37*
G36*
X132997100Y-97076400D02*
G01*
X132327100Y-97076400D01*
X132327100Y-94776400D01*
X132997100Y-94776400D01*
X132997100Y-97076400D01*
G37*
G36*
X142106800Y-93086400D02*
G01*
X139806800Y-93086400D01*
X139806800Y-92416400D01*
X142106800Y-92416400D01*
X142106800Y-93086400D01*
G37*
G36*
X156695200Y-95705400D02*
G01*
X156095200Y-95705400D01*
X156095200Y-93845400D01*
X156695200Y-93845400D01*
X156695200Y-95705400D01*
G37*
G36*
X142106800Y-88006400D02*
G01*
X139806800Y-88006400D01*
X139806800Y-87336400D01*
X142106800Y-87336400D01*
X142106800Y-88006400D01*
G37*
G36*
X158813700Y-79118800D02*
G01*
X156913700Y-79118800D01*
X156913700Y-73998800D01*
X158813700Y-73998800D01*
X158813700Y-79118800D01*
G37*
G36*
X136549000Y-79118800D02*
G01*
X134649000Y-79118800D01*
X134649000Y-73998800D01*
X136549000Y-73998800D01*
X136549000Y-79118800D01*
G37*
G36*
X130637100Y-89316000D02*
G01*
X128337100Y-89316000D01*
X128337100Y-88646000D01*
X130637100Y-88646000D01*
X130637100Y-89316000D01*
G37*
G36*
X130719900Y-115233500D02*
G01*
X130079900Y-115233500D01*
X130079900Y-112893500D01*
X130719900Y-112893500D01*
X130719900Y-115233500D01*
G37*
G36*
X142106800Y-93086400D02*
G01*
X139806800Y-93086400D01*
X139806800Y-92416400D01*
X142106800Y-92416400D01*
X142106800Y-93086400D01*
G37*
G36*
X153257400Y-79118800D02*
G01*
X151357400Y-79118800D01*
X151357400Y-73998800D01*
X153257400Y-73998800D01*
X153257400Y-79118800D01*
G37*
G36*
X161631500Y-79118800D02*
G01*
X159731500Y-79118800D01*
X159731500Y-73998800D01*
X161631500Y-73998800D01*
X161631500Y-79118800D01*
G37*
G36*
X155425200Y-95705400D02*
G01*
X154825200Y-95705400D01*
X154825200Y-93845400D01*
X155425200Y-93845400D01*
X155425200Y-95705400D01*
G37*
G36*
X162509600Y-103724200D02*
G01*
X161869600Y-103724200D01*
X161869600Y-101384200D01*
X162509600Y-101384200D01*
X162509600Y-103724200D01*
G37*
G36*
X134306800Y-85646400D02*
G01*
X133636800Y-85646400D01*
X133636800Y-83346400D01*
X134306800Y-83346400D01*
X134306800Y-85646400D01*
G37*
G36*
X169114300Y-111129200D02*
G01*
X166774300Y-111129200D01*
X166774300Y-110489200D01*
X169114300Y-110489200D01*
X169114300Y-111129200D01*
G37*
G36*
X142106800Y-86736400D02*
G01*
X139806800Y-86736400D01*
X139806800Y-86066400D01*
X142106800Y-86066400D01*
X142106800Y-86736400D01*
G37*
G36*
X142106800Y-89316000D02*
G01*
X139806800Y-89316000D01*
X139806800Y-88646000D01*
X142106800Y-88646000D01*
X142106800Y-89316000D01*
G37*
G36*
X162509600Y-115193800D02*
G01*
X161869600Y-115193800D01*
X161869600Y-112853800D01*
X162509600Y-112853800D01*
X162509600Y-115193800D01*
G37*
G36*
X156159600Y-103724200D02*
G01*
X155519600Y-103724200D01*
X155519600Y-101384200D01*
X156159600Y-101384200D01*
X156159600Y-103724200D01*
G37*
G36*
X128394900Y-108668500D02*
G01*
X126054900Y-108668500D01*
X126054900Y-108028500D01*
X128394900Y-108028500D01*
X128394900Y-108668500D01*
G37*
G36*
X136807100Y-97076400D02*
G01*
X136137100Y-97076400D01*
X136137100Y-94776400D01*
X136807100Y-94776400D01*
X136807100Y-97076400D01*
G37*
G36*
X174231500Y-107372900D02*
G01*
X172531500Y-107372900D01*
X172531500Y-105672900D01*
X174231500Y-105672900D01*
X174231500Y-107372900D01*
G37*
G36*
X123590200Y-109158800D02*
G01*
X121890200Y-109158800D01*
X121890200Y-107458800D01*
X123590200Y-107458800D01*
X123590200Y-109158800D01*
G37*
G36*
X147323300Y-109158800D02*
G01*
X145623300Y-109158800D01*
X145623300Y-107458800D01*
X147323300Y-107458800D01*
X147323300Y-109158800D01*
G37*
G36*
X165545500Y-95705400D02*
G01*
X164945500Y-95705400D01*
X164945500Y-93845400D01*
X165545500Y-93845400D01*
X165545500Y-95705400D01*
G37*
G36*
X142404600Y-106088800D02*
G01*
X140064600Y-106088800D01*
X140064600Y-105448800D01*
X142404600Y-105448800D01*
X142404600Y-106088800D01*
G37*
G36*
X142404600Y-111168800D02*
G01*
X140064600Y-111168800D01*
X140064600Y-110528800D01*
X142404600Y-110528800D01*
X142404600Y-111168800D01*
G37*
G36*
X164369900Y-79118800D02*
G01*
X162469900Y-79118800D01*
X162469900Y-73998800D01*
X164369900Y-73998800D01*
X164369900Y-79118800D01*
G37*
G36*
X155104600Y-108628800D02*
G01*
X152764600Y-108628800D01*
X152764600Y-107988800D01*
X155104600Y-107988800D01*
X155104600Y-108628800D01*
G37*
G36*
X135537100Y-85646400D02*
G01*
X134867100Y-85646400D01*
X134867100Y-83346400D01*
X135537100Y-83346400D01*
X135537100Y-85646400D01*
G37*
G36*
X153257400Y-79118800D02*
G01*
X151357400Y-79118800D01*
X151357400Y-73998800D01*
X153257400Y-73998800D01*
X153257400Y-79118800D01*
G37*
D12*
X109332000Y-125001000D02*
X145519000Y-125001000D01*
X145519000Y-125001000D02*
X145519000Y-135395000D01*
X145519000Y-135395000D02*
X109332000Y-135395000D01*
X109332000Y-135395000D02*
X109332000Y-125001000D01*
D11*
X135876700Y-125414200D02*
X135876700Y-134939200D01*
X177151700Y-125414200D02*
X177151700Y-134939200D01*
D10*
G36*
X161775200Y-95705400D02*
G01*
X161175200Y-95705400D01*
X161175200Y-93845400D01*
X161775200Y-93845400D01*
X161775200Y-95705400D01*
G37*
G36*
X165585200Y-86061400D02*
G01*
X164985200Y-86061400D01*
X164985200Y-84201400D01*
X165585200Y-84201400D01*
X165585200Y-86061400D01*
G37*
G36*
X129449900Y-103763800D02*
G01*
X128809900Y-103763800D01*
X128809900Y-101423800D01*
X129449900Y-101423800D01*
X129449900Y-103763800D01*
G37*
G36*
X163045200Y-95705400D02*
G01*
X162445200Y-95705400D01*
X162445200Y-93845400D01*
X163045200Y-93845400D01*
X163045200Y-95705400D01*
G37*
G36*
X131727100Y-85646400D02*
G01*
X131057100Y-85646400D01*
X131057100Y-83346400D01*
X131727100Y-83346400D01*
X131727100Y-85646400D01*
G37*
G36*
X133259900Y-115233500D02*
G01*
X132619900Y-115233500D01*
X132619900Y-112893500D01*
X133259900Y-112893500D01*
X133259900Y-115233500D01*
G37*
G36*
X139649600Y-103763800D02*
G01*
X139009600Y-103763800D01*
X139009600Y-101423800D01*
X139649600Y-101423800D01*
X139649600Y-103763800D01*
G37*
G36*
X142106800Y-94356400D02*
G01*
X139806800Y-94356400D01*
X139806800Y-93686400D01*
X142106800Y-93686400D01*
X142106800Y-94356400D01*
G37*
G36*
X128394900Y-108668500D02*
G01*
X126054900Y-108668500D01*
X126054900Y-108028500D01*
X128394900Y-108028500D01*
X128394900Y-108668500D01*
G37*
G36*
X169114300Y-106049200D02*
G01*
X166774300Y-106049200D01*
X166774300Y-105409200D01*
X169114300Y-105409200D01*
X169114300Y-106049200D01*
G37*
G36*
X131032400Y-79118800D02*
G01*
X129132400Y-79118800D01*
X129132400Y-73998800D01*
X131032400Y-73998800D01*
X131032400Y-79118800D01*
G37*
G36*
X158813700Y-79118800D02*
G01*
X156913700Y-79118800D01*
X156913700Y-73998800D01*
X158813700Y-73998800D01*
X158813700Y-79118800D01*
G37*
D11*
X178143900Y-125414200D02*
X178143900Y-134939200D01*
D10*
G36*
X134529900Y-103763800D02*
G01*
X133889900Y-103763800D01*
X133889900Y-101423800D01*
X134529900Y-101423800D01*
X134529900Y-103763800D01*
G37*
G36*
X136807100Y-97076400D02*
G01*
X136137100Y-97076400D01*
X136137100Y-94776400D01*
X136807100Y-94776400D01*
X136807100Y-97076400D01*
G37*
G36*
X163779600Y-103724200D02*
G01*
X163139600Y-103724200D01*
X163139600Y-101384200D01*
X163779600Y-101384200D01*
X163779600Y-103724200D01*
G37*
G36*
X142404600Y-104818800D02*
G01*
X140064600Y-104818800D01*
X140064600Y-104178800D01*
X142404600Y-104178800D01*
X142404600Y-104818800D01*
G37*
G36*
X130637100Y-86736400D02*
G01*
X128337100Y-86736400D01*
X128337100Y-86066400D01*
X130637100Y-86066400D01*
X130637100Y-86736400D01*
G37*
G36*
X142404600Y-107398500D02*
G01*
X140064600Y-107398500D01*
X140064600Y-106758500D01*
X142404600Y-106758500D01*
X142404600Y-107398500D01*
G37*
G36*
X159969600Y-115193800D02*
G01*
X159329600Y-115193800D01*
X159329600Y-112853800D01*
X159969600Y-112853800D01*
X159969600Y-115193800D01*
G37*
G36*
X130637100Y-89316000D02*
G01*
X128337100Y-89316000D01*
X128337100Y-88646000D01*
X130637100Y-88646000D01*
X130637100Y-89316000D01*
G37*
G36*
X132997100Y-85646400D02*
G01*
X132327100Y-85646400D01*
X132327100Y-83346400D01*
X132997100Y-83346400D01*
X132997100Y-85646400D01*
G37*
G36*
X165009900Y-115193800D02*
G01*
X164369900Y-115193800D01*
X164369900Y-112853800D01*
X165009900Y-112853800D01*
X165009900Y-115193800D01*
G37*
D11*
X168023600Y-125414200D02*
X168023600Y-134939200D01*
D10*
G36*
X136807100Y-85646400D02*
G01*
X136137100Y-85646400D01*
X136137100Y-83346400D01*
X136807100Y-83346400D01*
X136807100Y-85646400D01*
G37*
G36*
X133259900Y-115233500D02*
G01*
X132619900Y-115233500D01*
X132619900Y-112893500D01*
X133259900Y-112893500D01*
X133259900Y-115233500D01*
G37*
G36*
X133259900Y-103763800D02*
G01*
X132619900Y-103763800D01*
X132619900Y-101423800D01*
X133259900Y-101423800D01*
X133259900Y-103763800D01*
G37*
G36*
X158699600Y-115193800D02*
G01*
X158059600Y-115193800D01*
X158059600Y-112853800D01*
X158699600Y-112853800D01*
X158699600Y-115193800D01*
G37*
G36*
X159969600Y-103724200D02*
G01*
X159329600Y-103724200D01*
X159329600Y-101384200D01*
X159969600Y-101384200D01*
X159969600Y-103724200D01*
G37*
D11*
X157069800Y-125414200D02*
X157069800Y-134939200D01*
D10*
G36*
X134306800Y-85646400D02*
G01*
X133636800Y-85646400D01*
X133636800Y-83346400D01*
X134306800Y-83346400D01*
X134306800Y-85646400D01*
G37*
G36*
X155464900Y-86061400D02*
G01*
X154864900Y-86061400D01*
X154864900Y-84201400D01*
X155464900Y-84201400D01*
X155464900Y-86061400D01*
G37*
G36*
X123590200Y-112294200D02*
G01*
X121890200Y-112294200D01*
X121890200Y-110594200D01*
X123590200Y-110594200D01*
X123590200Y-112294200D01*
G37*
G36*
X174231500Y-110468500D02*
G01*
X172531500Y-110468500D01*
X172531500Y-108768500D01*
X174231500Y-108768500D01*
X174231500Y-110468500D01*
G37*
G36*
X166894900Y-95705400D02*
G01*
X166294900Y-95705400D01*
X166294900Y-93845400D01*
X166894900Y-93845400D01*
X166894900Y-95705400D01*
G37*
D11*
X136908600Y-125414200D02*
X136908600Y-134939200D01*
D10*
G36*
X169114300Y-104779200D02*
G01*
X166774300Y-104779200D01*
X166774300Y-104139200D01*
X169114300Y-104139200D01*
X169114300Y-104779200D01*
G37*
G36*
X161775200Y-95705400D02*
G01*
X161175200Y-95705400D01*
X161175200Y-93845400D01*
X161775200Y-93845400D01*
X161775200Y-95705400D01*
G37*
D11*
X120914500Y-125414200D02*
X120914500Y-134939200D01*
D10*
G36*
X155104600Y-111129200D02*
G01*
X152764600Y-111129200D01*
X152764600Y-110489200D01*
X155104600Y-110489200D01*
X155104600Y-111129200D01*
G37*
D11*
X139924800Y-125414200D02*
X139924800Y-134939200D01*
D10*
G36*
X128394900Y-111168800D02*
G01*
X126054900Y-111168800D01*
X126054900Y-110528800D01*
X128394900Y-110528800D01*
X128394900Y-111168800D01*
G37*
G36*
X142106800Y-91856000D02*
G01*
X139806800Y-91856000D01*
X139806800Y-91186000D01*
X142106800Y-91186000D01*
X142106800Y-91856000D01*
G37*
D11*
X180167900Y-125414200D02*
X180167900Y-134939200D01*
D10*
G36*
X142106800Y-94356400D02*
G01*
X139806800Y-94356400D01*
X139806800Y-93686400D01*
X142106800Y-93686400D01*
X142106800Y-94356400D01*
G37*
D11*
X130876100Y-125414200D02*
X130876100Y-134939200D01*
D10*
G36*
X138300200Y-103763800D02*
G01*
X137660200Y-103763800D01*
X137660200Y-101423800D01*
X138300200Y-101423800D01*
X138300200Y-103763800D01*
G37*
G36*
X159235200Y-95705400D02*
G01*
X158635200Y-95705400D01*
X158635200Y-93845400D01*
X159235200Y-93845400D01*
X159235200Y-95705400D01*
G37*
G36*
X142105200Y-79118800D02*
G01*
X140205200Y-79118800D01*
X140205200Y-73998800D01*
X142105200Y-73998800D01*
X142105200Y-79118800D01*
G37*
G36*
X129449900Y-115233500D02*
G01*
X128809900Y-115233500D01*
X128809900Y-112893500D01*
X129449900Y-112893500D01*
X129449900Y-115233500D01*
G37*
G36*
X135799900Y-103763800D02*
G01*
X135159900Y-103763800D01*
X135159900Y-101423800D01*
X135799900Y-101423800D01*
X135799900Y-103763800D01*
G37*
G36*
X159274900Y-86061400D02*
G01*
X158674900Y-86061400D01*
X158674900Y-84201400D01*
X159274900Y-84201400D01*
X159274900Y-86061400D01*
G37*
G36*
X163779600Y-103724200D02*
G01*
X163139600Y-103724200D01*
X163139600Y-101384200D01*
X163779600Y-101384200D01*
X163779600Y-103724200D01*
G37*
G36*
X150379300Y-109158800D02*
G01*
X148679300Y-109158800D01*
X148679300Y-107458800D01*
X150379300Y-107458800D01*
X150379300Y-109158800D01*
G37*
G36*
X155104600Y-109898800D02*
G01*
X152764600Y-109898800D01*
X152764600Y-109258800D01*
X155104600Y-109258800D01*
X155104600Y-109898800D01*
G37*
G36*
X147701200Y-79118800D02*
G01*
X145801200Y-79118800D01*
X145801200Y-73998800D01*
X147701200Y-73998800D01*
X147701200Y-79118800D01*
G37*
G36*
X165009900Y-103724200D02*
G01*
X164369900Y-103724200D01*
X164369900Y-101384200D01*
X165009900Y-101384200D01*
X165009900Y-103724200D01*
G37*
G36*
X128394900Y-106088800D02*
G01*
X126054900Y-106088800D01*
X126054900Y-105448800D01*
X128394900Y-105448800D01*
X128394900Y-106088800D01*
G37*
G36*
X131727100Y-97076400D02*
G01*
X131057100Y-97076400D01*
X131057100Y-94776400D01*
X131727100Y-94776400D01*
X131727100Y-97076400D01*
G37*
G36*
X128394900Y-104818800D02*
G01*
X126054900Y-104818800D01*
X126054900Y-104178800D01*
X128394900Y-104178800D01*
X128394900Y-104818800D01*
G37*
D11*
X182192000Y-125414200D02*
X182192000Y-134939200D01*
D10*
G36*
X155104600Y-106049200D02*
G01*
X152764600Y-106049200D01*
X152764600Y-105409200D01*
X155104600Y-105409200D01*
X155104600Y-106049200D01*
G37*
G36*
X134306800Y-97076400D02*
G01*
X133636800Y-97076400D01*
X133636800Y-94776400D01*
X134306800Y-94776400D01*
X134306800Y-97076400D01*
G37*
G36*
X142106800Y-91856000D02*
G01*
X139806800Y-91856000D01*
X139806800Y-91186000D01*
X142106800Y-91186000D01*
X142106800Y-91856000D01*
G37*
G36*
X159235200Y-95705400D02*
G01*
X158635200Y-95705400D01*
X158635200Y-93845400D01*
X159235200Y-93845400D01*
X159235200Y-95705400D01*
G37*
D11*
X167071100Y-125414200D02*
X167071100Y-134939200D01*
D10*
G36*
X137069900Y-103763800D02*
G01*
X136429900Y-103763800D01*
X136429900Y-101423800D01*
X137069900Y-101423800D01*
X137069900Y-103763800D01*
G37*
G36*
X156159600Y-115193800D02*
G01*
X155519600Y-115193800D01*
X155519600Y-112853800D01*
X156159600Y-112853800D01*
X156159600Y-115193800D01*
G37*
D11*
X170127000Y-125414200D02*
X170127000Y-134939200D01*
D10*
G36*
X135799900Y-115233500D02*
G01*
X135159900Y-115233500D01*
X135159900Y-112893500D01*
X135799900Y-112893500D01*
X135799900Y-115233500D01*
G37*
G36*
X135799900Y-103763800D02*
G01*
X135159900Y-103763800D01*
X135159900Y-101423800D01*
X135799900Y-101423800D01*
X135799900Y-103763800D01*
G37*
D11*
X134884500Y-125414200D02*
X134884500Y-134939200D01*
D10*
G36*
X166359300Y-115193800D02*
G01*
X165719300Y-115193800D01*
X165719300Y-112853800D01*
X166359300Y-112853800D01*
X166359300Y-115193800D01*
G37*
D11*
X131907900Y-125414200D02*
X131907900Y-134939200D01*
D10*
G36*
X133770900Y-79118800D02*
G01*
X131870900Y-79118800D01*
X131870900Y-73998800D01*
X133770900Y-73998800D01*
X133770900Y-79118800D01*
G37*
G36*
X142404600Y-104818800D02*
G01*
X140064600Y-104818800D01*
X140064600Y-104178800D01*
X142404600Y-104178800D01*
X142404600Y-104818800D01*
G37*
G36*
X155104600Y-109898800D02*
G01*
X152764600Y-109898800D01*
X152764600Y-109258800D01*
X155104600Y-109258800D01*
X155104600Y-109898800D01*
G37*
D11*
X174095700Y-125414200D02*
X174095700Y-134939200D01*
D10*
G36*
X169114300Y-107358800D02*
G01*
X166774300Y-107358800D01*
X166774300Y-106718800D01*
X169114300Y-106718800D01*
X169114300Y-107358800D01*
G37*
G36*
X131989900Y-103763800D02*
G01*
X131349900Y-103763800D01*
X131349900Y-101423800D01*
X131989900Y-101423800D01*
X131989900Y-103763800D01*
G37*
G36*
X166359300Y-115193800D02*
G01*
X165719300Y-115193800D01*
X165719300Y-112853800D01*
X166359300Y-112853800D01*
X166359300Y-115193800D01*
G37*
D11*
X162110100Y-125414200D02*
X162110100Y-134939200D01*
G36*
X183614647Y-124991169D02*
G01*
X183661293Y-125044691D01*
X183672830Y-125097530D01*
X183659170Y-135256885D01*
X183639076Y-135324979D01*
X183585358Y-135371400D01*
X183532887Y-135382716D01*
X152647196Y-135313284D01*
X152579120Y-135293129D01*
X152532748Y-135239369D01*
X152521480Y-135186805D01*
X152559524Y-125185162D01*
X152579785Y-125117118D01*
X152633617Y-125070829D01*
X152685163Y-125059642D01*
X183546470Y-124971362D01*
X183614647Y-124991169D01*
G37*
G36*
X145415011Y-125048892D02*
G01*
X145483114Y-125068952D01*
X145529561Y-125122648D01*
X145540903Y-125174989D01*
X145533097Y-135295902D01*
X145513042Y-135364007D01*
X145459351Y-135410459D01*
X145406902Y-135421805D01*
X109453927Y-135366195D01*
X109385837Y-135346087D01*
X109339428Y-135292360D01*
X109328122Y-135240073D01*
X109337878Y-125143986D01*
X109357946Y-125075885D01*
X109411646Y-125029444D01*
X109463986Y-125018108D01*
X145415011Y-125048892D01*
G37*
M02*
